<svg xmlns="http://www.w3.org/2000/svg" xmlns:xlink="http://www.w3.org/1999/xlink" viewBox="0 0 1000 450"><defs><style>.cls-1{isolation:isolate;}.cls-10,.cls-11,.cls-12,.cls-13,.cls-14,.cls-15,.cls-16,.cls-17,.cls-18,.cls-19,.cls-2,.cls-20,.cls-21,.cls-22,.cls-23,.cls-24,.cls-25,.cls-26,.cls-27,.cls-28,.cls-29,.cls-30,.cls-31,.cls-32,.cls-33,.cls-35,.cls-36,.cls-37,.cls-4,.cls-5,.cls-6,.cls-7,.cls-8,.cls-9{fill-rule:evenodd;}.cls-2{fill:url(#linear-gradient);}.cls-3{fill:url(#linear-gradient-2);}.cls-4{fill:url(#linear-gradient-3);}.cls-5{fill:url(#Áåçûìÿííûé_ãðàäèåíò_245);}.cls-6{fill:url(#Áåçûìÿííûé_ãðàäèåíò_5);}.cls-7{fill:#05002a;}.cls-8{fill:url(#Áåçûìÿííûé_ãðàäèåíò_101);}.cls-9{fill:url(#Áåçûìÿííûé_ãðàäèåíò_5-2);}.cls-10{fill:url(#Áåçûìÿííûé_ãðàäèåíò_18);}.cls-11{fill:url(#linear-gradient-4);}.cls-12{fill:url(#linear-gradient-5);}.cls-13{fill:url(#linear-gradient-6);}.cls-14{fill:url(#Áåçûìÿííûé_ãðàäèåíò_64);}.cls-15{fill:url(#linear-gradient-7);}.cls-16{fill:url(#Áåçûìÿííûé_ãðàäèåíò_53);}.cls-17{fill:url(#radial-gradient);}.cls-18{fill:url(#radial-gradient-2);}.cls-19{fill:url(#New_Gradient_Swatch_1);}.cls-20{fill:url(#New_Gradient_Swatch_3);}.cls-21{fill:url(#linear-gradient-8);}.cls-22{opacity:0.5;fill:url(#linear-gradient-9);}.cls-22,.cls-23{mix-blend-mode:multiply;}.cls-23{opacity:0.64;fill:url(#Áåçûìÿííûé_ãðàäèåíò_75);}.cls-24{fill:url(#New_Gradient_Swatch_2);}.cls-25{fill:url(#Áåçûìÿííûé_ãðàäèåíò_64-2);}.cls-26{fill:url(#Áåçûìÿííûé_ãðàäèåíò_18-2);}.cls-27{fill:url(#Áåçûìÿííûé_ãðàäèåíò_18-3);}.cls-28{fill:url(#linear-gradient-10);}.cls-29{fill:url(#linear-gradient-11);}.cls-30{fill:url(#linear-gradient-12);}.cls-31{opacity:0.3;mix-blend-mode:screen;fill:url(#Áåçûìÿííûé_ãðàäèåíò_3);}.cls-32{fill:url(#linear-gradient-13);}.cls-33{fill:url(#linear-gradient-14);}.cls-34{mix-blend-mode:lighten;}.cls-35{fill:#f7d200;}.cls-36{fill:url(#linear-gradient-15);}.cls-37{fill:url(#linear-gradient-16);}</style><linearGradient id="linear-gradient" x1="500" y1="352.7" x2="500" gradientUnits="userSpaceOnUse"><stop offset="0" stop-color="#d47d00"/><stop offset="0.31" stop-color="#965032"/><stop offset="0.63" stop-color="#5b2562"/><stop offset="0.87" stop-color="#360a80"/><stop offset="1" stop-color="#28008b"/></linearGradient><linearGradient id="linear-gradient-2" x1="500" y1="450" x2="500" y2="352.7" gradientUnits="userSpaceOnUse"><stop offset="0"/><stop offset="0.2" stop-color="#010104"/><stop offset="0.39" stop-color="#05040f"/><stop offset="0.57" stop-color="#0b0921"/><stop offset="0.74" stop-color="#130f3c"/><stop offset="0.91" stop-color="#1e185d"/><stop offset="1" stop-color="#251d72"/></linearGradient><linearGradient id="linear-gradient-3" x1="242.57" y1="123.14" x2="242.63" y2="101.66" gradientTransform="matrix(1, 0.07, -0.07, 1, 379.38, 124.96)" gradientUnits="userSpaceOnUse"><stop offset="0.02" stop-color="#00006f"/><stop offset="0.99" stop-color="#8b1625"/></linearGradient><linearGradient id="Áåçûìÿííûé_ãðàäèåíò_245" x1="294.46" y1="200.7" x2="320.7" y2="200.7" gradientTransform="matrix(1, 0.07, -0.07, 1, 379.38, 124.96)" gradientUnits="userSpaceOnUse"><stop offset="0.02" stop-color="#ba104c"/><stop offset="0.99" stop-color="#f7382f"/></linearGradient><radialGradient id="Áåçûìÿííûé_ãðàäèåíò_5" cx="210.24" cy="168" r="7.6" gradientTransform="matrix(1.61, 0.12, -0.12, 1.67, 356.56, 51.61)" gradientUnits="userSpaceOnUse"><stop offset="0.02" stop-color="#80718d"/><stop offset="0.99" stop-color="#5b3d5c"/></radialGradient><linearGradient id="Áåçûìÿííûé_ãðàäèåíò_101" x1="325.19" y1="213.66" x2="332.06" y2="213.66" gradientTransform="matrix(1.28, 0.09, -0.08, 1.14, 288.92, 86.74)" gradientUnits="userSpaceOnUse"><stop offset="0" stop-color="#ffae84"/><stop offset="1" stop-color="#ffeab8"/></linearGradient><radialGradient id="Áåçûìÿííûé_ãðàäèåíò_5-2" cx="149.76" cy="167.73" r="7.7" xlink:href="#Áåçûìÿííûé_ãðàäèåíò_5"/><linearGradient id="Áåçûìÿííûé_ãðàäèåíò_18" x1="166.23" y1="151.53" x2="172.8" y2="151.53" gradientTransform="matrix(1, 0.07, -0.07, 1, 379.38, 124.96)" gradientUnits="userSpaceOnUse"><stop offset="0.02" stop-color="#ff5240"/><stop offset="0.99" stop-color="#f7382f"/></linearGradient><linearGradient id="linear-gradient-4" x1="159.23" y1="185.25" x2="246.42" y2="185.25" gradientTransform="matrix(1, 0.07, -0.07, 1, 379.38, 124.96)" gradientUnits="userSpaceOnUse"><stop offset="0" stop-color="#f7382f"/><stop offset="0.04" stop-color="#e53432"/><stop offset="0.19" stop-color="#aa263d"/><stop offset="0.34" stop-color="#781b46"/><stop offset="0.48" stop-color="#4f114d"/><stop offset="0.63" stop-color="#2e0a53"/><stop offset="0.76" stop-color="#180457"/><stop offset="0.89" stop-color="#0a0159"/><stop offset="1" stop-color="#05005a"/></linearGradient><linearGradient id="linear-gradient-5" x1="375.51" y1="112.73" x2="407.78" y2="56.83" gradientTransform="matrix(1, 0.07, -0.07, 1, 379.38, 124.96)" gradientUnits="userSpaceOnUse"><stop offset="0.02" stop-color="#3a77ff"/><stop offset="0.99" stop-color="#1f004a"/></linearGradient><linearGradient id="linear-gradient-6" x1="745.55" y1="251.52" x2="799.91" y2="251.52" gradientUnits="userSpaceOnUse"><stop offset="0.02" stop-color="#07007f"/><stop offset="0.99" stop-color="#bd7aff"/></linearGradient><linearGradient id="Áåçûìÿííûé_ãðàäèåíò_64" x1="469.12" y1="91.39" x2="497.12" y2="91.39" gradientTransform="matrix(1, 0.07, -0.07, 1, 379.38, 124.96)" gradientUnits="userSpaceOnUse"><stop offset="0.01" stop-color="#c81613"/><stop offset="0.98" stop-color="#95104c"/></linearGradient><linearGradient id="linear-gradient-7" x1="297.18" y1="184.11" x2="297.41" y2="100.63" gradientTransform="matrix(1, 0.07, -0.07, 1, 379.38, 124.96)" gradientUnits="userSpaceOnUse"><stop offset="0.02" stop-color="#1d0094"/><stop offset="0.99" stop-color="#c883e9"/></linearGradient><linearGradient id="Áåçûìÿííûé_ãðàäèåíò_53" x1="184.09" y1="176.67" x2="184.25" y2="118.96" gradientTransform="matrix(1, 0.07, -0.07, 1, 379.38, 124.96)" gradientUnits="userSpaceOnUse"><stop offset="0.01" stop-color="#f7382f"/><stop offset="0.98" stop-color="#ff5240"/></linearGradient><radialGradient id="radial-gradient" cx="130" cy="131.24" r="12.59" gradientTransform="matrix(1.61, 0.12, -0.12, 1.67, 356.56, 51.61)" gradientUnits="userSpaceOnUse"><stop offset="0.02" stop-color="#380501"/><stop offset="0.09" stop-color="#350601"/><stop offset="0.55" stop-color="#290d00"/><stop offset="0.99" stop-color="#250f00"/></radialGradient><radialGradient id="radial-gradient-2" cx="162.14" cy="105.88" r="14.29" gradientTransform="matrix(1.61, 0.12, -0.12, 1.67, 356.56, 51.61)" gradientUnits="userSpaceOnUse"><stop offset="0.02" stop-color="#d86800"/><stop offset="0.99" stop-color="#7f000a"/></radialGradient><radialGradient id="New_Gradient_Swatch_1" cx="185.01" cy="108.27" r="4.75" xlink:href="#radial-gradient-2"/><linearGradient id="New_Gradient_Swatch_3" x1="303.34" y1="94.65" x2="452.67" y2="94.65" gradientTransform="matrix(1, 0.07, -0.07, 1, 379.38, 124.96)" gradientUnits="userSpaceOnUse"><stop offset="0.02" stop-color="#4a45ff"/><stop offset="0.99" stop-color="#f7382f"/></linearGradient><linearGradient id="linear-gradient-8" x1="395.27" y1="113.37" x2="395.33" y2="91.78" gradientTransform="matrix(1, 0.07, -0.07, 1, 379.38, 124.96)" gradientUnits="userSpaceOnUse"><stop offset="0.02" stop-color="#00078a"/><stop offset="0.99" stop-color="#8b1625"/></linearGradient><linearGradient id="linear-gradient-9" x1="184.53" y1="174.71" x2="405.84" y2="174.71" gradientTransform="matrix(1, 0.07, -0.07, 1, 379.38, 124.96)" gradientUnits="userSpaceOnUse"><stop offset="0" stop-color="#2aa6ff"/><stop offset="1" stop-color="#1c00aa"/></linearGradient><linearGradient id="Áåçûìÿííûé_ãðàäèåíò_75" x1="348.74" y1="167.05" x2="348.74" y2="106.75" gradientTransform="matrix(1, 0.07, -0.07, 1, 379.38, 124.96)" gradientUnits="userSpaceOnUse"><stop offset="0" stop-color="#fff"/><stop offset="1" stop-color="#890050"/></linearGradient><linearGradient id="New_Gradient_Swatch_2" x1="307.11" y1="184.04" x2="417.21" y2="184.04" gradientTransform="matrix(1, 0.07, -0.07, 1, 379.38, 124.96)" gradientUnits="userSpaceOnUse"><stop offset="0.02" stop-color="#05005a"/><stop offset="0.99" stop-color="#f7382f"/></linearGradient><linearGradient id="Áåçûìÿííûé_ãðàäèåíò_64-2" x1="430.08" y1="181.74" x2="460.55" y2="181.74" xlink:href="#Áåçûìÿííûé_ãðàäèåíò_64"/><linearGradient id="Áåçûìÿííûé_ãðàäèåíò_18-2" x1="422.82" y1="137.38" x2="435.7" y2="137.38" xlink:href="#Áåçûìÿííûé_ãðàäèåíò_18"/><linearGradient id="Áåçûìÿííûé_ãðàäèåíò_18-3" x1="319.22" y1="139.34" x2="425.18" y2="139.34" xlink:href="#Áåçûìÿííûé_ãðàäèåíò_18"/><linearGradient id="linear-gradient-10" x1="389.97" y1="113.01" x2="431.38" y2="113.01" gradientTransform="matrix(1, 0.07, -0.07, 1, 379.38, 124.96)" gradientUnits="userSpaceOnUse"><stop offset="0.02" stop-color="#03002a"/><stop offset="0.99" stop-color="#8b1625"/></linearGradient><linearGradient id="linear-gradient-11" x1="428.84" y1="118.67" x2="436.23" y2="118.67" gradientTransform="matrix(1, 0.07, -0.07, 1, 379.38, 124.96)" gradientUnits="userSpaceOnUse"><stop offset="0.02" stop-color="#01003f"/><stop offset="0.99" stop-color="#8b1625"/></linearGradient><linearGradient id="linear-gradient-12" x1="232.26" y1="199.84" x2="258.81" y2="199.84" gradientTransform="matrix(1, 0.07, -0.07, 1, 379.38, 124.96)" gradientUnits="userSpaceOnUse"><stop offset="0.02" stop-color="#81103b"/><stop offset="0.99" stop-color="#f90046"/></linearGradient><linearGradient id="Áåçûìÿííûé_ãðàäèåíò_3" x1="196.99" y1="120.19" x2="340.24" y2="120.19" gradientTransform="matrix(1, 0.07, -0.07, 1, 379.38, 124.96)" gradientUnits="userSpaceOnUse"><stop offset="0" stop-color="#fccc61"/><stop offset="1" stop-color="#a13b4f"/></linearGradient><linearGradient id="linear-gradient-13" x1="281.45" y1="169.16" x2="281.45" y2="135.82" gradientTransform="translate(392.54 99.08) rotate(9.7)" gradientUnits="userSpaceOnUse"><stop offset="0" stop-color="#de5600"/><stop offset="1" stop-color="#ffff64"/></linearGradient><linearGradient id="linear-gradient-14" x1="301.86" y1="169.9" x2="301.86" y2="134.17" gradientTransform="translate(392.54 99.08) rotate(9.7)" gradientUnits="userSpaceOnUse"><stop offset="0" stop-color="#e97d00"/><stop offset="1" stop-color="#ffff64"/></linearGradient><linearGradient id="linear-gradient-15" x1="522.02" y1="319.72" x2="568.74" y2="319.72" gradientTransform="matrix(1, 0, 0, 1, 0, 0)" xlink:href="#linear-gradient-4"/><linearGradient id="linear-gradient-16" x1="502.43" y1="244.8" x2="580.38" y2="250.4" gradientUnits="userSpaceOnUse"><stop offset="0" stop-color="#f7382f"/><stop offset="0.03" stop-color="#f13836"/><stop offset="0.29" stop-color="#b63d7d"/><stop offset="0.53" stop-color="#8840b5"/><stop offset="0.74" stop-color="#6643dd"/><stop offset="0.9" stop-color="#5244f6"/><stop offset="1" stop-color="#4a45ff"/></linearGradient></defs><g class="cls-1"><g id="layer1"><path class="cls-2" d="M1000,0V352.7H0V63.9C0,45.38,0,43.72,0,24V0"/><rect class="cls-3" y="352.7" width="1000" height="97.3"/><path class="cls-4" d="M495.89,253.53s11,5.39,38.63,7.44S730,265.33,730,265.33l-93.12-22Z"/><polygon class="cls-5" points="659.49 335.18 678.38 359.83 684.39 354.87 672.63 335.04 659.49 335.18"/><path class="cls-6" d="M691.91,373.62a19.86,19.86,0,0,1-17.1-2.94s-5.56-12.79,3.71-22.42c0,0,11.76-3.56,18,3.82C696.52,352.08,697.64,369.33,691.91,373.62Z"/><path class="cls-7" d="M699,360.9c-.47,6.72-5.46,14.14-10,13.81s-8.31-6.72-7.84-13.44,4.79-13.43,9.31-13.09S699.47,354.18,699,360.9Z"/><path class="cls-8" d="M695.44,361.23c-.23,3.22-2.37,5.68-4.79,5.5s-4.21-2.93-4-6.15,2.37-5.69,4.79-5.51S695.66,358,695.44,361.23Z"/><path class="cls-9" d="M594.75,366.09a19.86,19.86,0,0,1-17.1-2.94s-6.16-12.46,3.1-22.09c0,0,11.16-4.88,18.6,3.49C599.35,344.55,600.48,361.8,594.75,366.09Z"/><path class="cls-7" d="M601.85,354.38c-.46,6.72-4.51,11.9-9,11.56s-7.8-6.05-7.33-12.77,4.5-11.9,9-11.56S602.32,347.66,601.85,354.38Z"/><polygon class="cls-10" points="537.41 319.81 536.06 256.93 538.93 256.73 539.26 319.95 537.41 319.81"/><polygon class="cls-11" points="620.02 331.12 518.1 324.66 518.5 318.87 620.52 323.98 620.02 331.12"/><polygon class="cls-12" points="783.96 204.66 781.43 204.47 739.77 266.06 747.13 269.64 783.96 204.66"/><path class="cls-13" d="M776.61,298.39s21.33-32.21,23.3-60.58L784,204.66s-26,44.11-38.41,64.86Z"/><path class="cls-14" d="M839.26,240.74s19.26,2.15,31.48,13c0,0,1.53,4.74-2.35,6.8l-29.64-12.5Z"/><path class="cls-15" d="M554.45,258.3l20.15-4.53,21.95-19.32s76.51-4.4,157.34,38.68c80.16,42.73-50.28,92.8-203.34,41.52C550.55,314.65,562,283.86,554.45,258.3Z"/><path class="cls-16" d="M554.45,258.3s-20.22,3.43-21.83,26.7c-1.42,20.36,17.93,29.65,17.93,29.65s20.2-5.4,21.68-26.71C573.84,264.68,554.45,258.3,554.45,258.3Z"/><path class="cls-17" d="M552.74,262.33s-17.25,2.93-18.63,22.78c-1.21,17.37,15.3,25.3,15.3,25.3s17.23-4.61,18.49-22.79C569.28,267.77,552.74,262.33,552.74,262.33Z"/><path class="cls-18" d="M574.6,253.77s31-1.13,61,8l1.27-18.4s-20-9.58-43-6.51Z"/><path class="cls-19" d="M637.28,262.32l1.26-18.23,6.8,2.84.87,18.19S642,263.61,637.28,262.32Z"/><polygon class="cls-20" points="663.86 240.97 663.95 252.41 838.75 248.06 839.26 240.74 663.86 240.97"/><path class="cls-21" d="M868.39,260.56s4.46-6.29-29.64-12.5L664,252.41l70.73,13.27Z"/><path class="cls-22" d="M566.41,303.75s75.49,18.35,135.3,21.49,71-12,71-12-33,29.47-115.62,21.9-106.36-20.41-106.36-20.41S563,308.75,566.41,303.75Z"/><path class="cls-23" d="M664,252.41s42.14,22.25,69,65.41l38.39-4s-12-27.29-36.67-48.1Z"/><polygon class="cls-24" points="663.76 336.37 667.67 327.49 793.33 332.71 792.76 340.92 663.76 336.37"/><polygon class="cls-25" points="793.33 332.71 828.7 338.27 828.34 343.56 792.76 340.92 793.33 332.71"/><polygon class="cls-26" points="808.24 252.99 799.19 295.81 791.42 332.57 787.4 332.47 796.56 294.82 806.62 253.48 808.24 252.99"/><polygon class="cls-27" points="806.62 253.48 759.61 281.01 679.43 327.97 676.83 327.87 756.1 279.7 798.53 253.91 806.62 253.48"/><polygon class="cls-28" points="798.53 253.91 806.62 253.48 759.61 281.01 756.1 279.7 798.53 253.91"/><polygon class="cls-29" points="808.24 252.99 799.19 295.81 796.56 294.82 806.62 253.48 808.24 252.99"/><path class="cls-30" d="M613.38,327.77l-16.87,20.34s-2.1,5.75,2.47,7.3l25.14-25.35Z"/><path class="cls-31" d="M566.64,267.43l62-6.2,17.55,3.89-.87-18.19,2.16-.41,1.17,20.13s34.73,5.81,48.65,9.73l11.5,10.92s-85.93-9-137.5-10.23Z"/><path class="cls-32" d="M627.48,310.8s12.27-7.37,23.12-28.92l10.48.89s-4.15,16.65-24.48,29.64Z"/><path class="cls-33" d="M647.06,315s15.84-9.37,23.7-31.32l11.12,1s-7.71,19.83-26.25,31.13Z"/><g class="cls-34"><polygon class="cls-35" points="698.71 365 698.71 365 698.71 365 698.71 365 698.71 365"/></g><polygon class="cls-36" points="518.5 318.87 559.59 317.87 573.24 321.57 518.5 318.87"/><polygon class="cls-37" points="588.53 241.79 498.32 246.92 495.89 253.53 582.08 247.31 588.53 241.79"/></g></g></svg>