<svg xmlns="http://www.w3.org/2000/svg" xmlns:xlink="http://www.w3.org/1999/xlink" viewBox="0 0 720 474.3"><defs><style>.cls-1{fill:#d9dfbb;}.cls-2,.cls-27{fill:#f0f3d7;}.cls-3{stroke:#1d1d1b;stroke-miterlimit:10;fill:url(#linear-gradient);}.cls-4{fill:url(#New_Gradient_Swatch_1);}.cls-5{fill:url(#New_Gradient_Swatch_1-2);}.cls-6{fill:#df0c21;}.cls-7{fill:#b11925;}.cls-8{fill:#0262aa;}.cls-9{fill:#b41722;}.cls-10{fill:#bf9b75;}.cls-11{fill:#88bde0;}.cls-12{fill:#1f0e14;}.cls-13{fill:#05508e;}.cls-14{fill:#ebc566;}.cls-15{fill:#e8e8e9;}.cls-16{fill:#d9cfd1;}.cls-17{fill:#a3233c;}.cls-18{fill:#fbfdfd;}.cls-19{fill:url(#linear-gradient-2);}.cls-20{fill:url(#linear-gradient-3);}.cls-21{fill:url(#linear-gradient-4);}.cls-22{fill:#f8f3e4;}.cls-23{opacity:0.8;}.cls-24,.cls-25,.cls-26,.cls-27,.cls-28,.cls-29{opacity:0.5;}.cls-24{fill:url(#New_Gradient_Swatch_1-3);}.cls-25{fill:#d9dfcb;}.cls-26,.cls-30{fill:#33311f;}.cls-28{fill:url(#linear-gradient-5);}.cls-29{fill:url(#linear-gradient-6);}.cls-30{opacity:0.1;}.cls-31{opacity:0.75;fill:url(#linear-gradient-7);}.cls-32{opacity:0.98;fill:url(#New_Gradient_Swatch_1-4);}</style><linearGradient id="linear-gradient" x1="360.15" y1="474.3" x2="360.15" y2="-1.06" gradientUnits="userSpaceOnUse"><stop offset="0" stop-color="#28008f"/><stop offset="0.06" stop-color="#240085"/><stop offset="0.33" stop-color="#140062"/><stop offset="0.59" stop-color="#090148"/><stop offset="0.82" stop-color="#020138"/><stop offset="1" stop-color="#000133"/></linearGradient><linearGradient id="New_Gradient_Swatch_1" x1="688.95" y1="151.15" x2="688.95" y2="160.98" gradientUnits="userSpaceOnUse"><stop offset="0" stop-color="#28008f"/><stop offset="1" stop-color="#d1d1d1"/></linearGradient><linearGradient id="New_Gradient_Swatch_1-2" x1="650.12" y1="121.15" x2="650.12" y2="161.32" xlink:href="#New_Gradient_Swatch_1"/><linearGradient id="linear-gradient-2" x1="39.22" y1="74.19" x2="39.22" y2="84.02" gradientUnits="userSpaceOnUse"><stop offset="0" stop-color="#28008f"/><stop offset="0.37" stop-color="#634aa6"/><stop offset="1" stop-color="#d1d1d1"/></linearGradient><linearGradient id="linear-gradient-3" x1="86.44" y1="47.17" x2="86.44" y2="87.34" xlink:href="#New_Gradient_Swatch_1"/><linearGradient id="linear-gradient-4" x1="146.45" y1="79.74" x2="146.45" y2="85.53" xlink:href="#New_Gradient_Swatch_1"/><linearGradient id="New_Gradient_Swatch_1-3" x1="129.87" y1="324.31" x2="129.87" y2="336.6" xlink:href="#New_Gradient_Swatch_1"/><linearGradient id="linear-gradient-5" x1="350.49" y1="104.13" x2="350.49" y2="124.54" xlink:href="#New_Gradient_Swatch_1"/><linearGradient id="linear-gradient-6" x1="350.81" y1="118.42" x2="350.81" y2="129.16" xlink:href="#New_Gradient_Swatch_1"/><linearGradient id="linear-gradient-7" x1="688.64" y1="461.91" x2="688.64" y2="444.03" gradientUnits="userSpaceOnUse"><stop offset="0" stop-color="#28008f"/><stop offset="0.12" stop-color="#351194"/><stop offset="0.35" stop-color="#583ca2"/><stop offset="0.67" stop-color="#9182b8"/><stop offset="1" stop-color="#d1d1d1"/></linearGradient><linearGradient id="New_Gradient_Swatch_1-4" x1="649.66" y1="463.21" x2="649.66" y2="423.04" xlink:href="#New_Gradient_Swatch_1"/></defs><g id="Layer_5" data-name="Layer 5"><path class="cls-1" d="M384.28,371.47c7.28-2.46,14.51-5.84,22-7.19,14.27-2.15,28.53-5.33,42.24,1.54,0,2.88-.05,5-.05,5"/><path class="cls-2" d="M406.24,364.28c-7.45,1.35-14.68,4.73-22,7.19l-32.59.33c-8.59-2.29-17.19-5.3-25.78-5.3A46.91,46.91,0,0,0,306.47,371c5-3.77,19.78-14.33,29.12-15.65,10.43-1.48,13,1.08,13.83,2.94s14.43-14.76,28.16-16.23c13.54-1.46,19.74,3.69,23.95,10s5.41-21.6,27.66-20.3c18.94,1.11,19.44,17,19.44,18.09,0,.75-.09,10.06-.15,16.05"/><path class="cls-1" d="M306.47,371a46.91,46.91,0,0,1,19.44-4.46c8.59,0,17.19,3,28.3,4.72l-47,.48S305.37,371.78,306.47,371Z"/></g><g id="Layer_2" data-name="Layer 2"><polygon class="cls-3" points="720.38 474 -0.66 474.3 -0.66 -0.51 720.95 -1.06 720.38 474"/><g id="Layer_6" data-name="Layer 6"><path class="cls-4" d="M656.85,161c7.28-2.45,14.51-5.84,22-7.18,14.27-2.15,28.53-5.34,42.24,1.53,0,2.88,0,5,0,5"/><path class="cls-5" d="M678.81,153.8c-7.45,1.34-14.68,4.73-22,7.18l-32.59.34C615.67,159,607.08,156,598.48,156A47.06,47.06,0,0,0,579,160.47c5-3.77,19.78-14.33,29.12-15.65,10.43-1.48,13,1.09,13.83,3s14.43-14.76,28.16-16.24c13.54-1.46,19.74,3.69,24,10s5.41-21.61,27.66-20.31c18.94,1.11,19.44,17,19.44,18.09,0,.75-.09,10.07-.15,16.05"/><path class="cls-1" d="M579,160.47A47.06,47.06,0,0,1,598.48,156c8.6,0,17.19,3,28.3,4.72l-47,.49S577.94,161.3,579,160.47Z"/></g><g id="DRAPEAUX"><path class="cls-6" d="M324.59,342.23c-1.56,2.18-1.81,4.8-4.77,6.51-4.36,4.92-8.36,10-13.22,14.69-3.09,3-2,3.58,2.56,3.49l2.8-1,1.47-.48.07,0c1.86-2.45,5.77-3.14,8.73-4.65l1.81-.49.26.09a33.18,33.18,0,0,0,4.84-4.86c5.86-8.49,11.11-17.1,13.52-26.93a14,14,0,0,1,3.84,3.56c4.71,5.95,4.68,12.34,4.45,18.81-.17,4.65.07,4.69,7.16,4.68,9.15,0,18.3,0,27.45,0,1.72,0,3.75-.49,5,.85l-.06,0c7.17,0,14.35-.18,21.52,0,4.68.11,5.28-.93,4.66-4-1.28-6.25-1.92-12.5,4.36-18.18a37.49,37.49,0,0,0,6.73-8.51c1.84-3-2.37-5.14-1.47-7.85l-1.4-2.7a10.84,10.84,0,0,1-4.47-.28l-5.51-.06a7.4,7.4,0,0,1-4.42.07h-2.2l-3.38.24c-.94-.39-1.55-.78-2.27-.46-.46-.15,0-.23-.88-.2s0,.06-.61.09c-1.08-.33-2-.09-3.58-.05-.5,1.9-3,2.28-4.64,2.72-4.28,1.14-4.85.36-4.53,2.61a10.9,10.9,0,0,1-2.24,8.23c-4.67,6.37-2.64,11.65,5.61,16a38.52,38.52,0,0,1,4.67,3.15c.71.5,1.94,1,1.22,1.85s-2.08.67-3,.46c-5.62-1.31-11.95-1.52-16.59-4.38-11-6.81-12.24-13-4.55-21.66,1.92-2.15,3-4.94-1.38-6.75a2.78,2.78,0,0,0-1.48.46c-.37.74-1.22.89-2.23.86a2.92,2.92,0,0,1-3.23,1.27l-1.91.47a15.88,15.88,0,0,1-9.11,2.58l-10,.29c0,.22-.42.14-.5.35-4.72,1.28-1,.33-3.57,1.36l-4.7,1.28-.56.75c-1.05,1.15-.57.62-1.52,1.69s-1.94,2.36-2.9,3.55c.38,2.07-2.26,3.39-2.85,5.22"/><path class="cls-6" d="M545.35,215.09c2.6-1,10.55-1.65,13.14-2.64-3.31-1.5-10-4.39-12.58-6.32-3.76-2.85-4.68-6.1-4.13-9.89.72-4.87,3.33-9.35,5.15-14,1-2.66,1.66-5.59-.13-8-1.5-2-5.08.47-7.6-.41h-.47a13.11,13.11,0,0,1-2.19.14c-5.12-1.06-10.3.05-15.51-.2-9.44-.44-19,.09-28.47.05-3.67,0-6.18.93-7.94,3l-1.2.84c-.33.25-1.69.39-2,.64s.35.63,0,.89l-1.15.8-1.19.67,0,0c-1.92,4.88-1.34,9.95-2.94,14.94-2,6.13-6.23,11.23-10.73,16.41-4.21,4.84-12,7.27-17,11.58-3.23,2.8-7.72,5.43-5.38,9.71,4.2-.5,7-3.55,11.77-3l4.4-.21c1-.08,1.8-.54,2.7-.6-.49-3.11.66-5.84,3.17-8.48,4.17-4.35,10-7.85,13.45-12.58,1.68-2.3,1.41-4.86,3.12-7.07a3.23,3.23,0,0,1,2.78-1.6c1.75.13,1.31,1.64,1,2.36-1.78,3.65-1.62,7-1.62,9.91l4.51.51c3.23.13,4.65.84,7.42.13a8.7,8.7,0,0,0,.91-3c-.39-5.15,1.9-9.58,6.84-13.55,2.59-2.09,2.78-4.75,1.54-7.43a27.62,27.62,0,0,1-1.53-4.69,1.23,1.23,0,0,1,1-1.59,2.93,2.93,0,0,1,2.48.41c3.56,2,5.09,7.67,2.95,10.68-1.81,2.56-1.73,5.06-.81,7.85,1.43,4.35,2.19,8.82-1.43,13,1.71,1.17,3.78.72,5.7.36,1.59-.29,3.17-.71,4.45.42"/><path class="cls-6" d="M536.54,214.75l2,.09"/><path class="cls-6" d="M627,277.93l-3.32.25c-7,1.09-2.88-.59-6.61.42-1.1.08-3.32,1-4.43,1.08a75.44,75.44,0,0,0-12.27.26c-2.46-.89-5.11-.5-7.7-.5-1.51,1.2-3.59.5-5.39.73.2,3.78-.34,7.42-3.83,10.62-.66.62-.59,1.66-.64,2.51-.3,4.59,1.77,9.08,1.13,13.7-.21,1.54,1.54,2.6,3.23,3.25,5.09,2,5.69,5.41,6.73,8.75l5,.17a.49.49,0,0,0,.5.09c2.19-1.14,4.4-2.3,2.8-4.5-3.51-4.83-4.63-10.05-5.77-15.3-.57-2.63,0-4.15,4.39-2.85,3.67,1.08,5.06-.05,5.66-2.25a13.81,13.81,0,0,0,.56-2.56c.18-2.15,1.38-1.88,3.36-.82,5.54,3,6.7,7.25,7.65,11.57.49,2.25,1.2,4.57,4.81,5.15a22.59,22.59,0,0,1,7.92,3.11,22.49,22.49,0,0,0,7.41,3,35.06,35.06,0,0,1,11.18,3.45c4.67,2.59,9.93.13,14.77-.15,2.87-.17,1.25-3.22,1.42-4.95.55-5.93-.83-11.9.76-17.81l-.14-5.26c-2.22-.47-1.64-1.74-1.67-2.78a41.15,41.15,0,0,1,0-7.77c.6-3.65-.79-6.08-6.65-6.61l-2.22.17c-12.06,2.28-10.16,1.14-13.58,2.4-5.07,1.85-3.31,0-8.3,1.79M648,302.58c2.88.08,4.66,1.12,4.65,3s-1.72,3.34-4.72,3.41c-2.54.06-4.11-1.12-4.21-2.79C643.6,304.24,644.94,302.86,648,302.58Z"/><path class="cls-7" d="M509.89,346.85a17.31,17.31,0,0,0,12.84-6.9c1.07-1.34.72-1.28,4.38-4.05.88-.93.25-.21,1.26-1.31,2.27-2,5.37-3.43,8.27-5-2.49,0-3.66-.57-5.07-2.37-5.88-7.53-7-16.19-12.89-23.67-.91-1.16-1.74-2.33-3.78-2.33-2.42,0-2.71,1.33-2.8,2.65-.08,1-.35,2.19-2.26,2.09-2.22-.11-1.83-1.51-2.17-2.57-.88-2.76,2.23-4.93,2.22-7.53l-2.07.23c-2.25,4.44-8.86,4.66-13.84,6.3a19.72,19.72,0,0,1-16.32-1.75,32.06,32.06,0,0,0-3.67-1.54c-1.42,4.07-1.75,8.26-3.47,12.33-2.63,6.26-4.17,12.57-.53,19.15,2.85,5.13,7.61,8.79,14.16,11.65,1.75.76,4.2,1,4.37,2.88,1,1.56,3.11,1.42,5.06,1.55l11.94.84,2.66-.28Z"/><path class="cls-8" d="M663.21,187.55c-1.14-.15-5.4.53-6.54.38l-3.22.25c-3.77,1.56-8.24,1.65-12.27,2.65l-3.2.31-2.17,1.06c.67,10.12-.87,20.22-.16,30.36.62,8.86-.25,17.76.28,26.63.31,5.14.36,10.38,2.36,15.42.51,1.31.68,3.18,4,2.73l1.33-.65a1.26,1.26,0,0,0,.91-.21c.15-.47,0,3.15.84,3.15s1.37-3.62,1.52-3.15a1.29,1.29,0,0,0,.88.21l1.39.63c.36.25-6.57,6-6.21,6.29,2.32.82,9.29-2.91,10.46-1.66l2.26.17,2.23-.17c1.18-2,6.64,0,6.52-3.19-.25-6.78,0-3.28-.21-9.56m-19.6-63.82c.45-1.88,2.07-3.1,5.09-3,2.48.11,4.18,1.21,4,2.91s-1.48,3.29-4.82,3.19C646,198.43,644.66,197.39,644.62,195.38Zm-2.25,39c.09-2.3,2.3-3.28,5-3.52,2.9-.26,4.52,1.19,4.65,2.94.15,2.2-2,3.52-5.1,3.59C644,237.42,642.74,236,642.37,234.34Z"/><path class="cls-9" d="M642.24,144.64c-14.65.47-26.56,5.63-38.66,10.43-.69.27-1,1-1.42,1.54,3.85-1.58,5-.68,5,2.17,0,6.11-2.34,12-3.35,18a3.9,3.9,0,0,1-1.22,2c-3.2,3-2.76,5.85-.29,9,2.25,2.85,4.35,5.85.84,9.09-.64.59-.11,4.26-.21,5.12,3.51.28,5.51-2.57,8.56-4.88h0c4.17,0,6.08-1.15,8.85-3.71,0-.5,0-1,0-1.49.25-2.59-1-5.89,6-4.84a2.47,2.47,0,0,0,2.84-2.66,41.39,41.39,0,0,1,.06-8.18c.65-4,1.11-8,5.74-11.26,6.12-4.27,7.21-9.5,4.54-15.07C638.41,147.57,639.27,145.91,642.24,144.64Z"/><path class="cls-6" d="M642.24,144.64c-3,1.27-3.83,2.93-2.71,5.26,2.67,5.57,1.58,10.8-4.54,15.07-4.63,3.23-5.09,7.26-5.74,11.26a41.39,41.39,0,0,0-.06,8.18,2.47,2.47,0,0,1-2.84,2.66c-7-1-5.77,2.25-6,4.84,0,.49-2.25,2.85-2.25,3.35,1.57.05,5.38-1.76,7-1.7a1.2,1.2,0,0,0,.73-.31c5.17.15,10.5-.41,12.21-2.11l3.2-.31c10.31-1.12,6.89-.36,12.27-2.65l3.22-.25a10.58,10.58,0,0,0,6.54-.38c0-7.36-1.19-16.55-1.18-23.92.15-8.72.44-4.13.43-5.4-.06-5.95.64-13.63.75-19.57,0-1.83-3.52.73-6.67,1.38l-4.31,1.23c-2,.8-3.81,2.1-6.53,1.43l-1.17,1c-.28.88-1.19,1-2.32,1Zm2.48,15.5c-.07-2.44,1.64-3.59,4.62-3.68s4.38,1.32,4.42,3.08-2.16,3.08-4.5,3.21S644.56,162,644.72,160.14Z"/><path class="cls-6" d="M537.53,202.41c-.17,2.36,19.11,7.79,19.11,10.16,6.4-.7,9.26-3.17,11.37-3.41,3.53-.42,4.19-1.12,10.35-3.13l2.12-.15c4.2-.78,4.2-.78,8.9-1.35l2.13-.19c3.72-.49,8.73.44,11.38-2.34.1-.86-.43-4.53.21-5.12,3.51-3.24,1.41-6.24-.84-9.09-2.47-3.12-2.91-6,.29-9a3.9,3.9,0,0,0,1.22-2c1-6,3.3-11.91,3.35-18,0-2.85-1.11-3.75-5-2.17-.28-.1-.48,0-.59.16a2.72,2.72,0,0,1-2.23.75c-4.73,1-51.32,14.13-55.3,16-.55,11.86-.38,17.9-6.51,28.92"/><path class="cls-7" d="M666.34,294.37c-1.59,5.91-.21,11.88-.76,17.81-.17,1.73,1.45,4.78-1.42,4.95-4.84.28-10.1,2.74-14.77.15a35.06,35.06,0,0,0-11.18-3.45,22.49,22.49,0,0,1-7.41-3,22.59,22.59,0,0,0-7.92-3.11c-3.61-.58-4.32-2.9-4.81-5.15-1-4.32-2.11-8.59-7.65-11.57-2-1.06-3.18-1.33-3.36.82a13.81,13.81,0,0,1-.56,2.56c-.6,2.2-2,3.33-5.66,2.25-4.43-1.3-5,.22-4.39,2.85,1.14,5.25,2.26,10.47,5.77,15.3,1.6,2.2-.61,3.36-2.8,4.5,16.59-1,31.13,4.76,46.89,6.51h2.76a.8.8,0,0,1,.88-.11l.94-.47a14.76,14.76,0,0,1,7.53-.92,7.52,7.52,0,0,1,4.91-.56c4.17-.84,4.77-2.85,4.54-5.51C667.19,310.26,666.83,302.32,666.34,294.37Z"/><path class="cls-6" d="M369.91,205.48c0,.46-.51.77-.54,1.23a14.78,14.78,0,0,1-1,1.57l.06-.05c-.74,9.3,2.3,18.39,3.34,27.6.82,7.21.44,7.23,11.19,6.9.36,0,1.05.89,1.41.86,6.28.17,7.85.43,10.61-1.22s10.43-.09,13.31.65c2.46.64,2.51-6.19,4.7-7.71,2.56-1.79,14.1-7.93,15.64-9.81,7.23-8.89,5.39-3.14,10.89-10.84.74-1,1.94-8.36,2.58-9.36s17-16,15.46-17.38-59.9,7.2-61.59,6.9c-8.94,2-17.28,4.66-24.28,9"/><path class="cls-6" d="M415.9,243.27c9.78,1.74,17.82-4.3,27-10,7.33-4.51,20.88-15.7,24.91-21.79,3.81-5.76,15.39-26.79,14.47-33.06-.25-1.73-26.64,9.6-27.86,9.46l0,0-1.24.92-2,1.29c-.13.51-.55.82-1.32.89l.18-.11c-.21.82-1.11,1-2.12,1l.05,0a4.36,4.36,0,0,1-3.14,1.35c-3.64.2-4.33,1.77-4.57,3.83-.87,7.34-4.59,14.05-9.44,20.6a97.66,97.66,0,0,1-10.21,11.84c-1.38,1.34-2.51,2.81-5.54,1.19-2.52-1.35-3.74-.17-4.76,1.49-1.82,2.94-2.38,7.73-2.14,10.86C410.74,243.68,413.09,243.37,415.9,243.27Z"/><path class="cls-6" d="M352.06,235.28a23.6,23.6,0,0,1-13.68,2.48,3.23,3.23,0,0,0-2.74.9c1.64,1.3,1.93,2.94,2.51,4.5,4,5.69,5.65,14.4,10,20,2.77,2.51,7.24.82,10-.4l2.88-.36c4.13-.94,3-.94,2.78-2.5.12-1.73.23-3.45.35-5.18,0-3.73,0-.5,0-2.24,0-1.49,0-3,0-4.48-2-1.29-.91-2.39.3-3.6,2.68-2.65,1.4-13.27-1.83-15.75a3.2,3.2,0,0,0-1-.2C358,230.44,356.43,233.76,352.06,235.28Z"/><path class="cls-10" d="M663.41,136c.61-2.85,1.64-5.48.48-8.62s2.1-6.39,5.45-8.88c2.32-1.72,3.14-2.85.38-4.9-5.78-4.29-8.56-9.73-11.34-15.12-.84-1.62-1.76-3.22-2.65-4.82-.59,1.64.48,3.48-1.21,5-.63-2.36-2.52-4.74.51-7-.49-1.3-.64-2.69-2.4-3.88-2.67,2.38-3.29,5.22-4.19,7.9-2.39,7.22-5.53,14.16-13.44,19.63-1.4,1-1.82,1.64,0,3,5,3.56,10.08,7.19,8.07,12.92-.49,1.4,1.51,2.72,2.55,4l1.18-.23c1.62-2.13,1.14-5,5.53-6.19,1-.28.49-1.33-.89-2.22-1.22-.78-3.52.34-3.64-1.24-.23-3.17-4-5.34-5-8.35-.54-1.72-.54-3.25.93-4.61a12.65,12.65,0,0,0,3.32-5.84c1.45-4.41,3.06-8.78,4.6-13.17a1.64,1.64,0,0,1,.59,1.56c-.82,5.75.7,11.49.74,17.24,0,4.47,2.37,9.25,2.09,14-.12,2.06-.26,3.1,3.22,2.94.85,0,2-.1,2.26.69.29,1-.85,1.2-1.93,1.45-.89.2-2.37-.17-2.39,1.3,2,.72,6.54-.47,5.82,2.82Z"/><path class="cls-7" d="M390.53,356.51c9.34,1.25,18.85.63,28.26,1.14,2.32.13,4.67,0,7,.05a59.61,59.61,0,0,0,13.47-1.32,5.43,5.43,0,0,0,4.33-3.67c-2.63-2.45-6.14-3.56-10.27-4.86-2.93-.92-7.31-2.06-7-4.71.3-2.35,4.81-2.62,7.5-3.77-.41-.22-.92-.68-1.22-.63-5.08.92-4.66-.09-2.85-2.81,3.27-4.9,7.8-9.47,9.27-14.89-5,.42-8.28-2.44-12.72-3.08-.9,2.71,3.31,4.82,1.47,7.85a37.49,37.49,0,0,1-6.73,8.51c-6.28,5.68-5.64,11.93-4.36,18.18.62,3.05,0,4.09-4.66,4C404.88,356.33,397.7,356.49,390.53,356.51Z"/><path class="cls-11" d="M658.42,324.27c-2.7-.41-6.12.51-8.47,1.39.17.83,0,0,.38,1.91l.39,11.61c1,9.43-.26,111.88-.16,121.32,2.63,0,7,1.38,9.63,1.41-.14-1.48-1.59-97.28-1.6-98.76Q658.47,343.71,658.42,324.27Z"/><path class="cls-12" d="M433.85,339.37c-2.69,1.15-7.2,1.42-7.5,3.77-.33,2.65,4,3.79,7,4.71,4.13,1.3,7.64,2.41,10.27,4.86.47-1-.43-1.54.82-2.38l1.74-2.11,3.06-8.26.15-.78c-3.17-1.31-6.63-.53-10-.64a10.05,10.05,0,0,1-3.69.51C435,339.13,434.54,339.29,433.85,339.37Z"/><path class="cls-13" d="M658.42,324.27q.08,19.44.17,38.88c0,1.48,1.46,97.28,1.6,98.76,2.83,0,3.32-1.39,3.32-1.39-.14-13.79-.14-123-.17-136.81A7.55,7.55,0,0,0,658.42,324.27Z"/><path class="cls-7" d="M300.16,362.39l-4.36,5.22c4.44-.33,9.05.86,13.36-.69-4.58.09-5.65-.51-2.56-3.49,4.86-4.68,8.86-9.77,13.22-14.69-2.44-.32-5.3.62-7.28-1.1A66.83,66.83,0,0,1,300.16,362.39Z"/><path class="cls-7" d="M664.43,268.76c.12,3.2-5.34,1.19-6.52,3.19,5.86.53,7.25,3,6.65,6.61a41.15,41.15,0,0,0,0,7.77c0,1-.55,2.31,1.67,2.78-.48-9.21-.6-11.48-1.09-20.7C665,270.82,665.11,268.41,664.43,268.76Z"/><path class="cls-13" d="M646.84,135l-1.18.23c0,2.48,0,5,0,7.45,2.72.66,4.51-.64,6.53-1.44-1.8-1.57-1.58-3.17-.13-4.78C650.74,135.36,648.1,136.34,646.84,135Z"/><path class="cls-14" d="M655,91.7c-3,2.21-1.14,4.59-.51,7,1.69-1.54.62-3.38,1.21-5C655.5,93,655.26,92.34,655,91.7Z"/><path class="cls-13" d="M662.42,138.78c.26-.05.52-.09.79-.12.06-.9.13-1.79.19-2.69l-1.3-.61c-1.59.57-3.64.18-5.05,1.12,1.36.43.88,2.33,1.28,3C659.72,139.36,660.54,139,662.42,138.78Z"/><path class="cls-9" d="M599.34,157.52a2.72,2.72,0,0,0,2.23-.75"/><path class="cls-9" d="M642.21,144.68c1.13.09,2-.07,2.32-1Z"/><path class="cls-9" d="M449.94,191c.77-.07,1.19-.38,1.32-.89Z"/><path class="cls-9" d="M453.25,188.84l1.24-.92Z"/><path class="cls-9" d="M479,180.68l1.18-.67Z"/><path class="cls-9" d="M481.29,179.21l1-.77"/><path class="cls-9" d="M483.3,177.68l1.2-.84Z"/><path class="cls-15" d="M509.89,346.85l-1.71.38Z"/><path class="cls-16" d="M313.43,365.48,312,366Z"/><path class="cls-8" d="M364.18,254.9c-.12,1.73-.23,3.45-.35,5.18.09.52.18,1,.26,1.56,1.48.69,1.05,1.75,1.19,2.72.8,5.66-2.29,10.87-5.17,15.86a328.62,328.62,0,0,1-27.87,40.12,29.5,29.5,0,0,0-5.81,13.72l4.07-2.13q1.44-1.79,2.9-3.55l1.52-1.69.56-.75c3.07-.34,3.21-.81,8.77-3l10-.29c3.21-.23,5-.21,9.11-2.58l1.91-.47c2.74.34,2.32-.36,3.23-1.27,1,0,1.86-.12,2.23-.85.46-1.79,17-1.12,16.51-3.45-1.17-5.77,13.44-.46,13.42-6.13,0-8.33,10.55,3.91,17.07-2.81,2.94-3,.65-19.74,1.63-23.41,2-7.28-1.36-20.38,4.11-27,0-.41-1.64-10.67-19.19-12.55-1.08-.15-2.43-.41-3.51-.57h-3.6a8,8,0,0,0-2.21.78c-.37.1-.75.4-1.12.51-2.51.4-5,1-7.62.54l-2.17.24c-3,1.91-6.82,1.52-10.34,1.31-4.32-.26-7.8.13-9.49,3.21,0,1.49,0,3,0,4.48S364,252.85,364.18,254.9Z"/><path class="cls-8" d="M440.39,234.8a1.93,1.93,0,0,1-.57.44l-13.92,7.09-.88.43c-1.16.19-2,.63-3.31.27-.73.05-5.11.11-5.84.15-.72.3-5.73,0-6.44.31,0,7.1,7.79,15,7.7,22.13,0,2.59-.11,5.4-2.48,7.45-3.29,2.85-4.42,5.86-4.17,9.36.24,3.34,0,6.7,0,10.06a5,5,0,0,1-3.35-3.78c-2.26-7-1.17-14-1.07-21,0-1.64.41-3.44-3.22-4.68.13,6.65-2.76,12.37-6.06,18.17-3.05,5.36-5.25,11.2-3.78,17.07,1.36,5.41-12.25,11.3-10.59,16.66,3.26.37,19.39-1.1,22.49.31l3.38-.24h2.2a7.4,7.4,0,0,0,4.42-.07c3.38.07,2.47.07,5.51.06a10.84,10.84,0,0,0,4.47.28c4-5.88,4.81-12.39,7.95-18.47,4.77-9.23,9.41-18.48,3.53-28.51-1.47-2.5-2.42-5.63-.63-8.71,4-6.91,8-13.79,13.36-20.29,2.33-2.79,5.72-5.35,5.14-9-4.78-.56-7.3,2.53-11.49,3"/><path class="cls-13" d="M327.65,337c.59-1.83,3.23-3.15,2.85-5.22l-4.07,2.13a30.51,30.51,0,0,1,6.42-13.74c10.38-13,19.92-26,27.87-39.74,2.88-5,5.36-10.56,4.56-16.22-.14-1,.29-2-1.19-2.72l-3,.94-2.89.35c-2.85,1.79-6.42.4-9.54,1,.68,3.93,1.58,7.85,2,11.8.65,6.35,2.56,13.08-8.38,16.82.11.18.06.34-.13.49-7.85,6.24-14.38,12.88-17.86,20.93-4.83,11.16-6.36,22.81-11.69,33.86,2,1.72,4.84.78,7.28,1.1,3-1.71,3.21-4.33,4.77-6.51"/><path class="cls-7" d="M372.08,316.78c4.39,1.82,3.41,4.65,1.49,6.8-7.69,8.63-6.49,14.85,4.55,21.66,4.64,2.86,11,3.07,16.59,4.38.91.21,2.35.29,3-.46s-.51-1.35-1.22-1.85a38.52,38.52,0,0,0-4.67-3.15c-8.25-4.34-10.28-9.62-5.61-16,1.91-2.61,3.2-4.49,2.79-7.39-.31-2.25-.31-2.25,4-3.45,1.49-.41,4.14-.82,4.64-2.72-2.33-.13-3.86.07-6.76.17-2,.18-2.81.2-4.63.23C381.46,315.1,376.25,315.11,372.08,316.78Z"/><path class="cls-9" d="M324.3,360.4c16.08-3.89,32.67-4.46,49.53-3.66,5.55.26,11.17-.11,16.76-.19-1.28-1.34-3.31-.84-5-.85-9.15-.06-18.3-.05-27.45,0-7.09,0-7.33,0-7.16-4.68.23-6.47.26-12.86-4.45-18.81a14,14,0,0,0-3.84-3.56c-2.41,9.83-7.66,18.44-13.52,26.93A33.18,33.18,0,0,1,324.3,360.4Z"/><path class="cls-13" d="M415,314.92l5.51.06"/><path class="cls-13" d="M408.33,315h2.2"/><path class="cls-9" d="M507.63,214.36c3.62-4.16,2.86-8.63,1.43-13a8.09,8.09,0,0,1,1-7.82c2.14-3,.28-8.69-3.28-10.71a2.93,2.93,0,0,0-2.48-.41,1.23,1.23,0,0,0-1,1.59,27.62,27.62,0,0,0,1.53,4.69c1.24,2.68,1.05,5.34-1.54,7.43-4.93,4-7.23,8.4-6.84,13.55.05.56-.62,1.15-.95,1.73a1.44,1.44,0,0,1-1.11,1.43,2.44,2.44,0,0,1,0,.66l2.18.39,2.21-.29C502.71,214.66,504.54,215,507.63,214.36Z"/><path class="cls-9" d="M474,221.25l1.62-2.52c.31-2.8,1.68-3.82,5.82-5.15.72-.27,1.33-1.42,2.05-1.69.77-.51.17-2.35.34-3.62,0-2.86,2.31-4.3,2.25-7.16,0-.81,0-1.93-1.75-2.07a3.25,3.25,0,0,0-2.78,1.6c-1.71,2.21-1.44,4.77-3.12,7.08-3.46,4.73-9.28,8.22-13.45,12.58-2.51,2.63-16.3,7.91-15.82,11a166.72,166.72,0,0,0,17.91-2.56h.06C467.84,225.61,468.77,222.53,474,221.25Z"/><path class="cls-8" d="M657.91,272c-3-10.41-19.17-17.75-22.45-28.12-.63-2-15.07-2.2-17.61.74-.65.75,18.94-.65,17.61-.74-1.78-.12-1.39-3.41-1.62-4.2-2.39-8.43-5-14.61-3.85-22.91,1.13-7.85-10.39-13.92-9.68-21.81-2.74.17-5.92,2.41-8.84,2.2h0c-5,4.54-12.06,6.37-19.94,7.22l-2.13.19c-4.61.59-5.59.75-9.23,1.31l-1.8.2c-1.46.56-2.93,1-4.39,1.51-.2,2.65.92,5.34,1.84,7.85,3.27,8.91,2.24,17-8.15,23.89-2.87,1.89-5.19,4.72-4.29,7.38,2.13,6.29-.75,12.08-3,17.86s-5.59,11.27-8.59,16.85c-.81,1.5-1.07,2.86.15,4.26,4.16-.17,7-2.67,11-3,1.66-.34,2.43-1.77,4.45-1.66a14.2,14.2,0,0,1,2.12-.81,5.9,5.9,0,0,1,4-.55l1.75-1.29a90.58,90.58,0,0,0,1.62-17.58c0-3.88-.72,17.05,1.08,12.5,3.27,10,7.15-5.51,7.12,3.85,1.32.17,3.11-.28,3.92.59l3.42,1.72c2.68,0,5.43-.42,8,.5,4.32-.72,8.7-.44,13.07-.22l3.61-1.11h0c.24-1.09,1.08-1.14,2.62.17,1.86.06,3-1,5.26-.38l2-.46"/><path class="cls-7" d="M598.92,319.17l-5-.17"/><path class="cls-7" d="M587.28,280.17c1.8-.23,3.88.47,5.39-.73l-3.32-.84c-3.29-.49-6.52.21-9.79.23a4,4,0,0,1,0,.69"/><path class="cls-8" d="M527.79,287.23c1.08-.24,2-.69,3.12-1,.68-.15.36.09,1.14.1s-.1.1.89.14a26.49,26.49,0,0,1,3.45.32c1.12-.06,4.26.53,3.36-.17-3.85-3.05,2.81,7.2,20.51-6.11,3.7-9,7.12-21.33,6.38-31.14-.23-3.1,4.37-7.54,7.14-10.47,6.48-6.86,4.59-23,3-30.77-.6-2.84-15.38,3.55-19.35,4.26-4.79.86-7.81,1.28-12.16,2.24-5,1.12-2,11.15-1.34,16.3a41.33,41.33,0,0,1-4,23.86c-1.58,3.17-4.78,3.48-9.56,1.06-5.5-2.77-8.94-6.87-13.67-10.13-9.15-6.31-5.1-14.07-5.2-21.27,0-2.39.64-6.82.75-9.29a20.46,20.46,0,0,0-4.59-.85c-1.26.89-3,3.8-3.55,5A33.42,33.42,0,0,0,501.65,232c11.49,15.16,10.19,29.76.59,44.94.18,2.06-.51,4.13.69,6.18,2.4,4.09,3.66,8.65,4.91,13l2.06-.23c.26-.6,1-.79,1.74-1.22"/><path class="cls-6" d="M445,311.51c-.19.37-1,1.15-1.17,1.53-.14.92-.29,1.84-.43,2.76-.19.32-.38.63-.56.95L439.05,321c-1.46,5.42-6,10-9.26,14.89-1.82,2.72-2.24,3.73,2.84,2.81.3-.05.81.41,1.22.63l2.08-.23c1.43.21,1.05-.31,3.49-.6,3.33.11,6.79-.67,9.95.63,7.26.77,14.55,1.46,21.25,3.7.4.08-.09-.08.64.16,1.62.43,1.62.43,3.23.83l2.37.07,1.82-.14a4.75,4.75,0,0,1,2.5.33"/><path class="cls-6" d="M487.19,345.23l1.34-.12c-.18-1.85-2.63-2.11-4.38-2.87-6.55-2.86-11.31-6.52-14.16-11.65-3.64-6.58-2.1-12.89.53-19.15,1.72-4.07,2.05-8.26,3.46-12.33-6.5-2.41-13.25-3.65-20.62-2-1.44,1.56,0,0-2.14,2.37l-1.7,1.29a.23.23,0,0,1,0,.38"/><path class="cls-6" d="M521,290c-6.06,2.73-4.61,1.45-9.39,4.87a1.89,1.89,0,0,0-1.73,1c0,2.6-3.1,4.77-2.22,7.53.34,1.06-.05,2.46,2.17,2.57,1.91.1,2.18-1.07,2.26-2.09.09-1.32.38-2.66,2.8-2.65,2,0,2.87,1.17,3.78,2.33,5.92,7.48,7,16.14,12.89,23.67,1.41,1.8,2.58,2.35,5.07,2.37l5.27-.89,1.18-.82c1.46-2,51-8.64,53.32-8.89-.93-5.47-33.93-2.16-38.38-6.51s-2.74-9.67-2.28-15.48c.26-3.32-2.21-4.47.57-7,0-.68-4.33-1.62-4.36-2.3-1.09-.18-17.77-1-18.87-1.19-.73,0-1.36-.3-2.09-.3-1.08.25-2.28.79-3.36,1"/><path class="cls-13" d="M453.36,297.12c7.37-1.66,14.12-.42,20.62,2a31.48,31.48,0,0,1,3.68,1.54A19.72,19.72,0,0,0,494,302.4c5-1.64,11.59-1.86,13.84-6.3-1.25-4.31-2.51-8.62-4.9-12.72-1.2-2-.52-4.11-.7-6.17-2.89,2.61-4.09,4.49-6.09,6.7-6.89,7.59-15.87,11.72-29.33,10.58-3.2,1.25-6.7.29-10,.62-2.11.2-4.94-.24-4.85,2.21Z"/><path class="cls-13" d="M650.27,268.07l-1.1-.75-.11.09,1.11.75Z"/><path class="cls-13" d="M643.44,267.38c.06-.23.12-.46.19-.69l-1.33.65.11.09A7,7,0,0,0,643.44,267.38Z"/><path class="cls-13" d="M647.78,266.69a2.09,2.09,0,0,0,.27.66l1,.06.11-.09Z"/><path class="cls-17" d="M364.2,248.18c1.69-3.08,5.17-3.47,9.49-3.21,3.52.21,7.44.53,10.47-1.38,0-.27-.14-.66-.15-.93-.36,0-.73.06-1.09.07-10.75.33-10.37.31-11.19-6.9-1-9.21-4.08-18.3-3.34-27.6-1.23.66-1.9,1.62-1.67,2.59,1.54,6.32-.55,12.12-5.09,17.62a3.2,3.2,0,0,1,1,.2c3.23,2.48,4.51,13.1,1.83,15.75C363.29,245.6,362.22,246.89,364.2,248.18Z"/><path class="cls-11" d="M656.54,140c1.38-.45.82-.23,1.79-.53-.39-.7.08-2.6-1.28-3H652.1c-1.45,1.61-1.67,3.21.13,4.78Z"/><path class="cls-17" d="M364.09,261.45c-.08-.52-.17-1-.26-1.56"/><path class="cls-14" d="M652.1,136.49h4.95c1.41-.94,3.46-.55,5.05-1.12.72-3.29-3.81-2.1-5.82-2.82,0-1.47,1.5-1.1,2.39-1.3,1.08-.25,2.22-.49,1.93-1.45-.24-.79-1.41-.73-2.26-.69-3.48.16-3.34-.88-3.22-2.94.28-4.7-2-9.48-2.09-14,0-5.75-1.56-11.49-.74-17.24a1.64,1.64,0,0,0-.59-1.56c-1.54,4.39-3.15,8.76-4.6,13.17a12.65,12.65,0,0,1-3.32,5.84c-1.47,1.36-1.47,2.89-.93,4.61,1,3,4.76,5.18,5,8.35.12,1.58,2.42.46,3.64,1.24,1.38.89,1.94,1.94.89,2.22-4.39,1.15-3.91,4.06-5.53,6.19C648.1,136.34,650.74,135.36,652.1,136.49Z"/><path class="cls-13" d="M425.9,242.33l-.88.43Z"/><path class="cls-8" d="M483.48,211.77c-.12,3.76-.31,8.15-1.91,11.77-.42,1,.31,1.64.79,2.4l2.06-.25a34.08,34.08,0,0,1,6.6.07l.24.17.3-.12c1.51.39,1.37.42,3.1,1l0,.24.33.1c.56-4.33,2.73-9.66,1.49-14.1"/><path class="cls-8" d="M452.67,299c2-2,2.44-3.55,4.55-3.75,3.32-.33,6.82.63,10-.62-5.6-1.91-10.39-4.37-13.92-7.77-4.31,1.32-10.6-20.56-11.71-18.21-.78,1.63-2,12.54-1.29,16.7.22,1.37,5.14,16.3,7.9,19.9A28,28,0,0,0,450,301"/><path class="cls-7" d="M442.85,316.76l.57-.95"/><path class="cls-7" d="M443.85,313.05l.57-1.12Z"/><path class="cls-13" d="M496.51,213c1.24,4.44-1.11,9.46-1.67,13.8,2.31,1.59,4.94,4.07,7.25,5.66a34,34,0,0,1,2-12.83,16.19,16.19,0,0,1,3.74-5c-1.64-2.11-6.33-.53-9-1C498.12,213.72,497.25,212.93,496.51,213Z"/><path class="cls-6" d="M547,288c-2.25,6.22.59,13.56,2.7,19.76,1,3,2.43,5.93,5.86,8.17s5.1-1.86,8.26-1.43c4.37.6,29.09,5.1,29.68,2.05.9-4.68-12.08-19.23-7.92-23.11s5.3-8.88,3.3-13.26c-1-.2-14-.67-15-.87a8.09,8.09,0,0,0-4.38.9l-2.13.81c-2-.11-2.86,1-4.52,1.37a21.9,21.9,0,0,0-5.79,2C554.42,285.53,549.08,286.11,547,288Z"/><path class="cls-7" d="M576.15,279.45l-1-.68"/><path class="cls-13" d="M651.46,461.91c.12-2.17-.09-60.38-.09-61.32,0-26.59-.18-48.45-.22-75-1.79-.82-3.39-.23-4.91,1.07q.07,37.49.17,75c0,2.87-.37,58.41-.23,61.27"/><ellipse class="cls-14" cx="649.15" cy="159.7" rx="5.05" ry="3.24"/><ellipse class="cls-14" cx="649.15" cy="195.26" rx="5.05" ry="3.24"/><ellipse class="cls-14" cx="647.28" cy="234.07" rx="5.05" ry="3.24"/><ellipse class="cls-14" cx="645.38" cy="269.63" rx="5.33" ry="3.54"/><ellipse class="cls-14" cx="648.16" cy="305.77" rx="5.14" ry="3.34"/><polyline class="cls-8" points="536.51 214.75 541.83 214.96 545.2 215.09 545.21 215.83 544.51 253.09 538.9 257.6 530.08 257.89 516.6 249.58 507.81 235.31 506.56 216.52 510.19 217.1 511 216.72 510.99 215.07 513.52 214.66 514.83 214.44 515.78 214.35 516.52 214.44 517.21 214.75 517.68 215.06 520.82 214.87"/><polyline class="cls-8" points="619.02 195.12 625.32 193.1 630.94 192.52 635.78 192.2 640.08 267.18 640.83 267.26 640.47 267.59 640.18 267.93 639.87 268.44 639.75 268.74 639.68 269.01 639.63 269.32 639.63 269.62 639.7 270.06 639.75 270.25 639.91 270.63 640.13 270.99"/><polygon class="cls-8" points="573.58 278.05 573.58 279.56 576.12 279.45 579.52 280.17 587.25 280.17 590.58 280.15 592.64 279.43 590.01 275.65 585.76 272.95 580.68 270.58 577.3 265.98 575.16 266.64 573.58 278.05"/><polygon class="cls-8" points="617.08 278.59 617.38 278.64 617.64 278.66 617.99 278.66 618.42 278.59 618.6 278.52 618.77 278.44 618.96 278.32 619.13 278.18 619.26 278.05 618.36 277.22 617.23 277.19 617.08 278.59"/><polygon class="cls-8" points="631.17 276.51 632.54 276.38 633.61 276.33 635.29 276.19 637.87 275.82 640.91 275.02 642.99 274.14 644.14 273.5 644.57 273.22 643.73 273.04 642.65 272.72 641.62 272.17 641.13 271.79 640.4 271.04 640.08 270.05 640.08 269.54 640.3 268.67 640.64 268.1 641.06 267.64 641.31 267.42 640.01 266.74 637.34 261.19 631.17 276.51"/><path class="cls-13" d="M443.42,315.81c1.38-3.06,1.16-3.39,4.36-10.7-4.58-11.9-9.39-22.95-5.93-35.7a65.27,65.27,0,0,1,10.72-22.61c6.61-8.82,15.49-17.92,29.92-21.06-.6-1-1.18-1.43-.66-2.69,2-4.74,1.68-8.9,1.83-13.8l-.37-.28L480.63,210c-.14,3.74-4.09,5.1-7.24,7.62-.67,1.1-1.45,3.5-2.11,4.6-5.56,3.53-1.46,4.81-6.42,7.13l-2.29-.08c-5.23,1.12-3.46.77-8.29.95-1.81.09-4.47,2.51-6.28,2.6.72,4.8-4,8.09-6.86,11.74-6.66,8.49-11.55,17.48-16.49,26.49-2.21,4-1,8.11.78,11.38,7.25,13.1,1.53,25.18-4.35,37.24-3.88,7.94-4.86,16.44-9.81,24.12.57,1.18,1.14,2.35,1.72,3.53,5.48.84,9.52,4.58,15.7,4,1.56-1.86-.27-5.3,1.29-7.17.66-1,.76-.64,1.46-1.87.18-1.21,3-.19,3.17-1.39.23-.49.47-1,.71-1.47"/><polyline class="cls-6" points="449.93 301.16 445.73 312.7 480.76 344.15 489.65 346.11"/><polygon class="cls-8" points="442.06 268.62 443.13 265.13 444.44 261.51 446.54 256.71 448.63 252.77 450.33 249.99 452.69 246.64 455.49 243.09 456.43 241.99 459.32 238.85 460.69 237.51 463.05 235.4 467.83 231.84 463.09 235.69 462.12 236.92 460.17 239.17 455.76 245.07 452.43 250.55 452.01 251.76 450.78 254.93 449.49 259.11 449.05 261.15 448.87 262.34 448.75 263.42 448.63 264.58 448.63 265.85 448.63 267.15 448.76 268.91 448.98 270.76 449.41 273.16 449.99 275.55 450.72 278.05 451.7 280.93 452.35 282.69 452.86 284.01 453.23 284.94 453.7 286.1 454.82 287.15 456.98 289.01 459.08 290.58 461.33 292.01 462.88 292.85 464.38 293.55 465.47 294.02 466.38 294.35 467.35 294.68 463.14 294.34 452.07 287.98 447.22 282.29 442.06 268.62"/><path class="cls-7" d="M435,340.46c-1.19,3.26-5,4.63-1.4,5.83,5.11,1.7,6.36,2.85,9.6,6-.43,2.19-2.5,3.53-5.14,4.05a69.55,69.55,0,0,1-16.62,1.71c-2.88,0-5.78.12-8.65,0-11.61-.68-23.35.14-34.88-1.49,8.86,0,17.72-.24,26.56,0,5.77.13,6.52-1.22,5.75-5.2-1.58-8.17-2.37-16.33,5.39-23.75,3.41-3.27,4.82-8.26,7.09-12.21s-1.1,3.54,0,0c5.48.84,21.11-13.84,27.29-14.39-1.8,7.08-8.56,23.2-11.54,30.83Z"/><polygon class="cls-13" points="602.89 202 604.5 207.46 607.13 211.87 607.9 216.21 610.58 211.35 614.88 206.09 617.42 203.36 618.08 199.59 618.08 195.26 614.57 196.75 613.01 197.05 611.48 197.11 602.89 202"/><line class="cls-13" x1="398.51" y1="304.08" x2="399.27" y2="305.1"/><path class="cls-13" d="M393.82,280.2l-3.71-14.42-4.45-10.22-1-2.56-.55-2.35-.19-1.11.19-1.36.27-.8.28-1.09v-.79l-.26-1-.12-.88h-.17l-.6.34-.86.39-1.06.39-.94.2-.93.1-2.15.12-2.33-.07-2.51-.14H371.1l-1.27.08-1.18.17-.68.16-.68.22-.88.4-.92.64-.85.91-.44.69,1.21,2.09,1.15,5.65,1,4,1.91,4.56,5.46,8.49,2.94,3.11,2.58,8.42-.51,8.27-4.28,6.08L372,303.67l-1.44,3.27-1.07,5.55,2.6,4.29,25.53-2.17.31-1.65s1.07-2.08,1.35-2.47,1.34-2.13,1.34-2.13l-3.87-12.49Z"/><ellipse class="cls-18" cx="479.19" cy="261.24" rx="38.1" ry="32.21" transform="translate(117.27 669.75) rotate(-77.06)"/></g></g><g id="Layer_1" data-name="Layer 1"><path class="cls-19" d="M.18,81.35c0,2.88.06,5,.06,5l78,.66c-8.84-2.45-17.63-5.84-26.7-7.18C34.2,77.67,16.85,74.48.18,81.35Z"/><path class="cls-20" d="M172.88,86.49c-6.11-3.77-24.06-14.33-35.41-15.65-12.68-1.48-15.85,1.09-16.82,2.94S103.1,59,86.4,57.55c-16.46-1.46-24,3.69-29.12,10S50.7,45.91,23.64,47.21C.61,48.32,0,64.2,0,65.3c0,.75.11,10.07.18,16,16.67-6.87,34-3.68,51.37-1.53,9.07,1.34,17.86,4.73,26.7,7.18l39.64.34c10.45-2.29,20.9-5.31,31.35-5.31A67.71,67.71,0,0,1,172.88,86.49Z"/><path class="cls-21" d="M172.88,86.49A67.71,67.71,0,0,0,149.24,82c-10.45,0-20.9,3-31.35,5.31l57.11.48S174.22,87.32,172.88,86.49Z"/><path class="cls-22" d="M372.12,53.24a1.56,1.56,0,1,1-1.56-1.56A1.55,1.55,0,0,1,372.12,53.24Z"/><path class="cls-22" d="M465.23,66.83a1.56,1.56,0,1,1-1.55-1.56A1.55,1.55,0,0,1,465.23,66.83Z"/><path class="cls-22" d="M404.41,143.22a1.56,1.56,0,1,1-1.56-1.56A1.55,1.55,0,0,1,404.41,143.22Z"/><path class="cls-22" d="M579.86,54.79a1.56,1.56,0,1,1-1.56-1.55A1.56,1.56,0,0,1,579.86,54.79Z"/><path class="cls-22" d="M699.56,112.25a1.56,1.56,0,1,1-1.56-1.56A1.56,1.56,0,0,1,699.56,112.25Z"/><path class="cls-22" d="M491.78,47.17a.78.78,0,0,1,.78-.78.77.77,0,0,1,.77.78.76.76,0,0,1-.77.77A.77.77,0,0,1,491.78,47.17Z"/><path class="cls-22" d="M236.5,96.74a.43.43,0,1,1,.42.42A.42.42,0,0,1,236.5,96.74Z"/><path class="cls-22" d="M343.15,113.81a.43.43,0,0,1,.85,0,.43.43,0,1,1-.85,0Z"/><circle class="cls-22" cx="203.35" cy="37.79" r="0.42"/><circle class="cls-22" cx="236.5" cy="54.79" r="0.84"/><path class="cls-22" d="M669,39.78a.43.43,0,1,1,.42.42A.42.42,0,0,1,669,39.78Z"/><path class="cls-22" d="M591.58,67.25a.42.42,0,1,1,.42.43A.42.42,0,0,1,591.58,67.25Z"/><path class="cls-22" d="M60.08,136.31a.42.42,0,1,1,.84,0,.42.42,0,1,1-.84,0Z"/><path class="cls-22" d="M159,25.12a.43.43,0,1,1,.42.42A.42.42,0,0,1,159,25.12Z"/><path class="cls-22" d="M86,36.24a.42.42,0,0,1,.42-.43.43.43,0,0,1,0,.85A.42.42,0,0,1,86,36.24Z"/><path class="cls-22" d="M56.13,156.79a.43.43,0,1,1,.43.43A.42.42,0,0,1,56.13,156.79Z"/><path class="cls-22" d="M111.73,167.31a.43.43,0,0,1,.85,0,.43.43,0,1,1-.85,0Z"/><path class="cls-22" d="M517.13,96.31a.43.43,0,0,1,.85,0,.43.43,0,1,1-.85,0Z"/><path class="cls-22" d="M644.5,114.24a.43.43,0,1,1,.42.42A.42.42,0,0,1,644.5,114.24Z"/><path class="cls-22" d="M690.12,70.74a1.11,1.11,0,0,1,2.22,0,1.11,1.11,0,1,1-2.22,0Z"/><path class="cls-22" d="M306.7,76.94a1.11,1.11,0,1,1,1.11,1.11A1.11,1.11,0,0,1,306.7,76.94Z"/><path class="cls-22" d="M207.15,65.27a1.12,1.12,0,1,1,1.11,1.11A1.12,1.12,0,0,1,207.15,65.27Z"/><path class="cls-22" d="M322.12,28.24a1.11,1.11,0,1,1,1.11,1.11A1.11,1.11,0,0,1,322.12,28.24Z"/><path class="cls-22" d="M530.39,26.68a1.12,1.12,0,1,1,1.11,1.11A1.12,1.12,0,0,1,530.39,26.68Z"/><path class="cls-22" d="M584.92,110.69a1.12,1.12,0,1,1,1.11,1.12A1.11,1.11,0,0,1,584.92,110.69Z"/><path class="cls-22" d="M632.56,38.31a1.11,1.11,0,1,1,1.11,1.11A1.11,1.11,0,0,1,632.56,38.31Z"/><path class="cls-22" d="M25.53,114.66a1.11,1.11,0,1,1,2.22,0,1.11,1.11,0,1,1-2.22,0Z"/><path class="cls-22" d="M435,88.25a.43.43,0,1,1,.42.42A.42.42,0,0,1,435,88.25Z"/><path class="cls-22" d="M288,128.74a.43.43,0,1,1,.42.42A.42.42,0,0,1,288,128.74Z"/><circle class="cls-22" cx="213.35" cy="142.79" r="0.42"/><path class="cls-22" d="M297.58,66.83a.42.42,0,1,1,.42.42A.42.42,0,0,1,297.58,66.83Z"/><path class="cls-22" d="M679.56,37.79A1.56,1.56,0,1,1,678,36.24,1.56,1.56,0,0,1,679.56,37.79Z"/><path class="cls-22" d="M519.12,141.23a1.56,1.56,0,1,1-1.56-1.56A1.56,1.56,0,0,1,519.12,141.23Z"/><path class="cls-22" d="M263.12,155.23a1.56,1.56,0,1,1-1.56-1.55A1.56,1.56,0,0,1,263.12,155.23Z"/><path class="cls-22" d="M264.68,26.68a1.56,1.56,0,1,1-1.56-1.56A1.56,1.56,0,0,1,264.68,26.68Z"/><path class="cls-22" d="M64.91,22.15a.43.43,0,1,1,.43.43A.42.42,0,0,1,64.91,22.15Z"/><path class="cls-22" d="M98.5,39.15a.84.84,0,1,1,.84.84A.84.84,0,0,1,98.5,39.15Z"/><path class="cls-22" d="M252.19,59.83a.43.43,0,1,1,.42.42A.42.42,0,0,1,252.19,59.83Z"/><path class="cls-22" d="M208.26,47.15a.43.43,0,1,1,.85,0,.43.43,0,0,1-.85,0Z"/><circle class="cls-22" cx="347.26" cy="40.34" r="0.42"/><circle class="cls-22" cx="572.26" cy="89.8" r="0.42"/><path class="cls-22" d="M527.91,77.12a.43.43,0,1,1,.43.43A.42.42,0,0,1,527.91,77.12Z"/><path class="cls-22" d="M656.49,30.55a.43.43,0,1,1,.42.42A.42.42,0,0,1,656.49,30.55Z"/><path class="cls-22" d="M666.49,70.32a.43.43,0,1,1,.42.42A.42.42,0,0,1,666.49,70.32Z"/><circle class="cls-22" cx="582.68" cy="38.66" r="0.42"/><circle class="cls-22" cx="542.64" cy="41.85" r="0.42"/><path class="cls-22" d="M719.53,19.65a.43.43,0,1,1-.85,0"/><path class="cls-22" d="M360.85,60.78a.42.42,0,0,1,.42-.42.43.43,0,1,1-.42.42Z"/><circle class="cls-22" cx="395.27" cy="77.78" r="0.84"/><path class="cls-22" d="M316.92,48.11a.43.43,0,1,1,.85,0,.43.43,0,0,1-.85,0Z"/><path class="cls-22" d="M604.5,42.56a.42.42,0,1,1,.42.43A.42.42,0,0,1,604.5,42.56Z"/><path class="cls-22" d="M631.71,27.6a.43.43,0,0,1,.85,0,.43.43,0,1,1-.85,0Z"/><path class="cls-22" d="M618.24,19.39a.42.42,0,0,1-.42.42.42.42,0,0,1-.42-.42"/><path class="cls-22" d="M611.78,31.64a.43.43,0,0,1,.85,0,.43.43,0,1,1-.85,0Z"/><path class="cls-22" d="M639.53,19.85a.43.43,0,0,1,.85,0,.43.43,0,1,1-.85,0Z"/><path class="cls-22" d="M684,21.66a.43.43,0,1,1,.42.42A.42.42,0,0,1,684,21.66Z"/><path class="cls-22" d="M614.78,89.57a.42.42,0,0,1,.42-.43.43.43,0,0,1,0,.85A.42.42,0,0,1,614.78,89.57Z"/><path class="cls-22" d="M642,74.61a.43.43,0,1,1,.42.42A.42.42,0,0,1,642,74.61Z"/><path class="cls-22" d="M622.06,78.65a.43.43,0,1,1,.42.42A.42.42,0,0,1,622.06,78.65Z"/><path class="cls-22" d="M423.45,49.66a1.56,1.56,0,1,1-1.56-1.55A1.56,1.56,0,0,1,423.45,49.66Z"/><g class="cls-23"><path class="cls-24" d="M166.51,324.41c-14.1-.46-43.55.57-48,3.77s-14.09,4.34-24.3,2.79-26.42-3.11-32.42.79a37.68,37.68,0,0,1-9,3.52c6.4.27,12.79.72,19.18.72,24.31,1.82,48.63-.9,73.85-2.72,19.6-1.92,42.31,4.68,61.27,0-2.5-.59-4.89-1.12-6.84-1.49C192,330.21,180.61,324.87,166.51,324.41Z"/><path class="cls-25" d="M145.75,333.28c-25.22,1.82-49.54,4.54-73.85,2.72-6.39,0-12.78-.45-19.18-.72a133.46,133.46,0,0,1-16.63,3.6c8.59,0,24.76.51,24.76.51l163.37-1.76s-9.2-2.5-17.2-4.38C188.06,338,165.35,331.36,145.75,333.28Z"/></g><path class="cls-26" d="M445.47,43.5s12,4.79,9,8.06,9.67-3.94,15.67,0-9-4.14-12.33-2.07S458.81,41.5,445.47,43.5Z"/><path class="cls-26" d="M422.36,73.07s12,4.79,9,8.06c-1.31,1.43,2.35-1.33,7.12-.69s11.23,1.69,8.54.69-9-4.14-12.33-2.07S435.69,71.07,422.36,73.07Z"/><path class="cls-26" d="M512.56,89.59s7.49,3,5.62,5c-.82.89,1.47-.83,4.45-.43s7,1.06,5.33.43-3.54-3.88-5.62-2.59S520.88,88.34,512.56,89.59Z"/><path class="cls-27" d="M240.69,128.93c.68.22,2.79.08,5.66-.33C242.42,128.6,239.92,128.68,240.69,128.93Z"/><path class="cls-28" d="M391.17,104.31c-15.66-.77-48.35.93-53.33,6.24s-15.66,7.21-27,4.64-29.34-5.16-36,1.31c-2,2-5.76,4-10,5.85,7.09.44,14.19,1.19,21.29,1.19,27,3,54-1.5,82-4.52,21.77-3.18,47,7.77,68,0-2.78-1-5.43-1.86-7.59-2.48C419.51,113.92,406.83,105.07,391.17,104.31Z"/><path class="cls-29" d="M368.12,119c-28,3-55,7.54-82,4.52-7.1,0-14.2-.75-21.29-1.19a108.19,108.19,0,0,1-18.48,6c9.54,0,27.5.84,27.5.84l181.41-2.91S445,122.1,436.16,119C415.11,126.79,389.89,115.84,368.12,119Z"/><path class="cls-30" d="M18.35,329.94c-.48.44,40.64-2.11,40.64-2.11s-10.94-4.81-22.1-4S21.25,327.25,18.35,329.94Z"/><path class="cls-30" d="M437.3,333.85c-.27.31,22.69-1.47,22.69-1.47s-6.11-3.34-12.35-2.8S438.92,332,437.3,333.85Z"/><path class="cls-30" d="M381.66,311c-.2.31,16.09-1.47,16.09-1.47s-4.34-3.33-8.76-2.8S382.8,309.1,381.66,311Z"/><path class="cls-30" d="M357.66,360.88c-.27.31,22.69-1.47,22.69-1.47s-6.11-3.33-12.35-2.8S359.28,359,357.66,360.88Z"/><path class="cls-30" d="M122.4,315.16c-.27.31,22.69-1.46,22.69-1.46s-6.11-3.34-12.34-2.81S124,313.3,122.4,315.16Z"/><path class="cls-22" d="M128.53,359.34a.83.83,0,1,1,.81,1A.92.92,0,0,1,128.53,359.34Z"/><path class="cls-22" d="M81.74,213.45a2.19,2.19,0,1,1,2.14,2.65A2.43,2.43,0,0,1,81.74,213.45Z"/><path class="cls-22" d="M6.22,382.79a.93.93,0,0,1,.82-1,1,1,0,0,1,0,2A.94.94,0,0,1,6.22,382.79Z"/><path class="cls-22" d="M263.86,252a.83.83,0,1,1,.82,1A.92.92,0,0,1,263.86,252Z"/><path class="cls-22" d="M272.45,366.61a.83.83,0,1,1,.81,1A.92.92,0,0,1,272.45,366.61Z"/><ellipse class="cls-22" cx="111.45" cy="291.41" rx="0.81" ry="1.01"/><ellipse class="cls-22" cx="34.51" cy="298.98" rx="0.81" ry="1.01"/><path class="cls-22" d="M205.63,265.14a.83.83,0,1,1,.81,1A.92.92,0,0,1,205.63,265.14Z"/><path class="cls-22" d="M225.37,376.81a.83.83,0,1,1,.82,1A.93.93,0,0,1,225.37,376.81Z"/><path class="cls-22" d="M187.09,386.41a.83.83,0,1,1,1.63,0,.83.83,0,1,1-1.63,0Z"/><path class="cls-22" d="M288.77,332.87a1.3,1.3,0,1,0-1.27,1A1.16,1.16,0,0,0,288.77,332.87Z"/><ellipse class="cls-22" cx="680.67" cy="282.12" rx="1.16" ry="1.62"/><path class="cls-22" d="M694.12,317.82c0-.89.52-1.62,1.16-1.62s1.16.73,1.16,1.62-.51,1.63-1.16,1.63S694.12,318.72,694.12,317.82Z"/><path class="cls-22" d="M446.28,363.28a.87.87,0,1,1,.87.8A.84.84,0,0,1,446.28,363.28Z"/><path class="cls-22" d="M648.28,369.79a2.29,2.29,0,1,1,2.28,2.08A2.18,2.18,0,0,1,648.28,369.79Z"/><ellipse class="cls-22" cx="411.86" cy="470.67" rx="0.87" ry="0.79"/><path class="cls-22" d="M599.84,369a.87.87,0,1,1,.87.79A.83.83,0,0,1,599.84,369Z"/><path class="cls-22" d="M708.57,274.48a.87.87,0,0,1-1.74,0"/><path class="cls-22" d="M565,401.18a.87.87,0,1,1,.87.79A.84.84,0,0,1,565,401.18Z"/><path class="cls-22" d="M493.84,404.92a.87.87,0,1,1,.87.79A.83.83,0,0,1,493.84,404.92Z"/><path class="cls-22" d="M549.62,377a.87.87,0,1,1,.87.79A.82.82,0,0,1,549.62,377Z"/><ellipse class="cls-22" cx="307.38" cy="276.44" rx="1.3" ry="0.72"/><path class="cls-22" d="M262.17,285.42c0-.53.76-1,1.71-1s1.71.43,1.71,1-.76.95-1.71.95S262.17,285.94,262.17,285.42Z"/><path class="cls-22" d="M331.54,280.75c0-.2.29-.36.65-.36s.66.16.66.36-.29.37-.66.37S331.54,281,331.54,280.75Z"/><ellipse class="cls-22" cx="478" cy="264.06" rx="0.65" ry="0.36"/><path class="cls-22" d="M498.92,281.57c0-.2.29-.36.66-.36s.65.16.65.36-.29.37-.65.37S498.92,281.77,498.92,281.57Z"/><path class="cls-22" d="M360.47,149.88a.43.43,0,1,1,.43.43A.42.42,0,0,1,360.47,149.88Z"/><path class="cls-22" d="M316,158.22a.43.43,0,1,1,.42.42A.42.42,0,0,1,316,158.22Z"/><path class="cls-22" d="M175.66,186.71a2.81,2.81,0,1,1-2.78-3.2A3,3,0,0,1,175.66,186.71Z"/><path class="cls-22" d="M215.67,221.58a.76.76,0,1,1,.75.87A.81.81,0,0,1,215.67,221.58Z"/><path class="cls-22" d="M264.3,190.93a.77.77,0,1,1,1.52,0,.77.77,0,1,1-1.52,0Z"/><ellipse class="cls-22" cx="672.88" cy="211.66" rx="1.1" ry="0.64"/><path class="cls-22" d="M708.2,242.38c0-.36.49-.64,1.1-.64s1.1.28,1.1.64-.49.63-1.1.63S708.2,242.73,708.2,242.38Z"/><path class="cls-31" d="M656.55,461.91c7.27-2.45,14.5-5.84,22-7.18,14.27-2.15,28.54-5.34,42.24,1.53,0,2.88,0,5,0,5"/><path class="cls-32" d="M678.35,455.68c-7.45,1.35-14.68,4.74-22,7.19l-32.6.34c-10.39-.34-16.25-.34-24.84-.34-6.77,0-3.9,0-20.37-.51,5-3.77,19.78-14.33,29.12-15.65,10.42-1.48,13,1.09,13.82,2.94S636,434.9,649.69,433.42c13.54-1.46,19.75,3.69,23.95,10s5.41-21.61,27.66-20.31c18.94,1.11,19.44,17,19.44,18.09,0,.75-.09,10.07-.15,16.05"/></g></svg>