<svg xmlns="http://www.w3.org/2000/svg" xmlns:xlink="http://www.w3.org/1999/xlink" viewBox="0 0 2850 1800"><defs><style>.cls-1{isolation:isolate;}.cls-2{fill:url(#linear-gradient);}.cls-3{fill:#ffffd4;}.cls-29,.cls-32,.cls-4{mix-blend-mode:screen;}.cls-4{fill:url(#Áåçûìÿííûé_ãðàäèåíò_261);}.cls-10,.cls-11,.cls-12,.cls-13,.cls-14,.cls-15,.cls-16,.cls-17,.cls-18,.cls-19,.cls-20,.cls-21,.cls-22,.cls-23,.cls-24,.cls-25,.cls-26,.cls-27,.cls-28,.cls-29,.cls-30,.cls-31,.cls-32,.cls-5,.cls-9{fill-rule:evenodd;}.cls-5{fill:url(#Áåçûìÿííûé_ãðàäèåíò_261-2);}.cls-6{fill:url(#linear-gradient-2);}.cls-7{fill:url(#linear-gradient-3);}.cls-8{fill:url(#linear-gradient-4);}.cls-9{fill:url(#Áåçûìÿííûé_ãðàäèåíò_351);}.cls-10{fill:url(#Áåçûìÿííûé_ãðàäèåíò_565);}.cls-11,.cls-12,.cls-13,.cls-14,.cls-15,.cls-16,.cls-17,.cls-18,.cls-19,.cls-20,.cls-21,.cls-22,.cls-23,.cls-24,.cls-25,.cls-26,.cls-27{opacity:0.67;}.cls-11,.cls-12,.cls-13,.cls-14,.cls-15,.cls-16,.cls-17,.cls-18,.cls-19,.cls-20,.cls-21,.cls-22,.cls-23,.cls-24,.cls-25,.cls-26,.cls-27,.cls-30,.cls-31{mix-blend-mode:multiply;}.cls-11{fill:url(#Áåçûìÿííûé_ãðàäèåíò_506);}.cls-12{fill:url(#Áåçûìÿííûé_ãðàäèåíò_506-2);}.cls-13{fill:url(#Áåçûìÿííûé_ãðàäèåíò_506-3);}.cls-14{fill:url(#Áåçûìÿííûé_ãðàäèåíò_506-4);}.cls-15{fill:url(#Áåçûìÿííûé_ãðàäèåíò_506-5);}.cls-16{fill:url(#Áåçûìÿííûé_ãðàäèåíò_506-6);}.cls-17{fill:url(#Áåçûìÿííûé_ãðàäèåíò_506-7);}.cls-18{fill:url(#Áåçûìÿííûé_ãðàäèåíò_506-8);}.cls-19{fill:url(#Áåçûìÿííûé_ãðàäèåíò_506-9);}.cls-20{fill:url(#Áåçûìÿííûé_ãðàäèåíò_506-10);}.cls-21{fill:url(#Áåçûìÿííûé_ãðàäèåíò_506-11);}.cls-22{fill:url(#Áåçûìÿííûé_ãðàäèåíò_506-12);}.cls-23{fill:url(#Áåçûìÿííûé_ãðàäèåíò_506-13);}.cls-24{fill:url(#Áåçûìÿííûé_ãðàäèåíò_506-14);}.cls-25{fill:url(#Áåçûìÿííûé_ãðàäèåíò_506-15);}.cls-26{fill:url(#Áåçûìÿííûé_ãðàäèåíò_506-16);}.cls-27{fill:url(#Áåçûìÿííûé_ãðàäèåíò_500);}.cls-28{fill:#811021;}.cls-29,.cls-32{opacity:0.68;}.cls-29{fill:url(#Áåçûìÿííûé_ãðàäèåíò_571);}.cls-30,.cls-31{opacity:0.5;}.cls-30{fill:url(#Áåçûìÿííûé_ãðàäèåíò_577);}.cls-31{fill:url(#Áåçûìÿííûé_ãðàäèåíò_577-2);}.cls-32{fill:url(#Áåçûìÿííûé_ãðàäèåíò_571-2);}.cls-33{fill:#fec58b;}.cls-34{fill:#ffb7a2;}.cls-35{fill:#ffb085;}.cls-36{fill:#faaf88;}.cls-37{fill:#faaf74;}.cls-38{fill:#ffa58b;}.cls-39{fill:#ffa981;}.cls-40{fill:#882a00;opacity:0.29;}.cls-41{fill:url(#linear-gradient-5);}.cls-42{fill:#7f2000;}.cls-43{fill:#ff292e;}.cls-44{fill:#452100;}.cls-45{fill:url(#linear-gradient-6);}.cls-46{fill:#a70025;}.cls-47{fill:#a21b2c;}.cls-48{fill:#6a0e00;}.cls-49{fill:#ff2320;}.cls-50{fill:#bf2b00;}.cls-51{fill:#e32b00;}.cls-52{fill:#ff2a30;}.cls-53{fill:#da2e58;}.cls-54{fill:#641b00;}.cls-55{fill:#c23852;}.cls-56{fill:#7c1b00;}.cls-57{fill:#4e1b00;}.cls-58{fill:#6a1400;opacity:0.52;}.cls-59{fill:#620013;}.cls-60{fill:#740800;}</style><linearGradient id="linear-gradient" x1="1425.2" y1="1510.79" x2="1425.2" gradientUnits="userSpaceOnUse"><stop offset="0" stop-color="#ff8268"/><stop offset="0.14" stop-color="#d66c54"/><stop offset="0.37" stop-color="#974b37"/><stop offset="0.57" stop-color="#66311f"/><stop offset="0.76" stop-color="#431f0e"/><stop offset="0.9" stop-color="#2d1304"/><stop offset="1" stop-color="#250f00"/></linearGradient><radialGradient id="Áåçûìÿííûé_ãðàäèåíò_261" cx="1932.97" cy="863.39" r="342.13" gradientTransform="translate(-1213.2 -511.52) scale(1.75 1.67)" gradientUnits="userSpaceOnUse"><stop offset="0" stop-color="#ffa422"/><stop offset="0.09" stop-color="#f49d21"/><stop offset="0.24" stop-color="#d78a1d"/><stop offset="0.43" stop-color="#a86c16"/><stop offset="0.67" stop-color="#67420e"/><stop offset="0.94" stop-color="#150d03"/><stop offset="1"/></radialGradient><radialGradient id="Áåçûìÿííûé_ãðàäèåíò_261-2" cx="2512.47" cy="886.06" r="28.29" gradientTransform="matrix(1, 0, 0, 1, 0, 0)" xlink:href="#Áåçûìÿííûé_ãðàäèåíò_261"/><linearGradient id="linear-gradient-2" x1="2368.67" y1="1493.3" x2="2368.67" y2="1214.17" gradientUnits="userSpaceOnUse"><stop offset="0" stop-color="#ff5d15"/><stop offset="0.58" stop-color="#bf2b08"/><stop offset="1" stop-color="#950a00"/></linearGradient><linearGradient id="linear-gradient-3" x1="1375.94" y1="1510.27" x2="1392.21" y2="1216" gradientUnits="userSpaceOnUse"><stop offset="0" stop-color="#ff5d15"/><stop offset="0.18" stop-color="#dd420e"/><stop offset="0.38" stop-color="#bd2a08"/><stop offset="0.58" stop-color="#a71804"/><stop offset="0.77" stop-color="#9a0e01"/><stop offset="0.94" stop-color="#950a00"/></linearGradient><linearGradient id="linear-gradient-4" x1="0.48" y1="1701.93" x2="2849.93" y2="1701.93" gradientUnits="userSpaceOnUse"><stop offset="0.16" stop-color="#660e36"/><stop offset="0.27" stop-color="#6e1034"/><stop offset="0.46" stop-color="#84142e"/><stop offset="0.68" stop-color="#a81c24"/><stop offset="0.69" stop-color="#aa1c24"/><stop offset="0.88" stop-color="#a42024"/><stop offset="1" stop-color="#9e2424"/></linearGradient><radialGradient id="Áåçûìÿííûé_ãðàäèåíò_351" cx="902.72" cy="72129.58" r="1042.23" gradientTransform="translate(-875.13 -6474.41) scale(2.46 0.11)" gradientUnits="userSpaceOnUse"><stop offset="0" stop-color="#f98336"/><stop offset="0.66" stop-color="#d6482a"/><stop offset="0.98" stop-color="#8a292a"/></radialGradient><radialGradient id="Áåçûìÿííûé_ãðàäèåíò_565" cx="903.06" cy="72398.39" r="1037.25" gradientTransform="translate(-875.13 -6474.41) scale(2.46 0.11)" gradientUnits="userSpaceOnUse"><stop offset="0" stop-color="#f98336"/><stop offset="0.66" stop-color="#d6482a"/><stop offset="0.98" stop-color="#9e292a"/></radialGradient><linearGradient id="Áåçûìÿííûé_ãðàäèåíò_506" x1="1526.07" y1="1606.27" x2="1526.07" y2="1479.58" gradientUnits="userSpaceOnUse"><stop offset="0" stop-color="#e28986"/><stop offset="1" stop-color="#a62764"/></linearGradient><linearGradient id="Áåçûìÿííûé_ãðàäèåíò_506-2" x1="1783.97" y1="1607.34" x2="1783.97" y2="1479.32" xlink:href="#Áåçûìÿííûé_ãðàäèåíò_506"/><linearGradient id="Áåçûìÿííûé_ãðàäèåíò_506-3" x1="2046.87" y1="1607.15" x2="2046.87" y2="1480.73" xlink:href="#Áåçûìÿííûé_ãðàäèåíò_506"/><linearGradient id="Áåçûìÿííûé_ãðàäèåíò_506-4" x1="2343.27" y1="1609.07" x2="2343.27" y2="1479.21" xlink:href="#Áåçûìÿííûé_ãðàäèåíò_506"/><linearGradient id="Áåçûìÿííûé_ãðàäèåíò_506-5" x1="2543.31" y1="1594.48" x2="2543.31" y2="1480.69" xlink:href="#Áåçûìÿííûé_ãðàäèåíò_506"/><linearGradient id="Áåçûìÿííûé_ãðàäèåíò_506-6" x1="2626.91" y1="1590.2" x2="2626.91" y2="1482.55" xlink:href="#Áåçûìÿííûé_ãðàäèåíò_506"/><linearGradient id="Áåçûìÿííûé_ãðàäèåíò_506-7" x1="2712.6" y1="1583.33" x2="2712.6" y2="1487.02" xlink:href="#Áåçûìÿííûé_ãðàäèåíò_506"/><linearGradient id="Áåçûìÿííûé_ãðàäèåíò_506-8" x1="2824.07" y1="1611.28" x2="2824.07" y2="1489.23" xlink:href="#Áåçûìÿííûé_ãðàäèåíò_506"/><linearGradient id="Áåçûìÿííûé_ãðàäèåíò_506-9" x1="1310.89" y1="1606.56" x2="1310.89" y2="1479.49" gradientTransform="matrix(-1, 0, 0, 1, 2588.91, 0)" xlink:href="#Áåçûìÿííûé_ãðàäèåíò_506"/><linearGradient id="Áåçûìÿííûé_ãðàäèåíò_506-10" x1="1573.28" y1="1605.54" x2="1573.28" y2="1480.04" gradientTransform="matrix(-1, 0, 0, 1, 2588.91, 0)" xlink:href="#Áåçûìÿííûé_ãðàäèåíò_506"/><linearGradient id="Áåçûìÿííûé_ãðàäèåíò_506-11" x1="1875.85" y1="1606.49" x2="1875.85" y2="1480.82" gradientTransform="matrix(-1, 0, 0, 1, 2588.91, 0)" xlink:href="#Áåçûìÿííûé_ãðàäèåíò_506"/><linearGradient id="Áåçûìÿííûé_ãðàäèåíò_506-12" x1="2153.55" y1="1605.87" x2="2153.55" y2="1482.03" gradientTransform="matrix(-1, 0, 0, 1, 2588.91, 0)" xlink:href="#Áåçûìÿííûé_ãðàäèåíò_506"/><linearGradient id="Áåçûìÿííûé_ãðàäèåíò_506-13" x1="2271.02" y1="1596.67" x2="2271.02" y2="1483.75" gradientTransform="matrix(-1, 0, 0, 1, 2588.91, 0)" xlink:href="#Áåçûìÿííûé_ãðàäèåíò_506"/><linearGradient id="Áåçûìÿííûé_ãðàäèåíò_506-14" x1="2344.92" y1="1597.15" x2="2344.92" y2="1484.53" gradientTransform="matrix(-1, 0, 0, 1, 2588.91, 0)" xlink:href="#Áåçûìÿííûé_ãðàäèåíò_506"/><linearGradient id="Áåçûìÿííûé_ãðàäèåíò_506-15" x1="2417.68" y1="1589.78" x2="2417.68" y2="1486.4" gradientTransform="matrix(-1, 0, 0, 1, 2588.91, 0)" xlink:href="#Áåçûìÿííûé_ãðàäèåíò_506"/><linearGradient id="Áåçûìÿííûé_ãðàäèåíò_506-16" x1="2562.28" y1="1604.98" x2="2562.28" y2="1490.08" gradientTransform="matrix(-1, 0, 0, 1, 2588.91, 0)" xlink:href="#Áåçûìÿííûé_ãðàäèåíò_506"/><radialGradient id="Áåçûìÿííûé_ãðàäèåíò_500" cx="935.42" cy="1613.62" r="839.86" gradientTransform="translate(-875.13) scale(2.46 1)" xlink:href="#Áåçûìÿííûé_ãðàäèåíò_506"/><linearGradient id="Áåçûìÿííûé_ãðàäèåíò_571" x1="1685.52" y1="1607.23" x2="1685.52" y2="1478.91" gradientUnits="userSpaceOnUse"><stop offset="0" stop-color="#ff3200"/><stop offset="0.11" stop-color="#ca2800"/><stop offset="0.24" stop-color="#951d00"/><stop offset="0.37" stop-color="#681400"/><stop offset="0.5" stop-color="#420d00"/><stop offset="0.63" stop-color="#250700"/><stop offset="0.75" stop-color="#110300"/><stop offset="0.88" stop-color="#040100"/><stop offset="1"/></linearGradient><linearGradient id="Áåçûìÿííûé_ãðàäèåíò_577" x1="2243.9" y1="1608.76" x2="2243.9" y2="1479.19" gradientUnits="userSpaceOnUse"><stop offset="0" stop-color="#ffffdb"/><stop offset="1" stop-color="#c7637a"/></linearGradient><linearGradient id="Áåçûìÿííûé_ãðàäèåíò_577-2" x1="528.5" y1="1606.49" x2="528.5" y2="1480.91" xlink:href="#Áåçûìÿííûé_ãðàäèåíò_577"/><linearGradient id="Áåçûìÿííûé_ãðàäèåíò_571-2" x1="403.76" y1="1606.81" x2="403.76" y2="1481.35" xlink:href="#Áåçûìÿííûé_ãðàäèåíò_571"/><linearGradient id="linear-gradient-5" x1="2326.19" y1="1605.21" x2="2366.94" y2="1605.21" gradientUnits="userSpaceOnUse"><stop offset="0"/><stop offset="1"/></linearGradient><linearGradient id="linear-gradient-6" x1="2301.26" y1="614.44" x2="2523.25" y2="614.44" gradientUnits="userSpaceOnUse"><stop offset="0"/><stop offset="0.11" stop-color="#020202"/><stop offset="0.18" stop-color="#0a0b09"/><stop offset="0.23" stop-color="#171816"/><stop offset="0.28" stop-color="#292c28"/><stop offset="0.32" stop-color="#41463f"/><stop offset="0.36" stop-color="#5e655b"/><stop offset="0.39" stop-color="#818b7d"/><stop offset="0.42" stop-color="#aab6a4"/><stop offset="0.46" stop-color="#d7e6ce"/><stop offset="0.47" stop-color="#eeffe5"/><stop offset="0.52" stop-color="#c5d3bd"/><stop offset="0.59" stop-color="#919c8c"/><stop offset="0.66" stop-color="#656c61"/><stop offset="0.74" stop-color="#41453e"/><stop offset="0.81" stop-color="#242723"/><stop offset="0.87" stop-color="#101110"/><stop offset="0.94" stop-color="#040404"/><stop offset="1"/></linearGradient></defs><g class="cls-1"><g id="FOND"><polygon class="cls-2" points="2850.61 1497.2 -0.2 1510.79 -0.2 0 2850.61 0 2850.61 1497.2"/></g><g id="SOLEIL"><circle class="cls-3" cx="2169.11" cy="968.62" r="507.36" transform="translate(-49.6 1817.49) rotate(-45)"/><ellipse class="cls-4" cx="2169.11" cy="931.02" rx="598.65" ry="571.64"/><polyline class="cls-5" points="2477.21 903.07 2547.38 877.25 2548.68 869.05 2476.25 896.74 2477.21 903.07"/></g><g id="Layer_9" data-name="Layer 9"><polyline class="cls-6" points="2850 1493.3 1886.95 1477.94 2850.38 1214.17 2850 1475.8"/><polyline class="cls-7" points="0 1493.17 2780.06 1490.7 0 1020.1 0 1488.87"/></g><g id="BOIS"><rect class="cls-8" x="0.48" y="1603.85" width="2849.46" height="196.15"/><path class="cls-9" d="M1502.21,1606.24c475.21.4,872.57,2,1347.79,3.6V1493.3c-992-18.34-1858-18.43-2850-.13v113.32"/><path class="cls-10" d="M2850,1617.41c-495.68-1.25-864.12-2.64-1359.61-2.66q-745,0-1490.39,2.85v17.8q745.4.42,1490.38-.44c495.36,0,863.87.86,1359.62.66Z"/><path class="cls-11" d="M1515.6,1606.25c5.8-42.45,11.64-84.22,17.52-126.67h2.19c.42,42.45.83,84.23,1.24,126.68Z"/><path class="cls-12" d="M1837.91,1607.23q-63.81-64.05-128.82-127.91h2.37q74.25,63.9,147.4,128Z"/><path class="cls-13" d="M2182.87,1607c-99.47-43.26-192.21-83.14-292.95-125.91,1.76,0,3.19-.32,4.95-.31,106.29,42.81,204,83.08,309,126.42Z"/><path class="cls-14" d="M2592.6,1608.76Q2334.23,1543,2073,1479.21l4.4,0q269.58,63.9,536.17,129.82Z"/><path class="cls-15" d="M2850,1583.5c-227.91-39.78-378.95-65-609-102.76l-4.4,0c231.54,38.75,384,64.77,613.38,105.61Z"/><path class="cls-16" d="M2850.41,1542.36c-172.89-24-268.75-36.85-442.61-59.76l-4.39,0c175.34,23.48,272.25,36.64,446.59,61.28Z"/><path class="cls-17" d="M2849.92,1518.15c-115.91-13.64-154.05-17.92-270.33-31.07l-4.4-.06c117.76,13.49,157.44,18,274.81,32Z"/><path class="cls-18" d="M2927.86,1510.15q-101.52-10.53-203.18-20.84l-4.4-.08q103.89,10.63,207.58,21.56Z"/><path class="cls-19" d="M1223.49,1606.5c43.14-42.6,86.06-84.51,130-127-1,0-1.48,0-2.43,0-50.11,42.49-99.16,84.44-148.54,127.07Z"/><path class="cls-20" d="M878.55,1605.39c100.09-43,193.75-82.82,295.11-125.35l-4.83,0c-106.91,42.55-205.64,82.37-311.23,125.46Z"/><path class="cls-21" d="M468.82,1606.23c172.87-43.41,334.65-83.28,509.43-125.41-1.76,0-3,.08-4.71.09-180.32,42.17-347.31,82-525.67,125.58Z"/><path class="cls-22" d="M83.76,1605.51c246.38-43.38,475.29-82.42,724.16-123.38-1.76,0-2.43-.11-4.19-.1-254.43,41-489,80.31-740.93,123.84Z"/><path class="cls-23" d="M0,1571.31c235.51-33.68,398.47-55.63,635.79-87.18-1.76,0-3.29-.4-5-.38C394.91,1514.59,234.06,1536.33,0,1569.27Z"/><path class="cls-24" d="M0,1541.89c129.33-16.1,308.43-37,488-57.36l-4.4.06c-178.08,19.87-355.72,40.34-483.59,56Z"/><path class="cls-25" d="M-.41,1521.09c130.54-13.87,212.32-21.45,343.28-34.69l-4.4.06C209,1499.4,128.67,1507.54-.41,1521.09Z"/><path class="cls-26" d="M-.41,1499.26c50.63-4.79,52.34-4.48,103-9.18l-4.4.08q-73.83,6.77-147.58,13.67Z"/><path class="cls-27" d="M2850,1493.3c-992-18.34-1858-18.43-2850-.13l-.41,27.92c9.56-.45-8.22.31,1.34-.14,978.58-43.32,2849.68-1.2,2849.68-1.2s-14-2.23,0-1.54Z"/><path class="cls-28" d="M2183.31,1615.05c-.18-3.24-.27-4.86-.44-8.1-30.81-13.43-46.25-20.14-77.21-33.53,39.36,13.46,59,20.21,98.16,33.73-.19,3.16-.28,4.75-.47,7.92Z"/><path class="cls-28" d="M63.83,1615.65c-.41-3.91-.62-5.86-1-9.78,36.73-5.16,55.11-7.73,91.91-12.85-28.41,5-42.6,7.48-70.95,12.49l-4.94,9.88Z"/><path class="cls-29" d="M1536.55,1606.27q-1.69-63.68-3.43-127.36,88,.09,176,.41,65,63.86,128.82,127.91Q1687.24,1606.53,1536.55,1606.27Z"/><path class="cls-30" d="M2203.82,1607.15c-105-43.34-202.33-83.08-308.62-125.88,63.49.38,118.7-2.51,182.18-2q259,63.81,515.22,129.51Q2398.22,1607.56,2203.82,1607.15Z"/><path class="cls-31" d="M447.87,1606.49c178.36-43.53,345-83.41,525.37-125.58-63.7.36-101.62.73-165.32,1.22-248.87,41-477.78,80-724.16,123.38Q265.82,1605.66,447.87,1606.49Z"/><path class="cls-32" d="M648.49,1482.77C415,1513.65,231.35,1538.64-.41,1571.58L0,1606.49c37.39,0,25.41-.63,62.8-.62q370.74-64.08,745.12-124.52C744.15,1481.85,712.26,1482.14,648.49,1482.77Z"/></g><g id="PEAUX"><polyline class="cls-33" points="2297.65 1614.41 2329.34 1613.43 2366.94 1593.15 2297.65 1614.41 2366.94 1593.15"/><polyline class="cls-34" points="2346.56 1613.43 2402.76 1613.43 2402.76 1597.68 2366.94 1593.15"/><polygon class="cls-35" points="2446.85 940.97 2426.99 985.07 2480.18 944.64 2506.95 946.48 2525.33 947.26 2542.65 948.05 2547.19 944.38 2553.41 944.11 2554.98 940.97 2561.02 940.97 2561.02 927.05 2549.47 902.91 2549.21 898.45 2555.24 896.74 2549.47 887.42 2523.25 894.89 2511.81 898.9 2511.81 905.27 2446.85 940.97"/><polygon class="cls-36" points="2441.18 1001.66 2496.29 991.42 2527.66 951.53 2545.67 1015.07 2536.18 1017.93 2525.42 1016.62 2518.6 1013.73 2514.4 1009.27 2508.63 1007.17 2438.82 1030 2441.18 1001.66"/><polyline class="cls-37" points="2543.25 953.51 2548.95 956.19 2548.95 960.65 2561.02 960.65 2561.02 971.67 2554.72 974.03 2555.24 979.02 2566.82 1001.85 2564.96 1007.37 2561.02 1007.37 2562.58 1018.81"/><polyline class="cls-38" points="2240.41 832.91 2258.51 786.24 2262.22 790.84 2266.68 790.84 2276 791.37 2277.37 796.75 2284.66 810.89 2277.37 822.34 2274.42 835.72 2268.52 848.12 2240.41 832.91"/><path class="cls-39" d="M2343.71,705l2.75,19.29-2.75,13.78v13.08l6.38,11.32,13.3,10.64,3.55,2v10.63l-3.43,3.15-6,2.37-2.17,7.87v5.51l-2.16,2.36h-2.37l-.78,5.12v3.15h-2.76l-3.54,3.25-3.94,5-1.57,7.08-4.73,2h-15.74l-16.47-8.66-9.12-5.41-7.48-7.61-10.57-19.07-16.6-3-8.26-16.14-2-9.45v-9l2.36-7.48,6.3-5.51h10.45l13.56,4.33,10.24,4.33,3.54,5.12-5.9-14.57.39-8.66,4.72-12.2s3.55-9.45,4.33-10.63,6.3-9.06,6.3-9.06l11.81-11.81,9.85-3.94h4.72l7.48,3.94,2.36,2.76,2,4.33,2,5.12Z"/><polygon class="cls-40" points="2277.37 822.34 2249.14 806.08 2258.33 786.71 2262.22 790.84 2276 791.37 2284.66 810.89 2277.37 822.34"/><path d="M2338.3,689.54a1.12,1.12,0,0,0-1.87-.06L2309.17,728,2293,751.77a1.11,1.11,0,0,1-1,.48l-10.26-.89a1.12,1.12,0,0,1-.12-2.21l2.75-.56a1.11,1.11,0,0,1,1.29,1.42l-11.93,38.69a1.2,1.2,0,0,1-.16.32l-9.27,13.13a1,1,0,0,1-.17.19l-17.84,15.94a1.16,1.16,0,0,0-.34.53L2228,882.18l-17.25,75.21a1.12,1.12,0,0,1-2.1.23l-19.9-41.74a1,1,0,0,1-.11-.51l5.89-180.25a1,1,0,0,1,.07-.35l17.57-46.46a1,1,0,0,1,.24-.38l21.43-22.21a.53.53,0,0,1,.14-.12l19.37-14.34a1,1,0,0,1,.52-.21l22.45-3h39.77l.18,0,11,1.72a1.13,1.13,0,0,1,.84.62l8,16.66a1,1,0,0,1,.1.29l2.33,13.23,1.75,8.11a1.11,1.11,0,0,1-2,.82Z"/></g><g id="ROBES"><polygon class="cls-41" points="2326.19 1614.41 2342.82 1617.27 2366.94 1593.15 2326.19 1614.41"/><path class="cls-42" d="M2295.29,1614.61l100.2-1.1,7.27-.08,2.95,1.18v7.28l-2.75,1L2253,1626Z"/><polygon class="cls-43" points="2294.7 1614.02 2348.63 1584.47 2309.17 1524.48 2338.2 1134.13 2321.66 1523.08 2363.98 1595.14 2294.7 1614.02"/><polygon points="2511.81 895.17 2513.38 901.47 2527.56 892.02 2511.81 895.17"/><polygon class="cls-44" points="2476.25 896.74 2548.68 869.05 2557.87 882.9 2478.35 910.52 2476.25 896.74"/><polygon points="2525.33 947.26 2551.04 1034.28 2566.82 1033.12 2542.65 948.05 2525.33 947.26"/><polyline class="cls-45" points="2523.25 878.78 2411.42 538.1 2344.5 384.56 2301.26 343.75 2506.62 885.13"/><polygon class="cls-46" points="1874.74 1637.83 1940.88 1644.34 1993.63 1644.34 2051.89 1637.83 2094.41 1637.83 2158.19 1644.34 2182.6 1644.34 2205.03 1637.83 2222.75 1627.07 2244.8 1621.38 2250.31 1627.07 2294.99 1616.57 2348.93 1586.49 2309.46 1525.44 2341.16 1123.46 2301.56 1090.67 2282.53 1096.17 2266.05 1097.57 2239.19 1097.5 2232.99 1102.56 2220.39 1112.52 2205.03 1112.52 1874.74 1637.83"/><polygon class="cls-47" points="2217.14 828.04 2223.05 862.88 2217.14 874.11 2212.42 885.13 2207.69 901.47 2210.05 910.52 2210.64 923.71 2215.37 938.47 2218.91 958.13 2225.41 974.03 2254.93 1029.94 2301.26 1092.64 2403.74 1186.49 2412.26 1192.39 2422.64 1192.39 2429.73 1186.49 2445.53 970.39 2429.43 979.64 2446.2 944.51 2450.46 938.98 2448.94 934.14 2368.9 992.87 2356.5 966.23 2338.2 958.13 2285.64 869.05 2268.52 848.12 2242.53 833.36 2217.14 828.04"/><polygon class="cls-48" points="2261.82 1035.09 2277.37 1100.27 2301.56 1090.67 2261.82 1035.09"/><polygon class="cls-49" points="2261.82 1035.09 2246.08 1035.09 2220.39 1096.14 2277.37 1100.27 2261.82 1035.09"/><polygon class="cls-50" points="2246.08 1035.09 2239.78 1033.35 2220.39 1096.14 2246.08 1035.09"/><polygon class="cls-48" points="2246.08 1035.09 2235.45 1006.77 2234.07 1003.43 2231.51 997.72 2228.75 992.8 2226.2 986.89 2222.26 981.19 2218.13 977.25 2215.76 976.26 2212.61 976.26 2209.66 976.26 2206.12 978.43 2204.74 981.58 2209.66 985.71 2215.37 992.01 2221.28 998.51 2227.97 1007.76 2235.45 1020.16 2239.78 1033.35 2246.08 1035.09"/><polygon class="cls-51" points="2220.39 1096.14 2223.05 1101.26 2227.61 1096.66 2220.39 1096.14"/><polygon class="cls-50" points="2223.05 1101.26 2226.39 1103.62 2233.23 1097.07 2227.61 1096.66 2223.05 1101.26"/><path class="cls-52" d="M2187.81,980.59c-4,43-3,109.79,18.93,132.1,1.12,1.14,6.26,1.36,6.26,1.36l4.53-1.53-15.94-131.93"/><polygon class="cls-53" points="2204.74 981.58 2220.39 1096.14 2223.05 1101.26 2226.39 1103.62 2233.23 1097.07 2239.19 1097.5 2220.39 1112.52 2217.53 1112.52 2201.59 980.6 2187.81 980.6 2189.78 973.9 2193.52 970.56 2199.03 969.18 2207.69 969.18 2216.35 970.36 2225.41 972.92 2254.93 1029.94 2258.74 1035.09 2246.08 1035.09 2235.16 1006.07 2231.08 996.95 2228.27 991.67 2226.2 986.89 2223.28 982.66 2221.3 980.28 2220.39 978.92 2217.57 977.02 2215.76 976.26 2209.66 976.26 2206.12 978.43 2204.74 981.58"/><polygon class="cls-54" points="2223.05 862.88 2227.97 848.12 2279.59 870.63 2268.52 848.12 2242.53 833.36 2217.14 828.04 2223.05 862.88"/><polygon class="cls-55" points="2268.52 848.12 2279.59 870.63 2284.66 899.76 2271.27 881.91 2255.26 871.68 2257.1 887.42 2262.53 903.43 2269.96 926.53 2296.99 954.88 2310.38 964.85 2323.76 969.18 2335.05 969.18 2338.72 963.54 2349.74 998.18 2352.63 1005.68 2358.67 1013.93 2417.34 958.13 2368.9 992.87 2356.5 966.23 2338.2 958.13 2285.64 869.05 2268.52 848.12"/><polygon class="cls-54" points="2225.41 964.85 2236.04 994.16 2254.93 1029.94 2298.04 1087.28 2339.97 1126.26 2401.01 1183.98 2412.26 1192.39 2402.56 1163.46 2406.7 1141.61 2363.98 1106.77 2305.13 1047.32 2243.98 934.14 2292.27 1048.57 2225.41 964.85"/><path class="cls-56" d="M2426.63,951.46c-18.09,24.27-12.06,120.47-12.06,120.47l12.4-113.8S2428.42,949.07,2426.63,951.46Z"/><path class="cls-57" d="M2418.21,1186.26c1.17,1.15,5,1.7,6.49,1,1.28-.61,2.68-3.51,2.82-4.92,5.12-51.88,12.7-139.83,16.13-210,0-.24.07-.78-.09-.71-.8.37-2.19,1.26-2.86,1.57a95.41,95.41,0,0,0-11.23,6.31c-.37,3.43-.93,8.74-1.31,12.28-.7,6.61-1.49,14.16-1.88,17.94-.84,8.09-2.55,24.25-3.26,32.35-1.41,16-3.3,48.11-4.81,64.11-.9,9.46-4.33,37.79-4.33,37.79s-.35,12.41,0,16.53C2414.42,1167,2413.55,1181.67,2418.21,1186.26Z"/><polyline class="cls-58" points="2452.99 937.4 2452.99 965.28 2445.87 970.72 2429.47 979.47 2446.2 944.51 2450.46 938.98 2452.17 938.05"/><line class="cls-58" x1="2442.3" y1="1001.74" x2="2444.01" y2="1000.8"/><polygon class="cls-58" points="2444.24 1001 2446.84 1027.28 2441.28 1029.1 2443.27 1001.27 2444.24 1001"/><polygon class="cls-59" points="2102.78 1345.14 2005.93 1530.96 1898.86 1599.46 1874.74 1637.83 1936.64 1644.34 1999.83 1644.34 2049.61 1638.08 2094.41 1637.83 2154.56 1643.97 2182.6 1644.34 2205.03 1637.83 2222.75 1627.07 2244.8 1621.38 2250.31 1627.07 2297.65 1614.41 2326.19 1599.17 2232.49 1603.29 2158.09 1626.03 2192.93 1580.37 2216.55 1454.58 2182.3 1575.05 2129.74 1626.03 2115.57 1614.41 1943.14 1619.73 2051.8 1543.75 2102.78 1345.14"/><polygon class="cls-60" points="2190.06 1136.34 2236.63 1107.36 2215.66 1136.89 2201.75 1263.85 2228.14 1187.56 2233.23 1143.97 2246.08 1116.22 2273.83 1120.94 2273.83 1245.54 2194.7 1393.17 2294.7 1245.54 2310.44 1139.25 2326.19 1143.97 2301.56 1406.75 2326.94 1303.82 2340.59 1127.04 2301.56 1090.67 2277.37 1100.27 2238.6 1097.49 2220.39 1112.52 2217.53 1112.52 2212.35 1114.05 2205.03 1112.52 2190.06 1136.34"/><polygon class="cls-55" points="2111.83 1319.36 2051.2 1556.74 2111.83 1395.53 2111.83 1319.36"/><polygon class="cls-55" points="2297.65 1248.71 2190.06 1399.08 2229.54 1491.79 2297.65 1248.71"/><polygon class="cls-55" points="2194.11 1584.5 2194.11 1599.85 2238.99 1592.17 2287.41 1599.85 2231.9 1599.85 2165.77 1619.73 2194.11 1584.5"/></g></g></svg>