<svg xmlns="http://www.w3.org/2000/svg" xmlns:xlink="http://www.w3.org/1999/xlink" viewBox="0 0 1040 538.99"><defs><style>.cls-1{fill-rule:evenodd;fill:url(#New_Gradient_Swatch_1);}.cls-2{fill:url(#linear-gradient);}.cls-3{fill:url(#New_Gradient_Swatch_3);}.cls-4{fill:url(#New_Gradient_Swatch_3-2);}.cls-5{fill:url(#linear-gradient-2);}.cls-6{fill:url(#linear-gradient-3);}.cls-7{fill:url(#linear-gradient-4);}</style><linearGradient id="New_Gradient_Swatch_1" x1="503.59" y1="462.13" x2="503.59" y2="15.75" gradientTransform="translate(-1.42 -19.18) scale(1.04 1.22)" gradientUnits="userSpaceOnUse"><stop offset="0" stop-color="#dc6660"/><stop offset="0.05" stop-color="#cf5f66"/><stop offset="0.29" stop-color="#9b427f"/><stop offset="0.51" stop-color="#722c92"/><stop offset="0.71" stop-color="#541ba0"/><stop offset="0.88" stop-color="#4212a9"/><stop offset="1" stop-color="#3c0eac"/></linearGradient><linearGradient id="linear-gradient" x1="760.78" y1="541.15" x2="760.78" y2="186.48" gradientUnits="userSpaceOnUse"><stop offset="0" stop-color="#dc6660"/><stop offset="0.17" stop-color="#9a2d91"/><stop offset="0.27" stop-color="#760eac"/><stop offset="0.32" stop-color="#5f0b8b"/><stop offset="0.38" stop-color="#460866"/><stop offset="0.45" stop-color="#300646"/><stop offset="0.52" stop-color="#1f042d"/><stop offset="0.6" stop-color="#110219"/><stop offset="0.69" stop-color="#07010b"/><stop offset="0.81" stop-color="#020002"/><stop offset="1"/></linearGradient><linearGradient id="New_Gradient_Swatch_3" x1="877.11" y1="538.99" x2="877.11" y2="184.17" gradientUnits="userSpaceOnUse"><stop offset="0" stop-color="#dc6660"/><stop offset="0.27" stop-color="#d86ca6"/><stop offset="0.33" stop-color="#d06fa4"/><stop offset="0.78" stop-color="#928594"/><stop offset="1" stop-color="#7a8e8e"/></linearGradient><linearGradient id="New_Gradient_Swatch_3-2" x1="727.02" y1="538.57" x2="727.02" y2="248.18" xlink:href="#New_Gradient_Swatch_3"/><linearGradient id="linear-gradient-2" x1="731.47" y1="537.94" x2="731.47" y2="247.54" gradientUnits="userSpaceOnUse"><stop offset="0" stop-color="#dc6660"/><stop offset="0" stop-color="#d9645f"/><stop offset="0.06" stop-color="#ad5055"/><stop offset="0.12" stop-color="#863d4d"/><stop offset="0.19" stop-color="#642c45"/><stop offset="0.26" stop-color="#471f3e"/><stop offset="0.34" stop-color="#2f1339"/><stop offset="0.43" stop-color="#1d0b35"/><stop offset="0.54" stop-color="#100532"/><stop offset="0.68" stop-color="#090130"/><stop offset="1" stop-color="#070030"/></linearGradient><linearGradient id="linear-gradient-3" x1="881.55" y1="537.94" x2="881.55" y2="181.61" gradientUnits="userSpaceOnUse"><stop offset="0" stop-color="#dc6660"/><stop offset="0.06" stop-color="#b15157"/><stop offset="0.12" stop-color="#893e50"/><stop offset="0.19" stop-color="#662d49"/><stop offset="0.27" stop-color="#481f43"/><stop offset="0.35" stop-color="#30143e"/><stop offset="0.44" stop-color="#1e0b3a"/><stop offset="0.56" stop-color="#110538"/><stop offset="0.7" stop-color="#090136"/><stop offset="1" stop-color="#070036"/></linearGradient><linearGradient id="linear-gradient-4" x1="744.98" y1="539.07" x2="744.98" y2="441.4" gradientUnits="userSpaceOnUse"><stop offset="0" stop-color="#dc6660"/><stop offset="0.1" stop-color="#da6666"/><stop offset="0.23" stop-color="#d56877"/><stop offset="0.39" stop-color="#cc6a92"/><stop offset="0.5" stop-color="#c46cac"/><stop offset="0.63" stop-color="#c77ab3"/><stop offset="0.84" stop-color="#cb8cbb"/><stop offset="1" stop-color="#cc92be"/></linearGradient></defs><g id="FOND"><polygon class="cls-1" points="1040 538.19 0 543.44 0 0 1040 0 1040 538.19"/></g><g id="BATIMENT"><polyline class="cls-2" points="1040 541.15 1040 186.48 1011.61 186.48 1011.61 244.39 975.55 244.39 975.55 262.21 952.37 262.21 952.37 382.99 941.37 384.34 939.49 204.3 887.98 204.19 892.75 471.04 882.83 471.04 882.83 257.76 851.92 257.76 851.92 406.38 836.47 405 836.47 257.76 802.99 231.03 802.99 248.85 787.53 248.85 789.57 356.62 781.91 356.16 781.91 435.95 764.36 435.95 764.36 299.31 751.48 299.01 751.48 222.88 710.27 224.1 710.27 365.66 672.01 366.86 673.83 287.08 642.73 344.43 641.13 394.37 605.01 395.76 604.24 429.25 585.31 429.24 584.8 455.22 573.36 454.94 574.14 396.46 523.11 426.95 522.38 489.32 482.08 489.84 481.56 537.71"/></g><g id="MONUMENT"><path class="cls-3" d="M930.77,487H919.1V450.94a2.77,2.77,0,0,0-2.6-2.92h-3.29V317.77a2.83,2.83,0,0,0-2.66-3H903v-26a2.94,2.94,0,0,0-2.77-3.09h-5.14v-9.63A21.73,21.73,0,0,0,892,264.73v-4.47a17.83,17.83,0,0,0-3.41-10.61V244a13.82,13.82,0,0,0-2.18-7.52V232c0-5.07-3.24-9.3-7.53-10.23L878,185.12a1,1,0,0,0-.92-1,1,1,0,0,0-.92,1l-.87,36.66c-4.29.93-7.53,5.16-7.53,10.23v4.48a13.82,13.82,0,0,0-2.17,7.52v5.64a17.77,17.77,0,0,0-3.42,10.61v4.47a21.82,21.82,0,0,0-3.11,11.33v9.63h-5.15a2.94,2.94,0,0,0-2.76,3.09v26h-7.32a2.83,2.83,0,0,0-2.66,3V448h-3.29a2.78,2.78,0,0,0-2.6,2.92V487H823.45a3.2,3.2,0,0,0-3,3.35V539H933.77V490.34A3.19,3.19,0,0,0,930.77,487Z"/><path class="cls-4" d="M774.9,395.85,781,386.2l-17.81-11.85-8.39,12.54a15.72,15.72,0,0,1-4.35-3.45c-.26-.3-.52-.62-.77-1s-.34-.46-.5-.7-.47-.75-.69-1.15-.29-.55-.43-.84a18.25,18.25,0,0,1-1.21-3.35,51.5,51.5,0,0,1-1-5.06c0-.28-.09-.55-.13-.81s-.11-.79-.17-1.16l-.12-.74-.06-.36c-.79-4.61-2.06-7.63-9.67-11.08-3-6.25-4.19-20.41-4.19-20.41h0v-5l9.24,4.74a.94.94,0,0,0,.93-1.63l-8.31-5.52,1-1h0A10.81,10.81,0,0,0,734,327c0-.1,0-.2-.08-.3a16.64,16.64,0,0,0-4.24-7.17l9.6-6.36a1,1,0,0,0,.3-1.27.94.94,0,0,0-1.23-.37l-11.51,5.91a15.55,15.55,0,0,0-6.28-1.84l-.82-15a.93.93,0,0,0-1.86,0l-.82,15a15.6,15.6,0,0,0-6.28,1.84l-11.5-5.91a.94.94,0,0,0-1.23.37,1,1,0,0,0,.3,1.27l9.59,6.36a16.83,16.83,0,0,0-4.64,8.9l.24.25.44.46L701.17,331c-.92-3.82-2.69-8.2-6-9.91-.23-5.06-.44-10.21-.44-11.95,0-3.79-5.29-21.67-5.66-24.05s1.18-4.47,1.77-8c.5-3-2.42-6.35-4.22-8.27l.3-6.17h3.84a1.85,1.85,0,0,0,1.84-1.86v-4h-4.65c3.82-1.5,3.23-4.75,2.15-6.18h-8.75a18.27,18.27,0,0,1-.62-2.42l-5.21,2.42h0a4,4,0,0,0-.41,4.12,4.7,4.7,0,0,0,.43.63c.12.13.24.26.38.39l.21.18c.12.09.24.18.37.26l.1.06a4.88,4.88,0,0,0,.51.29h0l.56.25H673v4a1.86,1.86,0,0,0,1.84,1.86h3.84l.24,4.9-2.43.63a1.42,1.42,0,0,0-1,1.73,1.39,1.39,0,0,0,1.39,1.06,1.41,1.41,0,0,0-1,1.42,1.43,1.43,0,0,0,1,1.3,1.4,1.4,0,0,0-.84,1.17,1.42,1.42,0,0,0,1.08,1.5,1.08,1.08,0,0,0,.41,2l1.21.11.92,3.89.48,9.7a2.47,2.47,0,0,0,1.3,2.06c0,1.85,0,6.2.09,10.24v0c0,.79.06,1.58.11,2.33.18,2.93.53,5.34,1.16,5.95s1.38,6.13,1.93,12.43c-.21.25-.42.51-.62.78l-.05.06-.3.4-.07.1-.3.41,0,.08c-.32.45-.64.93-.94,1.42l0,0-.27.43a1.09,1.09,0,0,1-.08.15l-.24.41-.1.17-.24.42s-.05.09-.07.14c-.26.46-.5.94-.74,1.42l-.09.2c-.07.13-.13.26-.19.4a2.56,2.56,0,0,0-.11.24l-.18.39c0,.08-.07.17-.11.26l-.17.38c0,.09-.07.18-.11.27l-.27.68-.12.31c0,.12-.08.23-.13.35s-.08.22-.11.33l-.12.34-.12.34c0,.11-.07.23-.11.34s-.07.24-.11.36l-.09.32c-.06.18-.11.36-.16.53l-.09.34-.12.47c0,.09,0,.19-.07.29l-.09.4-.06.3c0,.13-.06.27-.08.4l-.06.29c0,.15,0,.31-.08.46s0,.15,0,.23-.07.44-.09.67l0,.19c0,.16,0,.33,0,.49l0,.25,0,.44a2.28,2.28,0,0,0,0,.26c0,.15,0,.29,0,.44a1.85,1.85,0,0,0,0,.23c0,.19,0,.38,0,.56v.11c0,.22,0,.44,0,.66,0,.06,0,.12,0,.18l0,.47a1.79,1.79,0,0,0,0,.23c0,.14,0,.28,0,.43s0,.15,0,.22,0,.3.07.45l0,.18c0,.21.07.42.11.63h0a5.63,5.63,0,0,0,.14.59,1.8,1.8,0,0,0,0,.19,3.71,3.71,0,0,0,.12.41l.06.21c0,.13.09.26.14.39a1.46,1.46,0,0,0,.07.19c.05.14.11.29.17.43l.06.14c.08.18.17.36.26.54l.05.1.24.43.1.17.22.35.12.18.24.33.12.16c.11.13.21.26.32.38l.07.09.42.44.12.12.33.31.17.14.32.27a1.33,1.33,0,0,1,.19.14l.36.26.17.11.56.35-.17.22c-.92,1.33-1,3.76-.69,6.09,0,.28.07.55.12.82s.08.54.13.8a21.58,21.58,0,0,0,.88,3.29,20.09,20.09,0,0,0,1.36,2.66,7.13,7.13,0,0,1,.82,2.25c0,.32.07.65.09,1,.09,1.55-.09,3.16-.13,4.74,0,.16,0,.32,0,.48a13.38,13.38,0,0,0,.05,1.42,13.66,13.66,0,0,0,.54,2.75c.38,1.26.88,2.51,1.35,3.75.07.18.14.35.2.53.2.54.38,1.07.55,1.61a18.17,18.17,0,0,1,.55,2.5,22.6,22.6,0,0,1,.15,4.58,25,25,0,0,1-.41,3.17c-.64,3.15-2.52,5.88-3.43,8.9l-.06.22a13.27,13.27,0,0,0-.31,1.39c0,.13,0,.26-.05.39s0,.51-.06.78a9,9,0,0,0,.08,1.77c.34,2.28,1.63,3.42,3.51,5.08a4.5,4.5,0,0,1,.74.84,5,5,0,0,1,.76,1.94,7.77,7.77,0,0,1,.1,1c0,.22,0,.45,0,.67s0,.23,0,.34a19.13,19.13,0,0,1-1.34,5.17,31.37,31.37,0,0,0-1.16,3.74c-.06.24-.11.47-.17.71l-.12.57c-.15.76-.27,1.52-.37,2.26l-.09.82c0,.39-.07.78-.1,1.17v.08c0,.62-.06,1.24-.07,1.84h0c-.07,9.72,4,17.36,4.52,19.57,2.83,12.56-8,61.69-7.83,63.94a6.09,6.09,0,0,0,1.51,3c.41.53.83,1,1.16,1.47.06.09.13.17.18.25l.16.24h0l.16.29,0,.09c0,.07.07.14.1.22l0,.09h0c0,.09.07.19.11.28l0,.1.05.15a.14.14,0,0,0,0,.06l0,.11,0,.15s0,0,0,.08,0,.06,0,.09a1.16,1.16,0,0,0,0,.18.77.77,0,0,0,0,.15l0,.22s0,.09,0,.14v.06c0,.06,0,.11,0,.17a.45.45,0,0,0,0,.11v.09a1.09,1.09,0,0,1,0,.18v.54a.31.31,0,0,0,0,.1v.36h0a.62.62,0,0,0,0,.13,1,1,0,0,0,0,.17v.09s0,.1,0,.15a1.49,1.49,0,0,1,0,.21s0,.09,0,.13l0,.2v.14l0,.22,0,.09a2.17,2.17,0,0,1,0,.25.68.68,0,0,1,0,.14c0,.09,0,.18-.05.27v.06c-.07.35-.15.7-.23,1l0,.09c0,.1,0,.19-.07.29l0,.12a2.68,2.68,0,0,1-.07.27l0,.13c0,.09-.05.18-.07.27l0,.13c0,.09,0,.18-.07.28l0,.11c0,.11,0,.21-.08.31l0,.06c-.08.29-.16.58-.23.86l0,.11a2.33,2.33,0,0,0-.07.25l0,.14-.06.23,0,.15c0,.07,0,.14-.05.21s0,.1,0,.15,0,.15-.05.22l0,.13-.06.24s0,.07,0,.1-.05.22-.07.33h73a2.16,2.16,0,0,0,0-.33c0-.51-.07-1.5-.17-2.89l0-.37c0-.11,0-.22,0-.33l0-.4,0-.35c0-.14,0-.29,0-.44l0-.37c0-.16,0-.32,0-.49,0-.41-.07-.83-.1-1.28,0-.18,0-.36,0-.55s-.05-.6-.08-.91,0-.39,0-.58c-.55-6.45-1.36-15.41-2.07-24.19,0-.23,0-.47,0-.7-.13-1.64-.26-3.27-.38-4.88l-.06-.74c-.15-2-.29-4-.42-5.83v-.18c-.1-1.44-.19-2.83-.26-4.15,0-.24,0-.48-.05-.72,0-.54,0-1.06-.08-1.58v-.11c0-.51-.05-1-.07-1.49,0-.73-.06-1.43-.08-2.1l0-.87v-.05c0-.59,0-1.15,0-1.67v-1.15h0v-.66s0-.1,0-.15v-.3a.92.92,0,0,0,0-.16v-.1c0-.11,0-.22,0-.32v-.07c0-.1,0-.2,0-.29v-.06a2.46,2.46,0,0,0,0-.26v-.07c0-.08,0-.15,0-.23v-.06l0-.2v-.05l0-.19v-.05l0-.14v0h0c0-.05,0-.1,0-.14a.31.31,0,0,1,.05-.1h0l.07-.09h0L754,475h0l.09-.06h0l.06,0,0,0h0l.11-.06h0l.08,0,.1,0h0l.22-.09.11-.05.18-.08.16-.07.21-.11a3.69,3.69,0,0,0,.62-.41l.1-.08c.9-.8,1.65-2.32,1.38-5.72h0a30.06,30.06,0,0,0-.58-3.84l-1.24-11.06h0l-2.47-21.93L752,420l.38.25c.16.37.35.8.57,1.27h0c0,.08.08.17.13.26v0l.12.25,0,0,.12.25,0,0c0,.08.08.16.13.24l0,.05.13.23,0,.05c0,.08.08.16.13.24l0,.05c0,.08.09.16.14.24l0,0,.15.25,0,0,.15.25,0,0c.06.09.11.18.17.26v0a14.19,14.19,0,0,0,1.43,1.87l0,0,.2.2,0,0,.19.18.05,0,.17.16.06.05.17.14.07.05a1.09,1.09,0,0,0,.17.13l.07.05.17.12.07,0,.17.11.07,0,.17.09.08,0,.17.08.07,0,.19.07.07,0,.19,0h.06l.22,0h0a3,3,0,0,0,.79,0h0l.24,0,.06,0,.2-.06.09,0,.18-.07.1,0,.17-.09.11-.06.16-.11.11-.07.17-.12.11-.1.16-.13.12-.11.16-.15.12-.13.15-.17.13-.14.15-.19.13-.15.15-.22a1.83,1.83,0,0,1,.13-.16c.05-.08.1-.16.16-.24l.12-.18c0-.09.1-.18.16-.27l.12-.19c0-.1.11-.2.17-.3l.11-.2.19-.35.09-.18c.09-.19.19-.38.28-.58.2-.43.39-.86.56-1.31s.37-1,.52-1.54q.15-.5.27-1a25.29,25.29,0,0,0,.64-3.78c.06-.69.1-1.38.12-2.08,0-.25,0-.5,0-.75,0-.66,0-1.31-.05-2,2.75-2,13.18-10.05,12.58-14ZM686.32,274.52l.08.35-.1,0Zm19.86,56.89v5.41h0s-.18,2.22-.59,5.29q-1.58-2-3.25-4.35l-.17-.24a37,37,0,0,0-.45-3.82ZM751.88,419l0,.05c.06.59.09.92.09.93Z"/><path class="cls-5" d="M779.35,395.22l6.14-9.66-17.81-11.84-8.39,12.54a15.77,15.77,0,0,1-4.35-3.45c-.27-.3-.53-.63-.78-1s-.33-.46-.49-.7-.48-.75-.7-1.15-.29-.54-.42-.83a18.36,18.36,0,0,1-1.21-3.36,48.21,48.21,0,0,1-1-5.06c-.05-.27-.09-.54-.13-.81l-.18-1.16c0-.25-.07-.49-.11-.73l-.06-.36c-.79-4.61-2.06-7.64-9.67-11.08-3-6.26-4.2-20.41-4.2-20.41h0v-5l9.25,4.74a.92.92,0,0,0,1.23-.37,1,1,0,0,0-.3-1.26l-8.31-5.51,1-1h0a13.14,13.14,0,0,0-.32-1.44c0-.09,0-.19-.08-.29a16.59,16.59,0,0,0-4.24-7.17l9.6-6.37a1,1,0,0,0,.29-1.26.91.91,0,0,0-1.22-.37l-11.51,5.9a15.44,15.44,0,0,0-6.28-1.83l-.82-15a.93.93,0,0,0-1.86,0l-.82,15a15.39,15.39,0,0,0-6.28,1.83l-11.51-5.9a.91.91,0,0,0-1.22.37,1,1,0,0,0,.29,1.26l9.6,6.37a16.83,16.83,0,0,0-4.64,8.9l.23.25.44.46-2.84,1.88c-.93-3.81-2.69-8.2-6-9.91-.23-5.06-.44-10.2-.44-11.94,0-3.8-5.28-21.67-5.65-24.05s1.17-4.47,1.76-8c.51-3-2.41-6.35-4.22-8.27l.31-6.18h3.84a1.84,1.84,0,0,0,1.83-1.86v-4h-4.64c3.82-1.49,3.22-4.75,2.15-6.18h-8.75a15.62,15.62,0,0,1-.62-2.42L680,250h0a4,4,0,0,0-.41,4.12,2.82,2.82,0,0,0,.43.63,3.55,3.55,0,0,0,.38.4l.21.17.36.27.1.06c.16.1.33.19.51.28h0l.56.24h-4.65v4a1.85,1.85,0,0,0,1.84,1.86h3.84l.24,4.9-2.43.64a1.42,1.42,0,0,0-1,1.72,1.4,1.4,0,0,0,1.4,1.06,1.41,1.41,0,0,0-1,1.42,1.39,1.39,0,0,0,1,1.3,1.42,1.42,0,0,0,.25,2.68,1.07,1.07,0,0,0,.41,2l1.21.11.92,3.89.48,9.7a2.48,2.48,0,0,0,1.3,2.07c0,1.85-.06,6.2.08,10.23v0c0,.8.06,1.58.11,2.33.18,2.93.52,5.35,1.16,5.95s1.37,6.13,1.93,12.44c-.21.25-.42.51-.62.77l-.06.07-.29.4-.08.1-.29.4-.05.08c-.33.46-.64.93-.95,1.42l0,0-.26.43-.09.14-.24.42-.09.16-.24.42-.08.15c-.25.46-.5.94-.73,1.42,0,.06-.07.13-.1.2s-.12.26-.19.39-.07.16-.11.25-.11.25-.17.38l-.12.26-.16.39-.11.27-.27.68-.12.31a3.62,3.62,0,0,0-.13.35l-.12.32-.12.35c0,.11-.07.22-.11.34l-.11.33c0,.13-.08.25-.11.37s-.07.21-.1.31l-.15.54-.09.33-.12.47c0,.1-.05.2-.07.29l-.09.4c0,.1,0,.2-.07.3s-.05.27-.08.41a2.5,2.5,0,0,0,0,.29c0,.15-.06.3-.08.46a1.7,1.7,0,0,0,0,.22c0,.23-.07.45-.1.67,0,.07,0,.13,0,.19l-.06.5c0,.08,0,.17,0,.25s0,.29,0,.43a2.11,2.11,0,0,1,0,.26c0,.15,0,.3,0,.45a1.85,1.85,0,0,1,0,.23c0,.19,0,.37,0,.56v.1c0,.23,0,.44,0,.66a1.21,1.21,0,0,0,0,.19c0,.15,0,.31,0,.47a1.64,1.64,0,0,1,0,.22c0,.15,0,.29,0,.43l0,.23.06.44,0,.19.12.62v0c0,.2.09.39.14.59a1.21,1.21,0,0,1,.05.18l.12.42c0,.07,0,.13.07.2s.09.26.13.39a1.59,1.59,0,0,1,.07.2l.18.42.06.14c.08.19.17.37.26.55a.93.93,0,0,0,0,.1c.08.14.15.29.24.43l.1.17c.07.11.14.23.22.34l.12.18.24.33.12.16.32.39.07.08q.19.23.42.45l.12.11.33.31.17.15.32.26.18.14c.12.09.24.18.37.26l.17.12.56.35-.18.22c-.91,1.33-1,3.76-.68,6.09,0,.27.07.55.11.82s.09.53.14.79a21.88,21.88,0,0,0,.87,3.3,21.41,21.41,0,0,0,1.37,2.66,6.82,6.82,0,0,1,.81,2.24c.05.33.08.65.1,1,.09,1.56-.09,3.17-.14,4.75V377a13.2,13.2,0,0,0,0,1.41,13.54,13.54,0,0,0,.55,2.75c.38,1.27.88,2.51,1.35,3.75l.2.54c.2.53.38,1.07.54,1.6a16.14,16.14,0,0,1,.55,2.5,21.9,21.9,0,0,1,.16,4.58,22.85,22.85,0,0,1-.42,3.17c-.63,3.15-2.51,5.89-3.42,8.91l-.06.21a11.29,11.29,0,0,0-.31,1.4l-.06.38q0,.39-.06.78a10,10,0,0,0,.08,1.78c.35,2.27,1.64,3.42,3.51,5.07a4.13,4.13,0,0,1,.74.84,4.92,4.92,0,0,1,.76,1.94,6.38,6.38,0,0,1,.1,1c0,.22,0,.44,0,.67s0,.22,0,.34a20,20,0,0,1-1.34,5.17,31.37,31.37,0,0,0-1.16,3.74c-.06.23-.12.47-.17.7l-.12.57c-.15.77-.28,1.52-.37,2.27,0,.27-.07.55-.1.82s-.07.78-.09,1.16v.09c0,.62-.06,1.23-.06,1.84h0c-.08,9.72,4,17.36,4.52,19.56,2.83,12.57-8,61.69-7.83,63.94a6.13,6.13,0,0,0,1.5,3c.41.53.84,1,1.17,1.46l.18.26.16.24h0a2.69,2.69,0,0,1,.16.29.2.2,0,0,1,0,.08,2.4,2.4,0,0,1,.11.23l0,.08h0a2.31,2.31,0,0,1,.1.28.36.36,0,0,0,0,.09l0,.16a.14.14,0,0,1,0,.06l0,.11s0,.1,0,.15a.31.31,0,0,0,0,.08.29.29,0,0,0,0,.09l0,.18,0,.15,0,.21s0,.1,0,.14v.07c0,.05,0,.11,0,.16v.21c0,.05,0,.11,0,.17v.87a.57.57,0,0,1,0,.13h0v.13s0,.11,0,.17v.08a.76.76,0,0,1,0,.15c0,.07,0,.14,0,.21s0,.09,0,.14,0,.13,0,.2v.14l0,.22,0,.09c0,.08,0,.16,0,.25a.59.59,0,0,0,0,.13l-.06.28v.06c-.07.35-.14.7-.22,1l0,.09a2.86,2.86,0,0,0-.07.28l0,.12a2.68,2.68,0,0,0-.07.27l0,.14-.06.26,0,.14c0,.09-.05.18-.07.27l0,.12-.09.3v.07l-.24.86,0,.1-.06.26,0,.14-.06.23,0,.14-.06.22,0,.15-.06.21,0,.14c0,.08,0,.16-.05.23l0,.11c0,.11,0,.22-.07.33h73a2.75,2.75,0,0,0,0-.34c0-.5-.06-1.5-.16-2.88l0-.38,0-.33,0-.39,0-.35,0-.45,0-.37c0-.16,0-.32,0-.48,0-.41-.07-.84-.11-1.28,0-.18,0-.37,0-.55s0-.6-.08-.92,0-.38-.05-.58c-.55-6.44-1.35-15.4-2.06-24.18l-.06-.71c-.13-1.64-.26-3.27-.38-4.87,0-.25,0-.49,0-.74-.16-2-.3-4-.42-5.84l0-.17c-.09-1.44-.18-2.83-.26-4.16,0-.24,0-.48,0-.72,0-.53-.06-1.06-.09-1.57v-.12c0-.5,0-1-.07-1.48,0-.73-.06-1.43-.09-2.1q0-.45,0-.87v-.05c0-.59,0-1.15,0-1.67,0-.27,0-.54,0-.79v-.37h0v-.16a1,1,0,0,1,0-.17v-.47c0-.06,0-.11,0-.17v-.14a.76.76,0,0,1,0-.15v-.1c0-.11,0-.22,0-.33v-.06c0-.1,0-.2,0-.3h0v-.05c0-.09,0-.17,0-.26v-.06a1.64,1.64,0,0,1,0-.23v-.06c0-.07,0-.14,0-.2v-.06a1.29,1.29,0,0,1,0-.19V475l0-.13v-.05c0-.05,0-.1,0-.14l0-.09v0l.06-.08,0,0a.46.46,0,0,1,.07-.07h0l.08-.07h0l.07,0,0,0,0,0,.1-.05h0l.09,0,.1,0h0l.21-.09.11-.05.19-.08.16-.07.2-.1a3.75,3.75,0,0,0,.63-.41l.1-.09c.9-.79,1.65-2.32,1.38-5.72h0a28.94,28.94,0,0,0-.59-3.85l-1.24-11.05h0l-2.47-21.93-1.26-11.27.38.25c.15.36.34.79.57,1.26h0l.12.25v0c0,.08.09.16.13.25v0l.13.24,0,0,.12.24,0,0c0,.08.08.16.13.24l0,.05.14.24,0,.05c.05.08.1.16.14.24l0,0c0,.08.1.16.14.24l0,.05.16.25,0,0,.16.26,0,0a14.24,14.24,0,0,0,1.42,1.88l0,0,.19.21,0,0,.18.18,0,0,.18.16.06,0,.17.15.06.05.17.13.07.05.17.11.07.05.17.1.08,0,.17.09.07,0,.18.08.07,0,.18.06.07,0,.2.05.06,0,.21,0h0a2.39,2.39,0,0,0,.8,0h0l.24-.05.07,0,.2-.06.09,0,.18-.08.1-.05.17-.08.1-.07.17-.1.11-.08a1.67,1.67,0,0,0,.16-.12l.12-.09.16-.14.11-.1a1.21,1.21,0,0,0,.16-.16l.12-.12.16-.17.12-.14.16-.19.12-.16.16-.21.12-.17.16-.23.12-.19a2.26,2.26,0,0,0,.16-.26l.12-.19c.06-.1.12-.2.17-.3a2,2,0,0,0,.11-.2c.07-.12.13-.24.19-.36l.1-.18.28-.57c.2-.43.38-.87.55-1.31s.37-1,.53-1.55c.09-.32.19-.65.27-1a26.38,26.38,0,0,0,.63-3.78c.07-.69.11-1.38.13-2.07,0-.26,0-.51,0-.76,0-.65,0-1.3,0-1.95,2.75-2,13.17-10.05,12.58-14ZM690.76,273.89c.06.21.09.34.09.34l-.1,0Zm19.87,56.89v5.41h0s-.19,2.22-.59,5.29c-1-1.33-2.14-2.77-3.25-4.35l-.18-.25a35.38,35.38,0,0,0-.44-3.82Zm45.7,87.62v0c.06.59.1.93.1.94Z"/><path class="cls-6" d="M935.21,484.42H923.55V448.37a2.77,2.77,0,0,0-2.6-2.91h-3.29V315.21a2.83,2.83,0,0,0-2.66-3h-7.52v-26a3,3,0,0,0-2.76-3.1h-5.15V273.5a21.82,21.82,0,0,0-3.11-11.33V257.7A17.8,17.8,0,0,0,893,247.08v-5.63a13.82,13.82,0,0,0-2.17-7.52v-4.49c0-5.07-3.24-9.29-7.53-10.22l-.87-36.66a1,1,0,0,0-.92-.95,1,1,0,0,0-.92.95l-.86,36.66c-4.29.93-7.53,5.15-7.53,10.22v4.49a13.82,13.82,0,0,0-2.18,7.52v5.63a17.86,17.86,0,0,0-3.41,10.62v4.47a21.73,21.73,0,0,0-3.12,11.33v9.62h-5.14a3,3,0,0,0-2.77,3.1v26h-7.31a2.83,2.83,0,0,0-2.66,3V445.46h-3.29a2.76,2.76,0,0,0-2.6,2.91v36.05H827.89a3.2,3.2,0,0,0-3,3.36v50.16H938.22V487.78A3.2,3.2,0,0,0,935.21,484.42Z"/></g><g id="NUAGE"><path class="cls-7" d="M1040,456.76c.82-2.05-10.41,13.47-10.41,11.24,0-13.24-13.3-21.92-32.43-21.92a46.07,46.07,0,0,0-19,3.95c-6.35-5.27-15.91-8.63-26.6-8.63-15.87,0-29.21,7.39-33.31,17.47A51,51,0,0,0,896,454c-17.82,0-32.78,8.36-37.25,19.71-6.6-4.35-15.5-7-25.34-7-16.6,0-30.62,7.62-35.18,18.09-6.72-4.78-17.83-7.91-30.42-7.91-20.47,0-37.06,8.25-37.17,18.44-5.55-2.42-13.49-3.64-22.07-3a48.44,48.44,0,0,0-17.65,4.42c-1.63-7.4-10.83-13.07-22-13.07-10.29,0-18.93,4.85-21.47,11.42a20.09,20.09,0,0,0-11.62-3.43c-8.94,0-16.19,5-16.19,11.21a6.44,6.44,0,0,0,.13.88H453.91c-2.21,0-4,1.24-4,2.76v.72c0,1.52,1.78,2.76,4,2.76h94a5.8,5.8,0,0,0-1.73,4,5.48,5.48,0,0,0,1,3H506.61c-2.58,0-4.66,1.44-4.66,3.22v.23c-7.32,8.82,2,17.54,4.6,17.54h260c51.37.63,47.3,1.6,17,.86L913,537.94c-.24.39-3.83-15.88-3.83-15.43L913,537.94c0,1.78,124.44.25,127,.25"/></g></svg>