<svg xmlns="http://www.w3.org/2000/svg" xmlns:xlink="http://www.w3.org/1999/xlink" viewBox="0 0 1000 450"><defs><style>.cls-1{fill:url(#New_Gradient_Swatch_1);}.cls-2{fill:url(#linear-gradient);}.cls-3{fill:url(#New_Gradient_Swatch_3);}.cls-4{fill:url(#New_Gradient_Swatch_3-2);}.cls-5{fill:url(#linear-gradient-2);}.cls-6{fill:url(#linear-gradient-3);}.cls-7{fill:url(#linear-gradient-4);}</style><linearGradient id="New_Gradient_Swatch_1" x1="482.9" y1="369.63" x2="482.9" gradientTransform="scale(1.04 1.22)" gradientUnits="userSpaceOnUse"><stop offset="0" stop-color="#dc6660"/><stop offset="0.05" stop-color="#cf5f66"/><stop offset="0.29" stop-color="#9b427f"/><stop offset="0.51" stop-color="#722c92"/><stop offset="0.71" stop-color="#541ba0"/><stop offset="0.88" stop-color="#4212a9"/><stop offset="1" stop-color="#3c0eac"/></linearGradient><linearGradient id="linear-gradient" x1="720.78" y1="450" x2="720.78" y2="98.29" gradientUnits="userSpaceOnUse"><stop offset="0" stop-color="#dc6660"/><stop offset="0.17" stop-color="#9a2d91"/><stop offset="0.27" stop-color="#760eac"/><stop offset="0.32" stop-color="#5f0b8b"/><stop offset="0.38" stop-color="#460866"/><stop offset="0.45" stop-color="#300646"/><stop offset="0.52" stop-color="#1f042d"/><stop offset="0.6" stop-color="#110219"/><stop offset="0.69" stop-color="#07010b"/><stop offset="0.81" stop-color="#020002"/><stop offset="1"/></linearGradient><linearGradient id="New_Gradient_Swatch_3" x1="837.11" y1="452.31" x2="837.11" y2="95.98" gradientUnits="userSpaceOnUse"><stop offset="0" stop-color="#dc6660"/><stop offset="0.27" stop-color="#d86ca6"/><stop offset="0.33" stop-color="#d06fa4"/><stop offset="0.78" stop-color="#928594"/><stop offset="1" stop-color="#7a8e8e"/></linearGradient><linearGradient id="New_Gradient_Swatch_3-2" x1="687.02" y1="450.38" x2="687.02" y2="159.99" xlink:href="#New_Gradient_Swatch_3"/><linearGradient id="linear-gradient-2" x1="691.47" y1="449.75" x2="691.47" y2="159.35" gradientUnits="userSpaceOnUse"><stop offset="0" stop-color="#dc6660"/><stop offset="0" stop-color="#d9645f"/><stop offset="0.06" stop-color="#ad5055"/><stop offset="0.12" stop-color="#863d4d"/><stop offset="0.19" stop-color="#642c45"/><stop offset="0.26" stop-color="#471f3e"/><stop offset="0.34" stop-color="#2f1339"/><stop offset="0.43" stop-color="#1d0b35"/><stop offset="0.54" stop-color="#100532"/><stop offset="0.68" stop-color="#090130"/><stop offset="1" stop-color="#070030"/></linearGradient><linearGradient id="linear-gradient-3" x1="841.55" y1="449.75" x2="841.55" y2="93.41" gradientUnits="userSpaceOnUse"><stop offset="0" stop-color="#dc6660"/><stop offset="0.06" stop-color="#b15157"/><stop offset="0.12" stop-color="#893e50"/><stop offset="0.19" stop-color="#662d49"/><stop offset="0.27" stop-color="#481f43"/><stop offset="0.35" stop-color="#30143e"/><stop offset="0.44" stop-color="#1e0b3a"/><stop offset="0.56" stop-color="#110538"/><stop offset="0.7" stop-color="#090136"/><stop offset="1" stop-color="#070036"/></linearGradient><linearGradient id="linear-gradient-4" x1="713.28" y1="450.8" x2="713.28" y2="368.57" gradientUnits="userSpaceOnUse"><stop offset="0" stop-color="#dc6660"/><stop offset="0.1" stop-color="#da6666"/><stop offset="0.23" stop-color="#d56877"/><stop offset="0.39" stop-color="#cc6a92"/><stop offset="0.5" stop-color="#c46cac"/><stop offset="0.63" stop-color="#c77ab3"/><stop offset="0.84" stop-color="#cb8cbb"/><stop offset="1" stop-color="#cc92be"/></linearGradient></defs><g id="FOND"><rect class="cls-1" width="1000" height="450"/></g><g id="BATIMENT"><polyline class="cls-2" points="1000 450 1000 98.29 971.61 98.29 971.61 156.2 935.55 156.2 935.55 174.02 912.37 174.02 912.37 294.8 901.37 296.15 899.49 116.11 847.98 116 852.75 382.85 842.83 382.85 842.83 169.57 811.92 169.57 811.92 318.19 796.47 316.81 796.47 169.57 762.99 142.84 762.99 160.66 747.53 160.66 749.57 268.43 741.91 267.97 741.91 347.76 724.36 347.76 724.36 211.12 711.48 210.81 711.48 134.69 670.27 135.91 670.27 277.46 632.01 278.67 633.83 198.89 602.73 256.24 601.13 306.18 565.01 307.57 564.24 341.06 545.31 341.05 544.8 367.02 533.36 366.75 534.14 308.27 483.11 338.76 482.38 401.13 442.08 401.65 441.56 449.52"/></g><g id="MONUMENT"><path class="cls-3" d="M890.77,398.79H879.1V362.74a2.77,2.77,0,0,0-2.6-2.91h-3.29V229.58a2.83,2.83,0,0,0-2.66-3H863v-26a2.94,2.94,0,0,0-2.77-3.09h-5.14v-9.63A21.73,21.73,0,0,0,852,176.54v-4.47a17.83,17.83,0,0,0-3.41-10.61v-5.64a13.82,13.82,0,0,0-2.18-7.52v-4.48c0-5.07-3.24-9.3-7.53-10.23L838,96.93a1,1,0,0,0-.92-1,1,1,0,0,0-.92,1l-.87,36.66c-4.29.93-7.53,5.16-7.53,10.23v4.48a13.82,13.82,0,0,0-2.17,7.52v5.64a17.77,17.77,0,0,0-3.42,10.61v4.47a21.82,21.82,0,0,0-3.11,11.33v9.63h-5.15a2.94,2.94,0,0,0-2.76,3.09v26h-7.32a2.83,2.83,0,0,0-2.66,3V359.83h-3.29a2.78,2.78,0,0,0-2.6,2.91v36.05H783.45a3.2,3.2,0,0,0-3,3.36v50.16H893.77V402.15A3.2,3.2,0,0,0,890.77,398.79Z"/><path class="cls-4" d="M734.9,307.66,741,298l-17.81-11.85-8.39,12.54a15.72,15.72,0,0,1-4.35-3.45c-.26-.3-.52-.62-.77-1s-.34-.46-.5-.71-.47-.74-.69-1.15-.29-.54-.43-.83a18.25,18.25,0,0,1-1.21-3.35,51.5,51.5,0,0,1-1-5.06c0-.28-.09-.55-.13-.81s-.11-.79-.17-1.16l-.12-.74-.06-.36c-.79-4.61-2.06-7.63-9.67-11.08-3-6.26-4.19-20.41-4.19-20.41h0v-5l9.24,4.75A.94.94,0,0,0,702,248a1,1,0,0,0-.3-1.27l-8.31-5.51,1-1h0a10.81,10.81,0,0,0-.32-1.43c0-.1,0-.2-.08-.3a16.64,16.64,0,0,0-4.24-7.17l9.6-6.36a1,1,0,0,0,.3-1.27.94.94,0,0,0-1.23-.37l-11.51,5.91a15.55,15.55,0,0,0-6.28-1.84l-.82-15a.93.93,0,0,0-1.86,0l-.82,15a15.6,15.6,0,0,0-6.28,1.84l-11.5-5.91a.94.94,0,0,0-1.23.37,1,1,0,0,0,.3,1.27l9.59,6.36a16.83,16.83,0,0,0-4.64,8.9l.24.25.44.46-2.85,1.89c-.92-3.82-2.69-8.2-6-9.91-.23-5.07-.44-10.21-.44-11.95,0-3.8-5.29-21.67-5.66-24.05s1.18-4.47,1.77-8c.5-3-2.42-6.35-4.22-8.27l.3-6.17h3.84a1.85,1.85,0,0,0,1.84-1.86v-4h-4.65c3.82-1.49,3.23-4.74,2.15-6.17h-8.75a18.27,18.27,0,0,1-.62-2.42l-5.21,2.42h0a4,4,0,0,0-.41,4.11,4.22,4.22,0,0,0,.43.64c.12.13.24.26.38.39l.21.18c.12.09.24.18.37.26l.1.06a4.88,4.88,0,0,0,.51.29h0a4.72,4.72,0,0,0,.56.24H633v4a1.86,1.86,0,0,0,1.84,1.86h3.84l.24,4.9-2.43.63a1.42,1.42,0,0,0-1,1.73,1.39,1.39,0,0,0,1.39,1.06,1.41,1.41,0,0,0-1,1.42,1.43,1.43,0,0,0,1,1.3,1.4,1.4,0,0,0-.84,1.17,1.42,1.42,0,0,0,1.08,1.5,1.08,1.08,0,0,0,.41,2l1.21.11.92,3.89.48,9.7a2.47,2.47,0,0,0,1.3,2.06c0,1.85,0,6.2.09,10.24v0c0,.8.06,1.58.11,2.33.18,2.94.53,5.35,1.16,6s1.38,6.12,1.93,12.43c-.21.25-.42.51-.62.78l-.05.06-.3.4-.07.1-.3.41,0,.07c-.32.46-.64.94-.94,1.43l0,0-.27.43a1.09,1.09,0,0,1-.08.15l-.24.41-.1.17-.24.42s-.05.09-.07.14c-.26.46-.5.94-.74,1.42l-.09.2c-.07.13-.13.26-.19.4a2.56,2.56,0,0,0-.11.24l-.18.39c0,.08-.07.17-.11.26s-.11.25-.17.38-.07.18-.11.27l-.27.68-.12.31c0,.12-.08.23-.13.35s-.08.22-.11.32l-.12.35-.12.34c0,.11-.07.22-.11.34s-.07.24-.11.36l-.09.32c-.06.18-.11.35-.16.53l-.09.34-.12.46c0,.1,0,.2-.07.3l-.09.4-.06.3c0,.13-.06.27-.08.4l-.06.29c0,.15,0,.31-.08.46s0,.15,0,.22c0,.23-.07.45-.09.68l0,.19c0,.16,0,.33,0,.49l0,.25,0,.44a2.11,2.11,0,0,0,0,.26c0,.14,0,.29,0,.44a1.77,1.77,0,0,0,0,.23c0,.19,0,.37,0,.56v.11c0,.22,0,.44,0,.66,0,.06,0,.12,0,.18l0,.47a1.79,1.79,0,0,0,0,.23c0,.14,0,.28,0,.43s0,.15,0,.22,0,.3.07.45l0,.18c0,.21.07.42.11.63h0a5.63,5.63,0,0,0,.14.59,1.21,1.21,0,0,0,0,.18,3.31,3.31,0,0,0,.12.42l.06.21c0,.13.09.26.14.39a1.46,1.46,0,0,0,.07.19c.05.14.11.29.17.43l.06.13c.08.19.17.37.26.55l.05.1.24.43.1.17.22.35.12.17.24.34.12.16c.11.13.21.26.32.38l.07.09.42.44.12.12.33.31.17.14.32.27a1.33,1.33,0,0,1,.19.14l.36.25.17.12.56.35a1.84,1.84,0,0,0-.17.22c-.92,1.33-1,3.76-.69,6.09,0,.28.07.55.12.82s.08.54.13.8a21.58,21.58,0,0,0,.88,3.29,20.09,20.09,0,0,0,1.36,2.66,7.13,7.13,0,0,1,.82,2.25c0,.32.07.65.09,1,.09,1.55-.09,3.16-.13,4.74,0,.16,0,.32,0,.48a13.38,13.38,0,0,0,.05,1.42,13.66,13.66,0,0,0,.54,2.75c.38,1.26.88,2.5,1.35,3.75.07.18.14.35.2.53.2.53.38,1.07.55,1.61a18.17,18.17,0,0,1,.55,2.5,22.58,22.58,0,0,1,.15,4.58,25,25,0,0,1-.41,3.17c-.64,3.15-2.52,5.88-3.43,8.9l-.06.22a12.73,12.73,0,0,0-.31,1.39c0,.13,0,.26-.05.38s0,.52-.06.78a9.06,9.06,0,0,0,.08,1.78c.34,2.28,1.63,3.42,3.51,5.07a4.9,4.9,0,0,1,.74.85,5,5,0,0,1,.76,1.94,7.77,7.77,0,0,1,.1,1c0,.22,0,.45,0,.67s0,.23,0,.34a19.13,19.13,0,0,1-1.34,5.17,31.37,31.37,0,0,0-1.16,3.74c-.06.24-.11.47-.17.71l-.12.57c-.15.76-.27,1.52-.37,2.26l-.09.82c0,.39-.07.78-.1,1.16v.09c0,.62-.06,1.24-.07,1.84h0c-.07,9.72,4,17.36,4.52,19.57,2.83,12.56-8,61.69-7.83,63.94a6.09,6.09,0,0,0,1.51,3c.41.53.83,1,1.16,1.47.06.08.13.17.18.25s.11.16.16.24h0l.16.29,0,.09c0,.07.07.14.1.22l0,.09h0c0,.09.07.18.11.28l0,.1.05.15a.14.14,0,0,0,0,.06l0,.11,0,.15s0,.05,0,.08,0,.06,0,.09a1.16,1.16,0,0,0,0,.18.77.77,0,0,0,0,.15l0,.22s0,.09,0,.14v.06s0,.11,0,.17a.45.45,0,0,0,0,.11v.09a1.09,1.09,0,0,1,0,.18v.54a.31.31,0,0,0,0,.1v.35h0a.57.57,0,0,0,0,.13,1,1,0,0,0,0,.17v.09s0,.1,0,.15a1.36,1.36,0,0,1,0,.2c0,.05,0,.1,0,.14l0,.2v.14l0,.22,0,.09a2.17,2.17,0,0,1,0,.25.68.68,0,0,1,0,.14c0,.09,0,.18-.05.27v.06c-.07.35-.15.7-.23,1.05l0,.09c0,.1,0,.19-.07.29l0,.12a2.68,2.68,0,0,1-.07.27l0,.13c0,.09-.05.18-.07.27l0,.13a2.68,2.68,0,0,1-.07.27l0,.12c0,.1,0,.21-.08.31l0,.06c-.08.29-.16.58-.23.86l0,.11a2.33,2.33,0,0,0-.07.25l0,.14-.06.23,0,.15c0,.07,0,.14-.05.21s0,.1,0,.15,0,.14-.05.22l0,.13-.06.24s0,.07,0,.1-.05.22-.07.33h73a2.16,2.16,0,0,0,0-.33c0-.51-.07-1.5-.17-2.89l0-.37c0-.11,0-.22,0-.33l0-.4,0-.35c0-.14,0-.29,0-.44l0-.38c0-.15,0-.31,0-.48,0-.41-.07-.84-.1-1.28,0-.18,0-.36,0-.55s-.05-.6-.08-.91,0-.39,0-.58c-.55-6.45-1.36-15.41-2.07-24.19,0-.23,0-.47,0-.7-.13-1.64-.26-3.27-.38-4.88l-.06-.74c-.15-2-.29-4-.42-5.84v-.17c-.1-1.44-.19-2.83-.26-4.15,0-.24,0-.48-.05-.72,0-.54,0-1.06-.08-1.58V398c0-.51-.05-1-.07-1.49,0-.73-.06-1.43-.08-2.1l0-.87v-.05c0-.59,0-1.15,0-1.67v-1.15h0V390s0-.1,0-.15v-.3a.92.92,0,0,0,0-.16v-.1c0-.11,0-.22,0-.32v-.07c0-.1,0-.2,0-.29v-.06a2.46,2.46,0,0,0,0-.26v-.07c0-.08,0-.15,0-.23V388l0-.2v-.05l0-.19v-.05l0-.14v0h0s0-.1,0-.14a.31.31,0,0,1,.05-.1v0l.07-.08h0l.08-.08h0l.09-.06h0l.06,0,0,0h0l.11-.06h0l.08,0,.1,0h0l.22-.1.11,0,.18-.08.16-.07.21-.11a3.69,3.69,0,0,0,.62-.41l.1-.09c.9-.79,1.65-2.31,1.38-5.71h0a30.45,30.45,0,0,0-.58-3.85L715.73,365h0l-2.47-21.93L712,331.82l.38.25c.16.37.35.8.57,1.26h0c0,.08.08.17.13.26v0l.12.25,0,0,.12.25,0,0c0,.08.08.16.13.24l0,0,.13.24,0,.05c0,.08.08.16.13.24l0,.05c0,.08.09.16.14.24l0,0,.15.25,0,0,.15.25,0,0,.17.26v0a13.66,13.66,0,0,0,1.43,1.88l0,0,.2.2,0,0,.19.18.05.05.17.16.06.05.17.14.07.05a1.09,1.09,0,0,0,.17.13l.07.05.17.12.07,0a1,1,0,0,0,.17.1l.07.05.17.09.08,0,.17.08.07,0,.19.06.07,0,.19,0h.06l.22,0h0a3,3,0,0,0,.79,0h0l.24-.05.06,0a.66.66,0,0,0,.2-.06l.09,0,.18-.07.1,0,.17-.09.11-.06.16-.11.11-.07.17-.12.11-.1.16-.13.12-.11.16-.15.12-.13.15-.17.13-.14.15-.19.13-.15.15-.22.13-.17.16-.23.12-.18c0-.09.1-.18.16-.27l.12-.19c0-.1.11-.2.17-.3a2,2,0,0,1,.11-.2l.19-.35.09-.18c.09-.19.19-.38.28-.58.2-.43.39-.86.56-1.31s.37-1,.52-1.54q.15-.5.27-1a25.29,25.29,0,0,0,.64-3.78c.06-.69.1-1.39.12-2.08,0-.25,0-.5,0-.75,0-.66,0-1.31-.05-2,2.75-2,13.18-10.05,12.58-14ZM646.32,186.33c0,.21.08.34.08.35l-.1,0Zm19.86,56.89v5.41h0s-.18,2.22-.59,5.29q-1.58-2-3.25-4.35l-.17-.24a37,37,0,0,0-.45-3.82Zm45.7,87.62,0,.05c.06.58.09.92.09.93Z"/><path class="cls-5" d="M739.35,307l6.14-9.65-17.81-11.84-8.39,12.54a15.77,15.77,0,0,1-4.35-3.45c-.27-.31-.53-.63-.78-1s-.33-.46-.49-.7-.48-.75-.7-1.15-.29-.55-.42-.83a18.36,18.36,0,0,1-1.21-3.36,48.21,48.21,0,0,1-1-5.06c-.05-.27-.09-.54-.13-.81s-.12-.78-.18-1.16-.07-.49-.11-.74l-.06-.35c-.79-4.61-2.06-7.64-9.67-11.08-3-6.26-4.2-20.41-4.2-20.41h0v-5l9.25,4.74a.92.92,0,0,0,1.23-.37,1,1,0,0,0-.3-1.26l-8.31-5.51,1-1h0a13.14,13.14,0,0,0-.32-1.44c0-.09,0-.19-.08-.29a16.53,16.53,0,0,0-4.24-7.17l9.6-6.37a1,1,0,0,0,.29-1.26.91.91,0,0,0-1.22-.37l-11.51,5.9a15.44,15.44,0,0,0-6.28-1.83l-.82-15a.93.93,0,0,0-1.86,0l-.82,15a15.39,15.39,0,0,0-6.28,1.83l-11.51-5.9a.91.91,0,0,0-1.22.37,1,1,0,0,0,.29,1.26l9.6,6.37a16.83,16.83,0,0,0-4.64,8.9l.23.24.44.47-2.84,1.88c-.93-3.81-2.69-8.2-6-9.91-.23-5.06-.44-10.2-.44-11.94,0-3.8-5.28-21.67-5.65-24.05s1.17-4.47,1.76-8c.51-3-2.41-6.35-4.22-8.27l.31-6.18h3.84A1.84,1.84,0,0,0,657,172v-4h-4.64c3.82-1.49,3.22-4.75,2.15-6.18h-8.75a15.62,15.62,0,0,1-.62-2.42L640,161.77h0a4,4,0,0,0-.41,4.12,2.82,2.82,0,0,0,.43.63,3.55,3.55,0,0,0,.38.4l.21.17.36.27.1.06c.16.1.33.19.51.28h0a5.87,5.87,0,0,0,.56.25h-4.65v4a1.85,1.85,0,0,0,1.84,1.86h3.84l.24,4.9-2.43.64a1.42,1.42,0,0,0-1,1.72,1.4,1.4,0,0,0,1.4,1.06,1.41,1.41,0,0,0-1,1.42,1.39,1.39,0,0,0,1,1.3,1.42,1.42,0,0,0,.25,2.68,1.06,1.06,0,0,0-.56.84,1.07,1.07,0,0,0,1,1.17l1.21.11.92,3.89.48,9.7a2.45,2.45,0,0,0,1.3,2.06c0,1.86-.06,6.2.08,10.24v0c0,.8.06,1.58.11,2.33.18,2.93.52,5.34,1.16,6s1.37,6.13,1.93,12.44c-.21.25-.42.51-.62.77l-.06.07-.29.4-.08.1-.29.4-.05.08c-.33.46-.64.93-.95,1.42l0,0-.26.43-.09.14-.24.42-.09.16-.24.42c0,.05,0,.1-.08.14-.25.47-.5.94-.73,1.43l-.1.19c-.06.14-.12.27-.19.4a2.56,2.56,0,0,1-.11.24l-.17.39-.12.26-.16.39-.11.27-.27.68-.12.31a3.62,3.62,0,0,0-.13.35l-.12.32-.12.35-.11.33c0,.12-.07.23-.11.34s-.08.25-.11.37-.07.21-.1.31l-.15.54-.09.33-.12.47c0,.1-.05.19-.07.29l-.09.4c0,.1,0,.2-.07.3s-.05.27-.08.41a2.74,2.74,0,0,0,0,.28c0,.16-.06.31-.08.46a2.23,2.23,0,0,0,0,.23c0,.22-.07.45-.1.67,0,.06,0,.13,0,.19l-.06.5c0,.08,0,.16,0,.25s0,.29,0,.43a2.11,2.11,0,0,1,0,.26c0,.15,0,.3,0,.44a1.93,1.93,0,0,1,0,.24c0,.18,0,.37,0,.56v.1c0,.22,0,.44,0,.66a1.28,1.28,0,0,0,0,.19c0,.15,0,.31,0,.47a1.64,1.64,0,0,1,0,.22c0,.15,0,.29,0,.43l0,.23.06.44,0,.19.12.62h0c0,.2.09.4.14.6a1.21,1.21,0,0,1,.05.18l.12.42c0,.06,0,.13.07.2s.09.26.13.39a1.59,1.59,0,0,1,.07.2l.18.42.06.14c.08.18.17.37.26.55a.93.93,0,0,0,0,.1c.08.14.15.28.24.43l.1.17c.07.11.14.23.22.34l.12.18.24.33.12.16.32.39.07.08q.19.23.42.45l.12.11.33.31.17.15.32.26.18.14c.12.09.24.18.37.26l.17.12.56.35-.18.22c-.91,1.33-1,3.76-.68,6.09,0,.27.07.55.11.82s.09.53.14.79a14.88,14.88,0,0,0,2.24,6,6.82,6.82,0,0,1,.81,2.24c.05.33.08.65.1,1,.09,1.56-.09,3.17-.14,4.75v.48a13.2,13.2,0,0,0,0,1.41,13.54,13.54,0,0,0,.55,2.75c.38,1.27.88,2.51,1.35,3.75l.2.54c.2.53.38,1.06.54,1.6a15.89,15.89,0,0,1,.55,2.5,21.9,21.9,0,0,1,.16,4.58,22.85,22.85,0,0,1-.42,3.17c-.63,3.15-2.51,5.89-3.42,8.91l-.06.21a10.91,10.91,0,0,0-.31,1.4l-.06.38q0,.39-.06.78a10,10,0,0,0,.08,1.78c.35,2.27,1.64,3.42,3.51,5.07a4.13,4.13,0,0,1,.74.84,4.87,4.87,0,0,1,.76,1.94,6.38,6.38,0,0,1,.1,1c0,.22,0,.44,0,.67s0,.22,0,.34a19.92,19.92,0,0,1-1.34,5.16,31.51,31.51,0,0,0-1.16,3.75c-.06.23-.12.47-.17.7l-.12.57c-.15.77-.28,1.52-.37,2.27,0,.27-.07.54-.1.82s-.07.77-.09,1.16v.09c0,.62-.06,1.23-.06,1.84h0c-.08,9.72,4,17.36,4.52,19.56,2.83,12.57-8,61.69-7.83,63.94a6.13,6.13,0,0,0,1.5,3c.41.53.84,1,1.17,1.46l.18.26.16.24h0c.06.09.11.19.16.28a.36.36,0,0,1,0,.09c0,.08.08.15.11.22a.36.36,0,0,0,0,.09h0c0,.09.07.18.1.27a.3.3,0,0,0,0,.1c0,.05,0,.1,0,.16a.14.14,0,0,1,0,.06l0,.11c0,.05,0,.1,0,.15a.19.19,0,0,0,0,.07.36.36,0,0,0,0,.1l0,.18,0,.15,0,.21c0,.05,0,.09,0,.14v.05h0c0,.06,0,.12,0,.17v.21c0,.05,0,.11,0,.17v.87a.62.62,0,0,1,0,.13h0v.13c0,.05,0,.11,0,.17v.08a.76.76,0,0,1,0,.15c0,.07,0,.14,0,.21s0,.09,0,.14,0,.13,0,.2v.14l0,.21,0,.09c0,.09,0,.17,0,.26a.59.59,0,0,0,0,.13l-.06.28v.06c-.07.35-.14.7-.22,1.05l0,.09a2.86,2.86,0,0,0-.07.28l0,.12a2.68,2.68,0,0,0-.07.27l0,.14-.06.26,0,.14c0,.09-.05.18-.07.27l0,.12-.09.3v.07l-.24.86,0,.1-.06.26,0,.14-.06.22,0,.15-.06.22,0,.14-.06.22,0,.13c0,.09,0,.16-.05.24l0,.1a3.4,3.4,0,0,1-.07.34h73a2.75,2.75,0,0,0,0-.34c0-.5-.06-1.5-.16-2.88l0-.38,0-.33,0-.39,0-.36,0-.44,0-.37c0-.16,0-.32,0-.48,0-.41-.07-.84-.11-1.28,0-.18,0-.37,0-.55s0-.61-.08-.92,0-.38-.05-.58c-.55-6.44-1.35-15.4-2.06-24.18l-.06-.71c-.13-1.64-.26-3.27-.38-4.87,0-.25,0-.5,0-.74-.16-2-.3-4-.42-5.84l0-.18c-.09-1.43-.18-2.82-.26-4.15,0-.24,0-.48,0-.72,0-.53-.06-1.06-.09-1.57v-.12c0-.5,0-1-.07-1.48,0-.73-.06-1.44-.09-2.1q0-.45,0-.87v-.05c0-.59,0-1.15,0-1.67,0-.28,0-.54,0-.79V390h0v-.16a.91.91,0,0,1,0-.17v-.47c0-.06,0-.11,0-.17v-.14a.92.92,0,0,1,0-.16v-.09c0-.12,0-.22,0-.33v-.06c0-.11,0-.2,0-.3v-.06c0-.09,0-.17,0-.26v-.06a1.64,1.64,0,0,1,0-.23v-.06c0-.07,0-.14,0-.21v-.05a1.06,1.06,0,0,1,0-.19v-.05l0-.13v-.05c0-.05,0-.1,0-.14s0-.07,0-.1h0l.06-.08,0,0a.46.46,0,0,1,.07-.07h0l.08-.07h0l.07,0,0,0,0,0,.1-.05h0l.09,0,.1-.05h0l.21-.09.11-.05.19-.08.16-.07.2-.1a4.5,4.5,0,0,0,.63-.41l.1-.09c.9-.79,1.65-2.32,1.38-5.72h0a28.94,28.94,0,0,0-.59-3.85l-1.24-11.05h0l-2.47-21.94-1.26-11.26.38.24c.15.37.34.8.57,1.27h0l.12.26v0l.13.24v0l.13.24,0,0,.12.24,0,0c0,.08.08.16.13.24l0,.05.14.24,0,.05c.05.08.1.16.14.24l0,0c0,.08.1.16.14.24l0,.05.16.25,0,0,.16.27,0,0a14.24,14.24,0,0,0,1.42,1.88l0,0,.19.21,0,0,.18.18,0,0,.18.16.06,0,.17.15.06.05a1.09,1.09,0,0,1,.17.13l.07,0,.17.11.07.05.17.1.08,0,.17.09.07,0,.18.08.07,0,.18.07.07,0,.2.05.06,0,.21,0h0a2.39,2.39,0,0,0,.8,0h0l.24-.05.07,0,.2-.06.09,0,.18-.08.1-.05.17-.08.1-.07.17-.1.11-.08.16-.12.12-.09.16-.14.11-.1a1.21,1.21,0,0,0,.16-.16l.12-.12.16-.17.12-.14.16-.19.12-.16.16-.21.12-.17.16-.24.12-.18a2.26,2.26,0,0,0,.16-.26l.12-.2a2.75,2.75,0,0,0,.17-.29,2,2,0,0,0,.11-.2c.07-.12.13-.24.19-.36a1.62,1.62,0,0,1,.1-.18l.28-.57c.2-.43.38-.87.55-1.31s.37-1,.53-1.55c.09-.32.19-.66.27-1a26.38,26.38,0,0,0,.63-3.78c.07-.69.11-1.38.13-2.08,0-.25,0-.5,0-.75,0-.65,0-1.3,0-2,2.75-2,13.17-10,12.58-14ZM650.76,185.7c.06.21.09.34.09.34l-.1,0Zm19.87,56.89V248h0s-.19,2.22-.59,5.29c-1-1.33-2.14-2.78-3.25-4.35l-.18-.25a35.1,35.1,0,0,0-.44-3.82Zm45.7,87.62v0c.06.59.1.93.1.94Z"/><path class="cls-6" d="M895.21,396.23H883.55V360.18a2.77,2.77,0,0,0-2.6-2.91h-3.29V227a2.83,2.83,0,0,0-2.66-3h-7.52V198a3,3,0,0,0-2.76-3.09h-5.15v-9.62A21.82,21.82,0,0,0,856.46,174v-4.47A17.78,17.78,0,0,0,853,158.89v-5.63a13.79,13.79,0,0,0-2.17-7.52v-4.49c0-5.07-3.24-9.29-7.53-10.22l-.87-36.66a1,1,0,0,0-.92-1,1,1,0,0,0-.92,1L839.77,131c-4.29.93-7.53,5.15-7.53,10.22v4.49a13.8,13.8,0,0,0-2.18,7.52v5.63a17.84,17.84,0,0,0-3.41,10.62V174a21.73,21.73,0,0,0-3.12,11.33v9.62h-5.14a3,3,0,0,0-2.77,3.09v26h-7.31a2.83,2.83,0,0,0-2.66,3V357.27h-3.29a2.76,2.76,0,0,0-2.6,2.91v36.05H787.89a3.19,3.19,0,0,0-3,3.36v50.16H898.22V399.59A3.2,3.2,0,0,0,895.21,396.23Z"/></g><g id="NUAGE"><path class="cls-7" d="M1000,384.45c.82-2.05,3.11,12.95,3.11,10.72,0-13.24-13.29-21.92-32.42-21.92a46.07,46.07,0,0,0-19,3.95c-6.35-5.27-15.91-8.63-26.6-8.63-15.87,0-29.21,7.4-33.31,17.47a51,51,0,0,0-22.24-4.89c-17.82,0-32.78,8.36-37.25,19.71-6.6-4.35-15.51-7-25.34-7-16.6,0-30.62,7.63-35.18,18.09-6.72-4.77-17.83-7.9-30.42-7.9-20.47,0-37.06,8.24-37.18,18.43-5.55-2.42-13.48-3.64-22.06-3a48.39,48.39,0,0,0-17.65,4.42c-1.63-7.4-10.83-13.07-22-13.07-10.29,0-18.93,4.85-21.47,11.42a20.09,20.09,0,0,0-11.62-3.43c-8.94,0-16.19,5-16.19,11.21a6.21,6.21,0,0,0,.13.88H427.44c-2.21,0-4,1.24-4,2.76v.72c0,1.52,1.78,2.76,4,2.76h94a5.81,5.81,0,0,0-1.73,4,5.44,5.44,0,0,0,1,3H480.14c-2.58,0-4.67,1.44-4.67,3.23v.22c0,1.78,2.09,3.23,4.67,3.23H747.92c2.15,0,3.94-1,4.48-2.38H883.06a2.38,2.38,0,0,0-.37,1.27v.22c0,1.78,70.61-2.76,73.19-2.76"/></g></svg>