<svg xmlns="http://www.w3.org/2000/svg" xmlns:xlink="http://www.w3.org/1999/xlink" viewBox="0 0 2850 1800"><defs><style>.cls-1{mask:url(#mask);filter:url(#luminosity-noclip-6);}.cls-10,.cls-2,.cls-4,.cls-6,.cls-8{mix-blend-mode:multiply;}.cls-2{fill:url(#linear-gradient);}.cls-3{mask:url(#mask-2);filter:url(#luminosity-noclip-7);}.cls-4{fill:url(#linear-gradient-2);}.cls-5{mask:url(#mask-3);filter:url(#luminosity-noclip-8);}.cls-6{fill:url(#linear-gradient-3);}.cls-7{mask:url(#mask-4);filter:url(#luminosity-noclip-9);}.cls-8{fill:url(#linear-gradient-4);}.cls-9{mask:url(#mask-5);filter:url(#luminosity-noclip-10);}.cls-10{fill:url(#linear-gradient-5);}.cls-11{fill:url(#linear-gradient-6);}.cls-12{fill:#e5edd4;opacity:0.04;}.cls-13,.cls-14{fill:#fff;}.cls-13{opacity:0.15;}.cls-15{mask:url(#mask-6);}.cls-16{fill:url(#linear-gradient-7);}.cls-17{mask:url(#mask-7);}.cls-18{fill:url(#linear-gradient-8);}.cls-19{mask:url(#mask-8);}.cls-20{fill:url(#linear-gradient-9);}.cls-21{mask:url(#mask-9);}.cls-22{fill:url(#linear-gradient-10);}.cls-23{mask:url(#mask-10);}.cls-24{fill:url(#linear-gradient-11);}.cls-25{filter:url(#luminosity-noclip-5);}.cls-26{filter:url(#luminosity-noclip-4);}.cls-27{filter:url(#luminosity-noclip-3);}.cls-28{filter:url(#luminosity-noclip-2);}.cls-29{filter:url(#luminosity-noclip);}</style><filter id="luminosity-noclip" x="2075.92" y="-9092" width="655.05" height="32766" filterUnits="userSpaceOnUse" color-interpolation-filters="sRGB"><feFlood flood-color="#fff" result="bg"/><feBlend in="SourceGraphic" in2="bg"/></filter><mask id="mask" x="2075.92" y="-9092" width="655.05" height="32766" maskUnits="userSpaceOnUse"><g class="cls-29"/></mask><linearGradient id="linear-gradient" x1="2403.44" y1="214.23" x2="2403.44" y2="360.67" gradientUnits="userSpaceOnUse"><stop offset="0.01" stop-color="gray"/><stop offset="0.12" stop-color="#717171"/><stop offset="0.52" stop-color="#424242"/><stop offset="0.83" stop-color="#252525"/><stop offset="1" stop-color="#1a1a1a"/></linearGradient><filter id="luminosity-noclip-2" x="1070.25" y="-9092" width="416.83" height="32766" filterUnits="userSpaceOnUse" color-interpolation-filters="sRGB"><feFlood flood-color="#fff" result="bg"/><feBlend in="SourceGraphic" in2="bg"/></filter><mask id="mask-2" x="1070.25" y="-9092" width="416.83" height="32766" maskUnits="userSpaceOnUse"><g class="cls-28"/></mask><linearGradient id="linear-gradient-2" x1="1278.67" y1="895.28" x2="1278.67" y2="1020.88" xlink:href="#linear-gradient"/><filter id="luminosity-noclip-3" x="263.51" y="-9092" width="855.71" height="32766" filterUnits="userSpaceOnUse" color-interpolation-filters="sRGB"><feFlood flood-color="#fff" result="bg"/><feBlend in="SourceGraphic" in2="bg"/></filter><mask id="mask-3" x="263.51" y="-9092" width="855.71" height="32766" maskUnits="userSpaceOnUse"><g class="cls-27"/></mask><linearGradient id="linear-gradient-3" x1="691.36" y1="347.73" x2="691.36" y2="605.89" xlink:href="#linear-gradient"/><filter id="luminosity-noclip-4" x="418.66" y="-9092" width="571.57" height="32766" filterUnits="userSpaceOnUse" color-interpolation-filters="sRGB"><feFlood flood-color="#fff" result="bg"/><feBlend in="SourceGraphic" in2="bg"/></filter><mask id="mask-4" x="418.66" y="-9092" width="571.57" height="32766" maskUnits="userSpaceOnUse"><g class="cls-26"/></mask><linearGradient id="linear-gradient-4" x1="704.44" y1="1359.42" x2="704.44" y2="1487.2" xlink:href="#linear-gradient"/><filter id="luminosity-noclip-5" x="1259.12" y="-9092" width="855.81" height="32766" filterUnits="userSpaceOnUse" color-interpolation-filters="sRGB"><feFlood flood-color="#fff" result="bg"/><feBlend in="SourceGraphic" in2="bg"/></filter><mask id="mask-5" x="1259.12" y="-9092" width="855.81" height="32766" maskUnits="userSpaceOnUse"><g class="cls-25"/></mask><linearGradient id="linear-gradient-5" x1="1545.36" y1="1360.17" x2="1545.36" y2="1618.34" gradientTransform="matrix(-1, -0.02, -0.02, 1, 3267.33, 34.02)" xlink:href="#linear-gradient"/><linearGradient id="linear-gradient-6" x1="1425" y1="338.2" x2="1425" y2="1597.46" gradientUnits="userSpaceOnUse"><stop offset="0"/><stop offset="0.13" stop-color="#020005"/><stop offset="0.29" stop-color="#060212"/><stop offset="0.45" stop-color="#0e0329"/><stop offset="0.62" stop-color="#1a0649"/><stop offset="0.79" stop-color="#280972"/><stop offset="0.96" stop-color="#390da4"/><stop offset="0.99" stop-color="#3c0eac"/></linearGradient><filter id="luminosity-noclip-6" x="2075.92" y="211.83" width="655.05" height="154.99" filterUnits="userSpaceOnUse" color-interpolation-filters="sRGB"><feFlood flood-color="#fff" result="bg"/><feBlend in="SourceGraphic" in2="bg"/></filter><mask id="mask-6" x="2075.92" y="211.83" width="655.05" height="154.99" maskUnits="userSpaceOnUse"><g class="cls-1"><path class="cls-2" d="M2691.67,318.59c-22.67-3.55-45.64,7.89-61.52,24.47a341.16,341.16,0,0,0-32.57-88.65c-6.35-11.86-13.7-23.68-24.62-31.54-20.1-14.46-47.52-12.44-71.6-6.77a299.87,299.87,0,0,0-159.77,98.45c-17-28.32-55.45-37.72-87.52-29.92s-59,29.14-83.63,51.13a57.87,57.87,0,0,0-94.52,18.64l654.59,12.42C2734.3,344.16,2714.34,322.15,2691.67,318.59Z"/></g></mask><linearGradient id="linear-gradient-7" x1="2403.44" y1="214.23" x2="2403.44" y2="360.67" gradientUnits="userSpaceOnUse"><stop offset="0.01" stop-color="#fff"/><stop offset="1" stop-color="#fff"/></linearGradient><filter id="luminosity-noclip-7" x="1070.25" y="886.09" width="416.83" height="137.96" filterUnits="userSpaceOnUse" color-interpolation-filters="sRGB"><feFlood flood-color="#fff" result="bg"/><feBlend in="SourceGraphic" in2="bg"/></filter><mask id="mask-7" x="1070.25" y="886.09" width="416.83" height="137.96" maskUnits="userSpaceOnUse"><g class="cls-3"><path class="cls-4" d="M1455.79,985.82c-15.65,2.35-29.41,12.83-45.2,13.94-.49-35.54-3.18-75.89-30.65-98.4-28.54-23.38-71.11-16.45-105.15-2.24a316.69,316.69,0,0,0-117.89,85.73c-5.3-19.41-25.15-33.76-45.21-32.67s-38.26,43.67-41.44,63.53l415.4,8.34C1492.85,1009.94,1471.44,983.48,1455.79,985.82Z"/></g></mask><linearGradient id="linear-gradient-8" x1="1278.67" y1="895.28" x2="1278.67" y2="1020.88" xlink:href="#linear-gradient-7"/><filter id="luminosity-noclip-8" x="263.51" y="343.5" width="855.71" height="273.24" filterUnits="userSpaceOnUse" color-interpolation-filters="sRGB"><feFlood flood-color="#fff" result="bg"/><feBlend in="SourceGraphic" in2="bg"/></filter><mask id="mask-8" x="263.51" y="343.5" width="855.71" height="273.24" maskUnits="userSpaceOnUse"><g class="cls-5"><path class="cls-6" d="M1057.88,530.64c-35-13.59-75.44-8-108.9,9-5-24.21-27.74-42.35-52.13-46.21s-49.53,4.78-69.67,19.08c1.71-41.94,2.38-87.48-22.37-121.36-26-35.6-73.8-48.42-117.83-47.62-66.19,1.21-130.43,27.84-183.13,67.95S409.34,504.64,375.48,561.6a76.13,76.13,0,0,0-112,39.91l855.68,15.23C1120.24,579.18,1092.85,544.24,1057.88,530.64Z"/></g></mask><linearGradient id="linear-gradient-9" x1="691.36" y1="347.73" x2="691.36" y2="605.89" xlink:href="#linear-gradient-7"/><filter id="luminosity-noclip-9" x="418.66" y="1357.33" width="571.57" height="135.24" filterUnits="userSpaceOnUse" color-interpolation-filters="sRGB"><feFlood flood-color="#fff" result="bg"/><feBlend in="SourceGraphic" in2="bg"/></filter><mask id="mask-9" x="418.66" y="1357.33" width="571.57" height="135.24" maskUnits="userSpaceOnUse"><g class="cls-7"><path class="cls-8" d="M955.94,1450.49c-19.78-3.1-39.83,6.87-53.69,21.35a297.17,297.17,0,0,0-28.41-77.35c-5.55-10.36-12-20.67-21.49-27.53-17.53-12.61-41.46-10.85-62.47-5.9A261.59,261.59,0,0,0,650.47,1447c-14.84-24.72-48.38-32.92-76.37-26.11s-51.47,25.43-73,44.61a50.51,50.51,0,0,0-82.47,16.27l571.16,10.84C993.13,1472.79,975.72,1453.59,955.94,1450.49Z"/></g></mask><linearGradient id="linear-gradient-10" x1="704.44" y1="1359.42" x2="704.44" y2="1487.2" xlink:href="#linear-gradient-7"/><filter id="luminosity-noclip-10" x="1259.12" y="1355.94" width="855.81" height="267.31" filterUnits="userSpaceOnUse" color-interpolation-filters="sRGB"><feFlood flood-color="#fff" result="bg"/><feBlend in="SourceGraphic" in2="bg"/></filter><mask id="mask-10" x="1259.12" y="1355.94" width="855.81" height="267.31" maskUnits="userSpaceOnUse"><g class="cls-9"><path class="cls-10" d="M1322.29,1535.09c35.26-12.83,75.59-6.34,108.67,11.38,5.52-24.1,28.66-41.74,53.13-45.06s49.41,5.85,69.23,20.59c-.79-42-.46-87.51,25-120.85,26.77-35,74.84-46.8,118.85-45,66.14,2.65,129.78,30.68,181.6,71.93s92.46,95.18,125.07,152.87a76.12,76.12,0,0,1,111.08,42.34l-855.81-3.42C1258.88,1582.26,1287,1547.92,1322.29,1535.09Z"/></g></mask><linearGradient id="linear-gradient-11" x1="1545.36" y1="1360.17" x2="1545.36" y2="1618.34" gradientTransform="matrix(-1, -0.02, -0.02, 1, 3267.33, 34.02)" xlink:href="#linear-gradient-7"/></defs><g id="Layer_2" data-name="Layer 2"><rect class="cls-11" width="2850" height="1800"/></g><g id="Layer_1" data-name="Layer 1"><g id="LUNE"><ellipse class="cls-12" cx="2208.93" cy="909.15" rx="463.48" ry="459.64" transform="translate(89.81 2011.55) rotate(-49.86)"/><ellipse class="cls-12" cx="2208.93" cy="909.15" rx="378.44" ry="373.79" transform="translate(59.95 1952.14) rotate(-48.26)"/><ellipse class="cls-12" cx="2208.93" cy="909.15" rx="291.44" ry="291.85"/><ellipse class="cls-12" cx="2208.93" cy="909.15" rx="197.84" ry="198.11"/><ellipse class="cls-13" cx="2210.3" cy="907.16" rx="143.7" ry="143.9"/><path class="cls-14" d="M2294.39,909.29A143.58,143.58,0,0,0,2226.5,765c1.82.2,3.65.41,5.48.68,80,12,134.51,88.07,119.54,168.35-13.75,73.77-82.91,124.77-157.34,116.07a142.84,142.84,0,0,1-57.28-19.53A143.29,143.29,0,0,0,2294.39,909.29Z"/></g><g id="NUAGE"><g class="cls-15"><path class="cls-16" d="M2691.67,318.59c-22.67-3.55-45.64,7.89-61.52,24.47a341.16,341.16,0,0,0-32.57-88.65c-6.35-11.86-13.7-23.68-24.62-31.54-20.1-14.46-47.52-12.44-71.6-6.77a299.87,299.87,0,0,0-159.77,98.45c-17-28.32-55.45-37.72-87.52-29.92s-59,29.14-83.63,51.13a57.87,57.87,0,0,0-94.52,18.64l654.59,12.42C2734.3,344.16,2714.34,322.15,2691.67,318.59Z"/></g><g class="cls-17"><path class="cls-18" d="M1455.79,985.82c-15.65,2.35-29.41,12.83-45.2,13.94-.49-35.54-3.18-75.89-30.65-98.4-28.54-23.38-71.11-16.45-105.15-2.24a316.69,316.69,0,0,0-117.89,85.73c-5.3-19.41-25.15-33.76-45.21-32.67s-38.26,43.67-41.44,63.53l415.4,8.34C1492.85,1009.94,1471.44,983.48,1455.79,985.82Z"/></g></g><g id="ETOILE"><path class="cls-14" d="M153.88,86.86a1.51,1.51,0,0,0,0-3,1.51,1.51,0,0,0,0,3Z"/><path class="cls-14" d="M122.21,266.58a1.5,1.5,0,0,0,0-3,1.5,1.5,0,0,0,0,3Z"/><path class="cls-14" d="M395,154.07v5.29a1.72,1.72,0,0,0,3.44,0v-5.29a1.72,1.72,0,0,0-3.44,0Z"/><path class="cls-14" d="M298.12,365.52v-5.29a1.72,1.72,0,0,0-3.44,0v5.29a1.72,1.72,0,0,0,3.44,0Z"/><path class="cls-14" d="M268.29,206.94v5.28a1.72,1.72,0,0,0,3.44,0v-5.28a1.72,1.72,0,0,0-3.44,0Z"/><path class="cls-14" d="M797.88,60.43a1.51,1.51,0,0,0,0-3,1.51,1.51,0,0,0,0,3Z"/><path class="cls-14" d="M824.27,393.45a1.5,1.5,0,0,0,0-3,1.5,1.5,0,0,0,0,3Z"/><path class="cls-14" d="M762.65,460.67v-5.29a1.72,1.72,0,0,0-3.44,0v5.29a1.72,1.72,0,0,0,3.44,0Z"/><path class="cls-14" d="M602.57,583.75a1.5,1.5,0,0,0,0-3,1.5,1.5,0,0,0,0,3Z"/><path class="cls-14" d="M655.35,330.24h5.28a1.73,1.73,0,0,0,0-3.45h-5.28a1.73,1.73,0,0,0,0,3.45Z"/><path class="cls-14" d="M1168.6,396l-5.28-5.29a1.72,1.72,0,0,0-2.43,2.44l5.28,5.28a1.72,1.72,0,0,0,2.43-2.43Z"/><path class="cls-14" d="M1126.87,746.12v-5.29a1.72,1.72,0,0,0-3.43,0v5.29a1.72,1.72,0,0,0,3.43,0Z"/><path class="cls-14" d="M866.5,890.34a1.5,1.5,0,0,0,0-3,1.5,1.5,0,0,0,0,3Z"/><path class="cls-14" d="M609.56,1089.71v-5.28a1.72,1.72,0,0,0-3.43,0v5.28a1.72,1.72,0,0,0,3.43,0Z"/><path class="cls-14" d="M766.21,747.62a1.5,1.5,0,0,0,0-3,1.5,1.5,0,0,0,0,3Z"/><path class="cls-14" d="M258.24,884.77l5.28,5.29a1.72,1.72,0,0,0,2.43-2.43l-5.28-5.29a1.72,1.72,0,0,0-2.43,2.43Z"/><path class="cls-14" d="M116.2,1004.84c-.75,5.53,8.73,5.1,7.63-.15-.46-2.17-3.77-1.25-3.32.91-.08-.39-.05.08,0-.15s-.09.1.08-.18c-.14.24.19-.08,0,0s-.21.32,0,0a.61.61,0,0,1-.22.13c.33,0,.12,0,0,0l-.33.07c.23,0,.19,0,0,0s-.67-.08-.29,0l-.32-.08.12,0-.11,0c-.09-.25.06.21,0,0l-.09-.09c-.08-.09-.05,0,.1.12s.1.31,0,.09c.13.43,0-.11,0,.26a1.8,1.8,0,0,0-1.2-2.12,1.74,1.74,0,0,0-2.12,1.2Z"/><path class="cls-14" d="M211.94,615.47a1.51,1.51,0,0,0,0-3,1.51,1.51,0,0,0,0,3Z"/><path class="cls-14" d="M461.26,855.91,456,850.62a1.72,1.72,0,0,0-2.43,2.44l5.28,5.28a1.72,1.72,0,0,0,2.43-2.43Z"/><path class="cls-14" d="M1162.11,97.43a1.5,1.5,0,0,0,0-3,1.5,1.5,0,0,0,0,3Z"/><path class="cls-14" d="M1431.32,245.44a1.5,1.5,0,0,0,0-3,1.5,1.5,0,0,0,0,3Z"/><path class="cls-14" d="M1368,594.32a1.5,1.5,0,0,0,0-3,1.5,1.5,0,0,0,0,3Z"/><path class="cls-14" d="M1268.54,1067.07v-6.15a1.72,1.72,0,0,0-3.43,0v6.15a1.72,1.72,0,0,0,3.43,0Z"/><path class="cls-14" d="M1008.61,1394.88a1.5,1.5,0,0,0,0-3,1.5,1.5,0,0,0,0,3Z"/><path class="cls-14" d="M369.21,1444.36h6.14a1.73,1.73,0,0,0,0-3.45h-6.14a1.73,1.73,0,0,0,0,3.45Z"/><path class="cls-14" d="M290.5,1644.59l-6.15-6.16a1.72,1.72,0,0,0-2.43,2.44l6.15,6.15a1.72,1.72,0,0,0,2.43-2.43Z"/><path class="cls-14" d="M242.84,1245c.06.42,0-.23,0,.06s0,.12,0,0l-.06.16c.12.21-.3-.05,0,0,.13,0-.23.12,0,0s.14-.06,0,0l.36-.1c.2,0-.24,0,.09,0h.4a1.48,1.48,0,0,1,.82.25c-.18-.16-.11,0,0,0s0-.21,0,0c0-.13-.08-.21,0,0-.08-.42-.11.18,0-.15-.45,2.16,2.86,3.09,3.32.91,1.19-5.67-9.15-6.13-8.34-.17a1.74,1.74,0,0,0,2.12,1.2,1.78,1.78,0,0,0,1.2-2.12Z"/><path class="cls-14" d="M100.41,1676.59v-6.16a1.72,1.72,0,0,0-3.44,0v6.16a1.72,1.72,0,0,0,3.44,0Z"/><path class="cls-14" d="M804,1307.19v6.15a1.72,1.72,0,0,0,3.44,0v-6.15a1.72,1.72,0,0,0-3.44,0Z"/><path class="cls-14" d="M721.37,1707.37v-6.15a1.72,1.72,0,0,0-3.44,0v6.15a1.72,1.72,0,0,0,3.44,0Z"/><path class="cls-14" d="M1614.64,793.36a1.5,1.5,0,0,0,0-3,1.5,1.5,0,0,0,0,3Z"/><path class="cls-14" d="M2192.86,301.41a1.51,1.51,0,0,0,0-3,1.51,1.51,0,0,0,0,3Z"/><path class="cls-14" d="M2637.52,640.7l4.35-4.35a1.72,1.72,0,0,0-2.43-2.43l-4.35,4.35a1.72,1.72,0,0,0,2.43,2.43Z"/><path class="cls-14" d="M2323.29,998a1.5,1.5,0,0,0,0-3,1.5,1.5,0,0,0,0,3Z"/><path class="cls-14" d="M2821.53,221.54v4.35a1.72,1.72,0,0,0,3.44,0v-4.35a1.72,1.72,0,0,0-3.44,0Z"/><path class="cls-14" d="M1758.11,175.15a1.5,1.5,0,0,0,0-3,1.5,1.5,0,0,0,0,3Z"/><path class="cls-14" d="M1869.47,614.92l-4.35-4.35a1.72,1.72,0,0,0-2.43,2.44l4.35,4.35a1.72,1.72,0,0,0,2.43-2.44Z"/><path class="cls-14" d="M1920.77,957.51V948.4a1.72,1.72,0,0,0-3.44,0v9.11a1.72,1.72,0,0,0,3.44,0Z"/><path class="cls-14" d="M1637.1,1396.19a1.5,1.5,0,0,0,0-3,1.5,1.5,0,0,0,0,3Z"/></g><g class="cls-19"><path class="cls-20" d="M1057.88,530.64c-35-13.59-75.44-8-108.9,9-5-24.21-27.74-42.35-52.13-46.21s-49.53,4.78-69.67,19.08c1.71-41.94,2.38-87.48-22.37-121.36-26-35.6-73.8-48.42-117.83-47.62-66.19,1.21-130.43,27.84-183.13,67.95S409.34,504.64,375.48,561.6a76.13,76.13,0,0,0-112,39.91l855.68,15.23C1120.24,579.18,1092.85,544.24,1057.88,530.64Z"/></g><g class="cls-21"><path class="cls-22" d="M955.94,1450.49c-19.78-3.1-39.83,6.87-53.69,21.35a297.17,297.17,0,0,0-28.41-77.35c-5.55-10.36-12-20.67-21.49-27.53-17.53-12.61-41.46-10.85-62.47-5.9A261.59,261.59,0,0,0,650.47,1447c-14.84-24.72-48.38-32.92-76.37-26.11s-51.47,25.43-73,44.61a50.51,50.51,0,0,0-82.47,16.27l571.16,10.84C993.13,1472.79,975.72,1453.59,955.94,1450.49Z"/></g><g class="cls-23"><path class="cls-24" d="M1322.29,1535.09c35.26-12.83,75.59-6.34,108.67,11.38,5.52-24.1,28.66-41.74,53.13-45.06s49.41,5.85,69.23,20.59c-.79-42-.46-87.51,25-120.85,26.77-35,74.84-46.8,118.85-45,66.14,2.65,129.78,30.68,181.6,71.93s92.46,95.18,125.07,152.87a76.12,76.12,0,0,1,111.08,42.34l-855.81-3.42C1258.88,1582.26,1287,1547.92,1322.29,1535.09Z"/></g><g id="ETOILE-2" data-name="ETOILE"><path class="cls-14" d="M2809.08,165.67a1.5,1.5,0,0,0,0-3,1.5,1.5,0,0,0,0,3Z"/><path class="cls-14" d="M2831.85,346.75a1.51,1.51,0,0,0,0-3,1.51,1.51,0,0,0,0,3Z"/><path class="cls-14" d="M2635.69,233.41v5.32c0,2.23-2.47,2.24-2.47,0v-5.32c0-2.24,2.47-2.24,2.47,0Z"/><path class="cls-14" d="M2705.34,446.43v-5.32c0-2.24,2.48-2.24,2.48,0v5.32c0,2.23-2.48,2.24-2.48,0Z"/><path class="cls-14" d="M2726.8,286.66V292c0,2.23-2.47,2.23-2.47,0v-5.33c0-2.23,2.47-2.23,2.47,0Z"/><path class="cls-14" d="M2346,139.05a1.51,1.51,0,0,0,0-3,1.51,1.51,0,0,0,0,3Z"/><path class="cls-14" d="M2327,474.56a1.5,1.5,0,0,0,0-3,1.5,1.5,0,0,0,0,3Z"/><path class="cls-14" d="M2371.29,542.29V537c0-2.23,2.47-2.24,2.47,0v5.32c0,2.24-2.47,2.24-2.47,0Z"/><path class="cls-14" d="M2486.41,666.28a1.5,1.5,0,0,0,0-3,1.5,1.5,0,0,0,0,3Z"/><path class="cls-14" d="M2448.44,410.89h-3.79c-1.59,0-1.6-3.47,0-3.47h3.79c1.6,0,1.6,3.47,0,3.47Z"/><path class="cls-14" d="M2079.35,477.16l3.79-5.33c1.13-1.58,2.88.88,1.75,2.46l-3.79,5.32c-1.13,1.58-2.88-.87-1.75-2.45Z"/><path class="cls-14" d="M2109.35,829.88v-5.33c0-2.23,2.48-2.23,2.48,0v5.33c0,2.23-2.48,2.23-2.48,0Z"/><path class="cls-14" d="M2296.6,975.17a1.5,1.5,0,0,0,0-3,1.5,1.5,0,0,0,0,3Z"/><path class="cls-14" d="M2481.37,1176.05v-5.33c0-2.23,2.48-2.24,2.48,0v5.33c0,2.23-2.48,2.23-2.48,0Z"/><path class="cls-14" d="M2368.73,831.38a1.5,1.5,0,0,0,0-3,1.5,1.5,0,0,0,0,3Z"/><path class="cls-14" d="M2734,969.57l-3.8,5.33c-1.12,1.58-2.87-.87-1.75-2.46l3.8-5.32c1.13-1.58,2.87.87,1.75,2.45Z"/><path class="cls-14" d="M2836.17,1090.54c.54,5.56-6.27,5.13-5.48-.16.33-2.18,2.71-1.26,2.38.93.06-.4,0,.07,0-.16s.06.1-.06-.18c.1.24-.14-.08,0,0s.15.32,0,0a.38.38,0,0,0,.16.13c-.23,0-.08,0,0,0l.24.07c-.17,0-.14,0,0,0s.49-.08.21,0l.23-.08c.09,0,.06,0-.08.06l.08-.06c.06-.25-.05.21,0,0l.06-.09c.06-.09,0,0-.07.12s-.07.31,0,.09c-.08.43,0-.11,0,.26-.09-.93.16-1.86.86-2.13a1.26,1.26,0,0,1,1.52,1.21Z"/><path class="cls-14" d="M2767.32,698.24a1.5,1.5,0,0,0,0-3,1.5,1.5,0,0,0,0,3Z"/><path class="cls-14" d="M2588,940.49l3.79-5.33c1.13-1.58,2.88.88,1.75,2.46l-3.79,5.32c-1.13,1.58-2.88-.87-1.75-2.45Z"/><path class="cls-14" d="M2084,176.33a1.51,1.51,0,0,0,0-3,1.51,1.51,0,0,0,0,3Z"/><path class="cls-14" d="M1890.41,325.44a1.5,1.5,0,0,0,0-3,1.5,1.5,0,0,0,0,3Z"/><path class="cls-14" d="M1936,676.94a1.51,1.51,0,0,0,0-3,1.51,1.51,0,0,0,0,3Z"/><path class="cls-14" d="M2007.47,1153.24V1147c0-2.23,2.48-2.23,2.48,0v6.21c0,2.23-2.48,2.23-2.48,0Z"/><path class="cls-14" d="M2194.41,1483.48a1.5,1.5,0,0,0,0-3,1.5,1.5,0,0,0,0,3Z"/><path class="cls-14" d="M2654.23,1533.34h-4.43c-1.59,0-1.59-3.47,0-3.47h4.43c1.59,0,1.59,3.47,0,3.47Z"/><path class="cls-14" d="M2710.83,1735.07l4.42-6.2c1.13-1.58,2.88.87,1.75,2.45l-4.42,6.2c-1.13,1.58-2.88-.87-1.75-2.45Z"/><path class="cls-14" d="M2745.1,1332.46c0,.43,0-.23,0,.07,0,.13,0,.11,0,0l0,.17c-.08.21.22-.05,0,0-.09,0,.16.12,0,0s-.1,0,0,0a1.48,1.48,0,0,0-.27-.1c-.14,0,.18,0-.06,0h-.29a.87.87,0,0,0-.59.24c.13-.16.08,0,0,0s0-.2,0,0c0-.14.06-.22,0,0,.06-.42.08.18,0-.16.32,2.18-2.06,3.11-2.39.93-.85-5.72,6.58-6.18,6-.18a1.26,1.26,0,0,1-1.52,1.21c-.72-.28-1-1.2-.87-2.14Z"/><path class="cls-14" d="M2847.53,1767.31v-6.2c0-2.23,2.47-2.24,2.47,0v6.2c0,2.23-2.47,2.24-2.47,0Z"/><path class="cls-14" d="M2341.55,1395.14v6.21c0,2.23-2.48,2.23-2.48,0v-6.21c0-2.23,2.48-2.23,2.48,0Z"/><path class="cls-14" d="M2401,1798.33v-6.21c0-2.23,2.47-2.23,2.47,0v6.21c0,2.23-2.47,2.23-2.47,0Z"/><path class="cls-14" d="M1758.58,877.47a1.51,1.51,0,0,0,0-3,1.51,1.51,0,0,0,0,3Z"/><path class="cls-14" d="M1342.76,381.83a1.5,1.5,0,0,0,0-3,1.5,1.5,0,0,0,0,3Z"/><path class="cls-14" d="M1023,723.68l-3.12-4.39c-1.13-1.58.62-4,1.75-2.45l3.12,4.38c1.13,1.58-.62,4-1.75,2.46Z"/><path class="cls-14" d="M1249,1083.62a1.51,1.51,0,0,0,0-3,1.51,1.51,0,0,0,0,3Z"/><path class="cls-14" d="M667.23,121.91l1.9,2.66c1.13,1.58-.62,4-1.75,2.45l-1.9-2.66c-1.12-1.58.63-4,1.75-2.45l1.9,2.66c1.13,1.58-.62,4-1.75,2.45l-1.9-2.66c-1.12-1.58.63-4,1.75-2.45Z"/><path class="cls-14" d="M890.66,301.38v4.38c0,2.23-2.48,2.24-2.48,0v-4.38c0-2.24,2.48-2.24,2.48,0Z"/><path class="cls-14" d="M1655.4,254.63a1.5,1.5,0,0,0,0-3,1.5,1.5,0,0,0,0,3Z"/><path class="cls-14" d="M1575.32,697.7l3.13-4.38c1.13-1.58,2.87.87,1.75,2.45s-2.09,2.92-3.13,4.39-2.87-.87-1.75-2.46Z"/><path class="cls-14" d="M1538.43,1042.85v-9.18c0-2.23,2.47-2.23,2.47,0v9.18c0,2.23-2.47,2.23-2.47,0Z"/><path class="cls-14" d="M1742.43,1484.81a1.51,1.51,0,0,0,0-3,1.51,1.51,0,0,0,0,3Z"/></g></g></svg>