<svg xmlns="http://www.w3.org/2000/svg" xmlns:xlink="http://www.w3.org/1999/xlink" viewBox="0 0 2850 1800"><defs><style>.cls-1{fill:none;}.cls-2{fill:url(#radial-gradient);}.cls-3{fill:url(#New_Gradient_Swatch_7);}.cls-4{fill:#ff0;}.cls-5{opacity:0.28;fill:url(#radial-gradient-2);}.cls-6{clip-path:url(#clip-path);}.cls-7{opacity:0.6;}.cls-8{fill:#fdf1ff;}.cls-9{fill:#f08624;}.cls-10{fill:#f0a650;}.cls-11{fill:url(#linear-gradient);}.cls-12{fill:#202224;}.cls-13{fill:#d4aa70;}.cls-14{fill:#767070;}.cls-15{fill:url(#linear-gradient-2);}.cls-16{fill:#f3f3f5;}.cls-17{fill:url(#linear-gradient-3);}.cls-18{fill:#abb5cd;}.cls-19{fill:#5c5872;}.cls-20{fill:#ec8a71;}.cls-21{fill:url(#linear-gradient-4);}.cls-22{fill:url(#New_Gradient_Swatch_4);}</style><radialGradient id="radial-gradient" cx="1560.32" cy="1205.92" r="470.53" gradientTransform="translate(-3311.38 2806.79) rotate(-90.48) scale(1 4.05)" gradientUnits="userSpaceOnUse"><stop offset="0" stop-color="#e28140"/><stop offset="0.2" stop-color="#db763d"/><stop offset="0.53" stop-color="#c85834"/><stop offset="0.8" stop-color="#b63c2c"/><stop offset="1" stop-color="#b01222"/></radialGradient><linearGradient id="New_Gradient_Swatch_7" x1="1425.45" y1="1040.82" x2="1425.45" gradientUnits="userSpaceOnUse"><stop offset="0" stop-color="#eb4338"/><stop offset="0.15" stop-color="#e84a40"/><stop offset="0.67" stop-color="#df5e57"/><stop offset="1" stop-color="#dc6660"/></linearGradient><radialGradient id="radial-gradient-2" cx="1263.15" cy="634.64" r="548.93" gradientUnits="userSpaceOnUse"><stop offset="0" stop-color="#ef0" stop-opacity="0.5"/><stop offset="0.02" stop-color="#eef800" stop-opacity="0.52"/><stop offset="0.35" stop-color="#eba200" stop-opacity="0.78"/><stop offset="0.6" stop-color="#ea6c00" stop-opacity="0.94"/><stop offset="0.73" stop-color="#e95800"/><stop offset="0.76" stop-color="#e75a0c" stop-opacity="0.96"/><stop offset="0.92" stop-color="#df6348" stop-opacity="0.73"/><stop offset="1" stop-color="#dc6660" stop-opacity="0.64"/></radialGradient><clipPath id="clip-path"><path class="cls-1" d="M2849.94,1778.25H-10V1470.7c0-350.49,0-860.77.06-1332.54H2850"/></clipPath><linearGradient id="linear-gradient" x1="1424.72" y1="608.46" x2="1424.72" y2="1427.42" gradientUnits="userSpaceOnUse"><stop offset="0" stop-color="#d40040"/><stop offset="0.97" stop-color="#540008"/><stop offset="1" stop-color="#8a0006"/></linearGradient><linearGradient id="linear-gradient-2" x1="1909.42" y1="602.81" x2="2397.84" y2="884.79" gradientUnits="userSpaceOnUse"><stop offset="0" stop-color="#ffb860"/><stop offset="0.17" stop-color="#ffcd8f"/><stop offset="0.38" stop-color="#ffe2bf"/><stop offset="0.56" stop-color="#fff2e2"/><stop offset="0.7" stop-color="#fffcf7"/><stop offset="0.8" stop-color="#fff"/></linearGradient><linearGradient id="linear-gradient-3" x1="1988.82" y1="1232.22" x2="2114.03" y2="1304.51" gradientUnits="userSpaceOnUse"><stop offset="0" stop-color="#ffc660"/><stop offset="0.09" stop-color="#ffd17e"/><stop offset="0.23" stop-color="#ffdfa6"/><stop offset="0.37" stop-color="#ffebc6"/><stop offset="0.51" stop-color="#fff4df"/><stop offset="0.66" stop-color="#fffaf1"/><stop offset="0.82" stop-color="#fffefc"/><stop offset="1" stop-color="#fff"/></linearGradient><linearGradient id="linear-gradient-4" x1="2055.26" y1="717.41" x2="2119.96" y2="717.41" gradientUnits="userSpaceOnUse"><stop offset="0" stop-color="#ffa860"/><stop offset="0.17" stop-color="#ffc18d"/><stop offset="0.35" stop-color="#ffd7b6"/><stop offset="0.53" stop-color="#ffe8d6"/><stop offset="0.7" stop-color="#fff5ec"/><stop offset="0.86" stop-color="#fffcfa"/><stop offset="1" stop-color="#fff"/></linearGradient><linearGradient id="New_Gradient_Swatch_4" x1="1878.54" y1="609.57" x2="1969.35" y2="609.57" gradientUnits="userSpaceOnUse"><stop offset="0" stop-color="#001000"/><stop offset="0.84" stop-color="#000900"/><stop offset="0.99" stop-color="#000700"/></linearGradient></defs><g id="Layer_3" data-name="Layer 3"><rect class="cls-2" y="1420.54" width="2850" height="379.46"/></g><g id="Layer_5" data-name="Layer 5"><rect class="cls-3" width="2850.9" height="1040.82"/></g><g id="SOLEIL"><circle class="cls-4" cx="1263.15" cy="683.11" r="357.71"/><circle class="cls-5" cx="1263.15" cy="634.64" r="548.93"/></g><g id="MONTAGNES"><g class="cls-6"><g class="cls-7"><path class="cls-8" d="M1916.26,742.72c-.06-.17-.13-.35-.19-.53C1915.13,741.27,1915.44,741.71,1916.26,742.72Z"/><path class="cls-9" d="M1826.66,1078.07l-2337.51-8.83c55-40.2,95.93-68.92,108.88-78.23,6.18-4.44,12.51-9,19.29-9.94s14.34,1.5,20.33-3.85c8.37-7.48,11.36-28.29,21-29.33,4.57-.5,8.85,4.14,13.43,4,9.57-.27,15.06-20.16,24.61-21.22,5.94-.66,11.52,6.41,17.4,5,8.07-1.93,11.13-17.47,17.37-25.68,10.38-13.65,27.43-4.7,38.69-16.53,5.35-5.62,8.48-15.06,13-22.22,12.17-19.2,31.61-18.9,48.85-21.21,27.5-3.68,51.35-24.31,78.05-39.67,3.69-2.12,15.79-4.27,15.79-4.27,109.45-30.47,151.77-12.19,251.37-77,25.07-16.31,65.4-7,73.18-13.42,65.1-54,123.29-37.92,212.35-131.51,81.18-85.31,168.32-192,266.75-180,49.6-.88,89.86,63.48,135.89,106.36,100.71,93.85,238,154.17,263,197.43,12.69,22,80.34,32.95,138,58.57,34.56,15.35,61.47,48.19,82.21,57.71,34.89,16,81.1,12.78,116,28.67,38.63,17.58,66.56,42.37,105.8,21,41.93-22.87,95.17,43.6,144.38,54.41l3.87.86c80.5,17.76,106,5,106.73,23.42C1826.36,977.51,1826.36,1126.21,1826.66,1078.07Z"/><path class="cls-10" d="M3092.14,996.75,754.63,989c55-35,95.93-60.09,108.87-68.2,6.19-3.88,12.52-7.81,19.29-8.67s14.34,1.31,20.34-3.36c8.37-6.52,11.36-24.66,21-25.57,4.58-.44,8.86,3.61,13.44,3.5,9.57-.23,15.06-17.58,24.61-18.5,5.93-.57,11.52,5.6,17.4,4.37,8.07-1.69,11.13-15.23,17.37-22.39,10.38-11.9,27.43-4.1,38.69-14.41,5.35-4.91,8.48-13.14,13-19.38,12.17-16.74,31.61-16.48,48.85-18.49,27.5-3.21,51.34-21.2,78-34.59,3.68-1.85,15.79-3.72,15.79-3.72,109.45-26.57,151.77-10.63,251.37-67.15,25.07-14.23,65.39-6.08,73.18-11.7,65.1-47.06,123.29-33.07,212.35-114.67,81.18-74.38,168.32-167.39,266.75-156.94,49.6-.77,89.86,55.34,135.88,92.74,100.72,81.82,238,134.42,263,172.14,12.69,19.17,80.35,28.72,138,51.06,34.56,13.39,61.47,42,82.21,50.32,34.89,14,81.09,11.14,116,25,38.64,15.34,66.57,37,105.81,18.28,41.93-20,95.17,38,144.38,47.43l3.87.75c80.5,15.49,106,4.4,106.72,20.42C3091.84,909.06,3091.84,1038.72,3092.14,996.75Z"/></g></g><path class="cls-11" d="M-2.06,1017.94v409.48H2851.5l-2.66-470.07-61.5-16L2764,927.92l-18.65,16.75-17.49-23.36L2702.24,920l-5.83-14.56-22.15,4.12-9.34-22.75-19.81,8.05-14,1.31L2616,921.31l-32.06-50.24-15.74,15.73-5.24-60-30.31-20.07-25.07,14.21-9.33,33-2.33,11.9-24.48-1.37,1.17,43.7-26.24,10.67-19.23,6.53-16.82-17.95-11.16-12.48-5.83-10.58-5.83-14.55s0-1.32-3.5-6.61-2.69-9-8.17-15.69-10.48-9.45-10.48-9.45l-22-19.89-16.49,13.28-10.75-7.91-7.91,27.75-11.66,11.91-8.16,29.71-21.14-1.22-17.33,24.64-23.32,1.1L2215,929.25l-17.56-16.36-18.66,24.29-10.49-19.84-15.15,3.91-3.5-37-7-11.9c-2.33-4-5.83-23-5.83-23l-15.15,8.48-10.49-15.17-4.67,23.11-8.16,9.26-17.49,13.23-8.17,3.2-19.81,16.64s-18.65,11.91-22.15,13.23-17.37-14.57-21-6.75-14,27.91-14,27.91-14.38,11.19-15.89,10.59-20.25,21.72-20.25,21.72l-35-7.17H1904.8L1889.65,938l-23.32-11.38-15.16-29.1-21-3-23.32-47.26-15.15-19.84-7-9.31-10.49-32.31-44.3-18.4-14-24.64-10.5-7.93-22.15-24.3-35,28.26-12.83,7.94-15.15,27.36s-22.15,1.74-25.65,3.06-8.16,5.3-8.16,5.3L1562,798.29c-8.16,4-15.15-7.5-15.15-7.5l-22.15,28.66-11.66,7.94L1493.26,838l-16.32,28.09-34.63,7.86-33,19.61-40.8-1.32L1346.36,886l-12.82-34.76S1320.72,834,1316.05,830s-28-81.07-28-81.07l-12.82,35.13-16.32,51.23-8.16,27.38-23.32,4.36L1208.8,883l-11.66-18.57-11.66,39.73-28,23.81-25.65-29.1-29.15-50.26L1086.38,846l-25.65-58.27s-12.82-15.88-14-19.85-11.65-58.06-15.15-60.71-21,7.8-21,7.8L985,695.11l-25.64,3.68-5.83-34.1L929,644.85l-15.15-36.39L887,680.56s-17.48-6.16-21-3.52-21,40.56-24.48,44.53-17.49,18.52-17.49,18.52l-11.66,34-24.48,11-16.32,21.17s-17.49-2.34-21,3S732,873.69,732,873.69s-12.83,19.84-18.66,23.81-22.15,1-25.64,3.68-21,37.32-21,37.32l-14,34.61L634,976.87l-32.65,22.35-22.15,10.72-25.65-10.72s-7-21-10.49-25S525.61,965,525.61,965l-17.48-33.07-17.49-21.16-19.82-22.49-18.65,19.84-12.83-5.29-24.48,10.58-4.66,23.81-10.5,11.91-11.65,27.78-28,9.26-25.65,13.09-19.82,10.72-19.82,26.19-17.49-10.32-4.66-26.59L252.81,984.8S240,974.22,236.49,970.25,220.16,922.63,219,918.66,194.52,883,194.52,883l-16.33-49-21-9.26-17.49-18.51-14,26.45-18.65,43.65L76.77,898.82l-7,48.94-22.15,5.3L18.47,978.19Z"/></g><g id="PANDA"><path class="cls-12" d="M2365.38,1559.38c-24.8,7.83-50.71,6.39-76.19,6.45q-168,.4-336-.41c-89.53-.36-145.93-76.77-112.82-152.3,21.66-49.45,35.91-57.28,93.34-47.44,17.19,3,23.74,1.15,21-16.2-7.14-46.08,3.3-89.68,26.78-130.56,10.05-17.51,5.76-22.49-15.56-23-52.38-1.16-104.32-6.84-151.56-29.39-64.87-31-73.4-99.76-18.17-139.56,8.56-6.17,17.22-12.17,29.26-8.18,61.69,23.21-13.06,10.37-19.64,17.91a45.86,45.86,0,0,1-4.24,5.8c-33.64,34.3-27.43,61.39,16,85.43,38.14,21.13,80.8,27.64,122.9,34.57,41.22,6.79,81.16,3.93,94.89-43.25,1.62-5.56,7.3-10.35,11.76-15,5.1-5.29,2.87-9.94-.22-14.85.48-8.27-6.06-10.26-13-11.63-41.68-8.28-81.1-22.8-121-36l.18.27c-25.63-7.78-29.64-4.11-41.1-8.9-6.74-2.81-58-2.67-57.57-15.4,19.69-7.45,84.07-2,100.78,7,41,22.15,87.29,31,132.36,42.75,5.95,1.56,14.65,5,17.3-3.41,2.44-7.72-6.52-10-12.19-12.67-47.71-22.78-88.82-53-120.17-92.73-83.59-106-105.25-220.34-51.16-343.18,18.88-42.87,27.36-46,75.48-34.11,19.14,4.71,35.6-.23,51.77-7.33,31.54-13.85,62.38-29,94-42.75,41.76-18.19,85.94-27.66,132.41-26,17.63.62,33.84-.63,47.73-11.82,10.62-8.54,40.24-12.38,53.24-9.9-1.86,2.61,8.3,6.85,3.55,9.42s-22.14,2.19-25.44,2.88c-5.7,1.18-13.44,4.17-22.07,12.27,39.53,7,74.69,24.92,117.23,39.47-10.62-23.39-22.09-38.08-42.68-46.9-7.71-3.29-40.56-6.77-43-17.84,30.06-3.42,81.4,18.73,96.5,52.54,8.07,18,18.89,25.3,39.68,29.4,71.36,14,111.63,84.36,83.25,144.7-8.24,17.51-10,34.08-7,51.93,20.18,109.42-13.11,188.83-123.75,262.36-13.17,8.75-17,16.92-12.79,31.16,18.34,62.3,36.7,124.08,84,175.33,28.24,30.6,32.26,69.73,33.8,107.8.85,21.12,1,32.72,31.69,36,46.94,5.08,70.65,50.09,55.29,91.66-14.79,40-66.55,59.15-111.95,41.24-7.66-3-14.31-8.71-23.67-6.67-16.05-2-10.65-8.47-5.36-16.88,17.15-27.28,33.24-55.08,33.06-87.83q2.49-11.09,5-22.18l1.32-10q.09-16,.19-32c1.24-8.42,2.5-16.84-3-24.57-1.79-8.27-2.87-16.74-5.5-24.78-10.2-31.21-25.73-59.35-57-77.86-15.32-44.09-39.56-85.28-51.26-130.58-2.83-10.94-9-2.62-12.82-.48-28.88,16.34-58.28,33.25-92,38-62.21,8.87-125,14.61-183.61-15.81-6.26-3.25-14.11-11-21.49.3-12.5,19.09-28.28,36.77-29.58,60.36-3.83,1.39-9.35,1.75-11.23,4.32-35.94,49.09-68.89,99.44-68.8,161.15.07,44.25,3.57,47.45,52.17,52.74,5.08.55,10.26.57,15.25,1.5,27.62,5.17,48.17,1.48,50.09-29.75.41-6.52,5.19-13,8.73-19.16,21-36.33,42.95-72.22,58.92-110.7,3.44-8.3,10.75-16.43,5.54-26.42,2.63-6.48,5.36-12.93,7.88-19.45s3.41-16.18,12.65-15.1c12.29,1.44,8,12.53,7.19,19.14-2.33,18.46-8.73,36-16.64,53.31-17.33,37.87-35.63,75.22-58.54,110.65-8.59,13.28-14.24,33.23-2.4,41.16,25.83,17.27,53.05,35.81,90.58,28.25,57.86-11.66,109.81-81.65,121.33-137.29,8-38.55,3.32-77.26,5-115.88.23-5.26-1.17-12.16,6.61-13.36,8.17-1.25,9.43,6,10.26,10.91,4.44,26.62,14.72,52.43,13.63,79.82-7.72,7-4.86,16-5.64,24.25-5.33,56.72-12.41,113-55.66,158.63-5.75,6.08-2.24,9.56,1,14-64.91,68.33-176.45,44.87-213.22-20.82-3.63-6.49-7.74-10.88-17-11.88-53.9-5.85-108.16-9.59-161.06-21.75-9-2.06-16.86,2.74-23.12,8-15.37,12.86-24.49,29.87-32.31,46.85-5,10.86-1.82,23.43,7.27,32.82,23.81,24.65,51.2,42.3,89.94,42,97.89-.66,195.79-.13,293.68-.25,44.45,0,88.89-.5,133.34-.77,11.18,5.7,13,16.64,13.66,25.92a1.52,1.52,0,0,0,.36.91c5.48,6.14,50.13-13.1,91.59-32.83m59.59-828.24c-2.9-25.12-11.52-47.9-31.61-66.34-33.19-30.47-73-35.22-116.75-25.42-6.22-1.66-13.78,6.41-19-2.17l19.47-10.73c-7.63-8.65-18.13-12.15-27.94-16.35-95.3-40.77-189.2-39.81-282.07,7.1-32.72,16.53-64.42,35.55-102.28,42-4.27.72-8.87,1.7-8.62,6.73,1.6,31.44-25.72,36.48-48.32,36.33-33.73-.21-47.13,11.59-45.63,40.7.07,1.5-.72,3-1,4.55-14.25,76.4-4.84,149.2,40,216.59-.51,2.88.55,5,3.68,6l5.16,8.94c34,59.22,86,102.25,151.62,130.14,130.21,55.34,270.64,19.94,365.94-59.56,68-56.72,92.4-128,83.72-210.49-2.36-22.38-14.58-21.92-28.11-11.74-17.9,13.47-38.76,14.83-59.5,18.38-8.16-4.35-24.78,5.69-25-12.13,6.77-.05,13.56.13,20.32-.19C2489.93,768.43,2542.83,717.3,2537.2,668.93Zm59.35,776.78c-.15-28.91-20-53.2-43.42-60.09-11.37-3.34-17.14-3.14-18.89,9.64-2.18,16-6.27,31.82-10.63,47.47-3.37,12-9.87,24.51,1.71,34.88,11.36,10.19,28.23,11.11,41.12,6.66C2586.72,1477.27,2594.92,1460,2596.55,1445.71Z"/><ellipse class="cls-12" cx="2416.51" cy="1519.47" rx="86.8" ry="21.29" transform="translate(-415.5 1161.65) rotate(-24.96)"/><path class="cls-13" d="M2384.67,1523c-2.23-3,1.56-.89-1.91-8.19a29.09,29.09,0,0,0-10.77-11.62c0-3.1,0-6.21,0-9.31,31.23-.41,53.48-16.58,74.5-35s30.63-43.83,49.88-63.18c.19,32.75-15.9,60.55-33.05,87.83-.43.69-3,2.91-3,6,0,5.52,4.83,4.17,5.65,7.6C2468.83,1509,2393.91,1535.5,2384.67,1523Z"/><path class="cls-14" d="M2342.89,494.2c11.09,3.27,16,3.28,23.72,6.57,20.59,8.82,32.06,23.51,42.68,46.9-42.54-14.55-77.7-32.44-117.24-39.47,7.82-13.19,7.64-10.33,30-14.62C2332.65,491.75,2331.4,492.1,2342.89,494.2Z"/><path class="cls-15" d="M1922.25,916.85q-2.58-4.47-5.15-8.94c.9-3.09-.63-4.94-3.69-6-44.85-67.39-54.26-140.19-40-216.59.29-1.53,1.08-3,1-4.55-1.5-29.11,11.9-40.91,45.63-40.7,22.6.15,49.92-4.89,48.32-36.33-.25-5,4.35-6,8.62-6.73,37.86-6.41,69.56-25.43,102.28-42,92.87-46.91,186.77-47.87,282.07-7.1,9.81,4.2,20.31,7.7,27.94,16.35L2369.8,575c-10.27,6.57-30.26,9.54-22.48,24.86,5.84,11.52,12.84,25.41,27.72,31.93l.15.06,2.22,5.07c-3.73.25,6.05.5,9.67,3.48,28.8,23.77,14.28,56.51,19.71,88.19-1.46,4.51,1.42,7.38,4.59,10.16l-.48,32.7c.24,17.82,16.86,7.78,25,12.13,2.93,10.19.44,19.76-3,29.57-13.26,38.14-33.18,72.84-62.6,102.8-56.86,57.88-127,92.78-212.88,97.78-82,4.77-148.54-26.18-205.44-77.69C1943.55,928.37,1938.17,915.46,1922.25,916.85Zm113.07-28c73-.34,140-42.86,175.35-111.29,29.27-56.66,17.94-112.2-31.71-155.5-58.15-50.71-140.56-31.66-164.38,38.24-9.17,26.9-19.92,52.61-40.64,74.56-14,14.85-21.35,33.52-26.52,52.57C1931.12,847.44,1967.3,889.16,2035.32,888.83Z"/><path d="M2046.54,1156.2c1.3-23.59,17.08-41.27,29.58-60.36,7.38-11.28,15.23-3.55,21.49-.3,58.65,30.42,121.4,24.68,183.61,15.81,33.69-4.8,63.09-21.71,92-38,3.79-2.14,10-10.46,12.82.48,11.7,45.3,35.94,86.49,51.26,130.58-23.53,14.62-51.81,18.64-77.41,28.63l-5.14-1c1.09-27.38-9.19-53.19-13.63-79.81-.83-4.94-2.09-12.16-10.26-10.91-7.78,1.2-6.38,8.1-6.61,13.36-1.64,38.62,3,77.33-5,115.88-11.52,55.64-63.47,125.63-121.33,137.29-37.53,7.56-64.75-11-90.58-28.25-11.84-7.93-6.19-27.88,2.4-41.16,22.91-35.43,41.21-72.78,58.54-110.65,7.91-17.3,14.31-34.85,16.64-53.31.84-6.61,5.1-17.7-7.19-19.14-9.24-1.08-10.16,8.68-12.65,15.1s-5.25,13-7.88,19.45C2121.8,1174.64,2085.7,1161.29,2046.54,1156.2Z"/><path d="M1922.25,916.85c15.92-1.39,21.3,11.52,29.78,19.19,56.9,51.51,123.44,82.46,205.44,77.69,85.84-5,156-39.9,212.88-97.78,29.42-30,49.34-64.66,62.6-102.8,3.41-9.81,5.9-19.38,3-29.57,20.74-3.55,41.6-4.91,59.5-18.38,13.53-10.18,25.75-10.64,28.11,11.74,8.68,82.49-15.72,153.77-83.72,210.49-95.3,79.5-235.73,114.9-365.94,59.56C2008.26,1019.1,1956.29,976.07,1922.25,916.85Z"/><path d="M2372,1493.86c0,3.1,0,6.21,0,9.31-44.44.27-88.88.72-133.33.77-97.89.12-195.79-.41-293.68.25-38.74.26-66.13-17.39-89.94-42-9.09-9.39-12.27-22-7.27-32.82,7.82-17,16.94-34,32.31-46.85,6.26-5.24,14.17-10,23.12-8,52.9,12.16,107.16,15.9,161.06,21.75,9.25,1,13.36,5.39,17,11.88,36.77,65.69,148.31,89.15,213.22,20.83l13.89,5.17C2332.47,1451.49,2356.4,1469,2372,1493.86Z"/><path class="cls-16" d="M2372,1493.86c-15.58-24.86-39.51-42.37-63.62-59.73,1.22-12.55,13.15-19.4,19.35-29.35,33.6-53.94,44.85-110.91,32.15-171.79,25.6-10,53.88-14,77.41-28.63,31.31,18.51,46.84,46.65,57,77.86,2.63,8,3.71,16.51,5.49,24.79-1.5,8.44-2.75,16.86,3,24.56q-.1,16-.19,32c-3.73,3-5,6.2-1.32,10q-2.49,11.09-5,22.18c-19.26,19.35-29,44.91-49.89,63.18S2403.21,1493.45,2372,1493.86Z"/><path class="cls-17" d="M2046.54,1156.2c39.16,5.09,75.26,18.44,110.67,33.68,5.21,10-2.1,18.12-5.54,26.42-16,38.48-38,74.37-58.92,110.7-3.54,6.14-8.32,12.64-8.73,19.16-1.92,31.23-22.47,34.92-50.09,29.75-5-.93-10.17-1-15.25-1.5-48.6-5.29-52.1-8.49-52.17-52.74-.09-61.71,32.86-112.06,68.8-161.15C2037.19,1158,2042.71,1157.59,2046.54,1156.2Z"/><path d="M1805.91,1036.74c12.12-12.68,72-5.07,107.28,5.37l-.19-.27c1.58,10.37,11.27,13.12,19.71,16A1015.18,1015.18,0,0,0,2047,1089.47c3.09,4.91,5.32,9.56.22,14.85-4.46,4.62-10.14,9.41-11.76,15-13.73,47.18-53.67,50-94.89,43.25-42.1-6.93-84.76-13.44-122.9-34.57-43.39-24-49.6-51.13-16-85.43A45.86,45.86,0,0,0,1805.91,1036.74Z"/><path d="M2410.9,771.45l.48-32.7c11.4,2,21.69-2.88,32.48-4.48,35.9-5.3,59.37-28.53,60.41-59,1.15-33.72-22.19-63.22-56.2-71.06-28.86-6.65-62.28,6-73,27.57-14.87-6.52-21.87-20.41-27.71-31.93-7.78-15.32,12.21-18.29,22.48-24.86,5.26,8.58,12.82.51,19,2.16,3.26.61,6.57,1.93,9.77,1.72,67.9-4.35,109.46,25.6,130.43,82.38,1.46,4,3.24,7,8.17,7.67,5.63,48.37-47.27,99.5-106,102.33C2424.46,771.58,2417.67,771.4,2410.9,771.45Z"/><path d="M2596.55,1445.71c-1.63,14.26-9.83,31.56-30.11,38.56-12.89,4.45-29.76,3.53-41.12-6.66-11.58-10.37-5.08-22.83-1.71-34.88,4.36-15.65,8.45-31.49,10.63-47.47,1.75-12.78,7.52-13,18.89-9.64C2576.55,1392.51,2596.4,1416.8,2596.55,1445.71Z"/><path class="cls-13" d="M2359.86,1233c12.7,60.88,1.45,117.85-32.15,171.79-6.2,10-18.13,16.8-19.35,29.35l-13.89-5.17c-3.29-4.48-6.8-8-1-14,43.25-45.62,50.33-101.91,55.66-158.63.78-8.29-2.08-17.28,5.64-24.25Z"/><path class="cls-13" d="M2537.2,668.93c-4.93-.63-6.71-3.72-8.17-7.67-21-56.78-62.53-86.73-130.43-82.38-3.2.21-6.51-1.11-9.77-1.72,43.75-9.79,83.57-5,116.76,25.43C2525.68,621,2534.3,643.81,2537.2,668.93Z"/><path class="cls-13" d="M2047,1089.47a1015.18,1015.18,0,0,1-114.25-31.65c-8.44-2.86-18.86-5.61-20.44-16,39.91,13.2,80.06,27.72,121.74,36C2040.9,1079.21,2047.44,1081.2,2047,1089.47Z"/><path class="cls-18" d="M2502.85,1331.57c-5.8-7.7-4.55-16.12-3-24.56C2505.35,1314.73,2504.09,1323.15,2502.85,1331.57Z"/><path class="cls-18" d="M2501.34,1373.54c-3.7-3.78-2.41-7,1.32-10Z"/><path class="cls-18" d="M1913.41,901.88c3.06,1.09,4.59,2.94,3.69,6C1914,906.86,1912.9,904.76,1913.41,901.88Z"/><path class="cls-19" d="M1819.62,415.62c-3.25-4.34-2.56-8.38,1.16-12.17Q1820.2,409.54,1819.62,415.62Z"/><path class="cls-18" d="M1815.31,345.56c-4-1.18-4.23-4.18-4.35-7.25Z"/><path class="cls-18" d="M1716.47,303.41c.4,1.58-.13,2.55-1.58,2.87A2.19,2.19,0,0,1,1716.47,303.41Z"/><path class="cls-18" d="M1722.74,295.14l-3.45,3.95Z"/><path class="cls-19" d="M1745.43,845.41c.81-1.33,1.63-2.65,2.44-4Z"/><path d="M2035.32,888.83c-68,.33-104.2-41.39-87.9-101.42,5.17-19,12.51-37.72,26.52-52.57,20.72-22,31.47-47.66,40.64-74.56,23.82-69.9,106.23-88.95,164.38-38.24,49.65,43.3,61,98.84,31.71,155.5C2175.32,846,2108.33,888.49,2035.32,888.83Zm19.94-214.13c9.25,16.25,24.16,24,31.22,37.4s11.21,27.49,16.21,41.41c1.4,3.9,3.47,8.16,8.42,6,3.18-1.36,5.81-5.57,6.86-9C2128.08,717.86,2098.52,679.18,2055.26,674.7Z"/><path class="cls-20" d="M2375,631.79c4.9.05.68-1.58,9.18-1.7,4.27-4.63,9.88-6.58,16.72-7,37.72-1.17,58.8,10.47,69.83,36.77,5.75,13.71,7.24,25.66,3.84,41.25-14.87,24.89-39.73,29.49-67.82,27.5"/><path class="cls-14" d="M2400.94,623.06c-6.84.45-11,3.42-16.45,7.15a67.77,67.77,0,0,1-9.3,1.64l-.15-.06c10.75-21.6,44.17-34.22,73-27.57,34,7.84,57.35,37.34,56.2,71.06-1,30.46-24.51,53.69-60.41,59-10.79,1.6-21.08,6.49-32.48,4.48-3.17-2.78-6.05-5.65-4.59-10.16,28.09,2,52.95-2.62,67.81-27.5,19.6-22.29,19.29-39.58-1.16-64.09C2457.82,618.28,2427.2,612.39,2400.94,623.06Z"/><path class="cls-21" d="M2055.26,674.7c43.26,4.48,72.82,43.16,62.71,75.9-1,3.39-3.68,7.6-6.86,9-5,2.11-7-2.15-8.42-6-5-13.92-9.13-28-16.21-41.41S2064.51,691,2055.26,674.7Z"/><path class="cls-14" d="M2400.94,623.06c26.26-10.67,56.88-4.78,72.5,13.94,20.45,24.51,20.76,41.8,1.16,64.09,2.07-14.25,1.92-27.55-3.83-41.26C2459.74,633.53,2438.66,621.89,2400.94,623.06Z"/><path class="cls-22" d="M1906.26,578.92c-29.18,11.68-33.26,50.88-21.77,60,13,10.3,57.28,1.09,70-5.92,8.93-4.91,15.92-20.85,14.72-32.71C1967.66,584.93,1932.6,568.38,1906.26,578.92Z"/></g></svg>