<svg xmlns="http://www.w3.org/2000/svg" xmlns:xlink="http://www.w3.org/1999/xlink" viewBox="0 0 900 400"><defs><style>.cls-1{isolation:isolate;}.cls-2{fill:url(#radial-gradient);}.cls-27,.cls-3,.cls-30{mix-blend-mode:screen;}.cls-3{fill:url(#Áåçûìÿííûé_ãðàäèåíò_261);}.cls-4{fill:#ffffd4;}.cls-5{fill:url(#New_Gradient_Swatch_3);}.cls-6{fill:url(#New_Gradient_Swatch_3-2);}.cls-10,.cls-11,.cls-12,.cls-13,.cls-14,.cls-15,.cls-16,.cls-17,.cls-18,.cls-19,.cls-20,.cls-21,.cls-22,.cls-23,.cls-24,.cls-25,.cls-26,.cls-27,.cls-28,.cls-29,.cls-30,.cls-31,.cls-32,.cls-33,.cls-34,.cls-35,.cls-36,.cls-37,.cls-38,.cls-39,.cls-40,.cls-41,.cls-42,.cls-43,.cls-44,.cls-45,.cls-46,.cls-47,.cls-48,.cls-49,.cls-50,.cls-51,.cls-52,.cls-53,.cls-57,.cls-58,.cls-59,.cls-60,.cls-61,.cls-62,.cls-63,.cls-64,.cls-65,.cls-68,.cls-69,.cls-7,.cls-70,.cls-71,.cls-72,.cls-73,.cls-74,.cls-75,.cls-76,.cls-77,.cls-78,.cls-8,.cls-9{fill-rule:evenodd;}.cls-7{fill:url(#linear-gradient);}.cls-8{fill:url(#radial-gradient-2);}.cls-9{fill:url(#Áåçûìÿííûé_ãðàäèåíò_565);}.cls-10,.cls-11,.cls-12,.cls-13,.cls-14,.cls-15,.cls-16,.cls-17,.cls-18,.cls-19,.cls-20,.cls-21,.cls-22,.cls-23,.cls-24,.cls-25,.cls-26{opacity:0.67;}.cls-10,.cls-11,.cls-12,.cls-13,.cls-14,.cls-15,.cls-16,.cls-17,.cls-18,.cls-19,.cls-20,.cls-21,.cls-22,.cls-23,.cls-24,.cls-25,.cls-26,.cls-28,.cls-29,.cls-57,.cls-58,.cls-62,.cls-68,.cls-69,.cls-70,.cls-71,.cls-75{mix-blend-mode:multiply;}.cls-10{fill:url(#Áåçûìÿííûé_ãðàäèåíò_506);}.cls-11{fill:url(#Áåçûìÿííûé_ãðàäèåíò_506-2);}.cls-12{fill:url(#Áåçûìÿííûé_ãðàäèåíò_506-3);}.cls-13{fill:url(#Áåçûìÿííûé_ãðàäèåíò_506-4);}.cls-14{fill:url(#Áåçûìÿííûé_ãðàäèåíò_506-5);}.cls-15{fill:url(#Áåçûìÿííûé_ãðàäèåíò_506-6);}.cls-16{fill:url(#Áåçûìÿííûé_ãðàäèåíò_506-7);}.cls-17{fill:url(#Áåçûìÿííûé_ãðàäèåíò_506-8);}.cls-18{fill:url(#Áåçûìÿííûé_ãðàäèåíò_506-9);}.cls-19{fill:url(#Áåçûìÿííûé_ãðàäèåíò_506-10);}.cls-20{fill:url(#Áåçûìÿííûé_ãðàäèåíò_506-11);}.cls-21{fill:url(#Áåçûìÿííûé_ãðàäèåíò_506-12);}.cls-22{fill:url(#Áåçûìÿííûé_ãðàäèåíò_506-13);}.cls-23{fill:url(#Áåçûìÿííûé_ãðàäèåíò_506-14);}.cls-24{fill:url(#Áåçûìÿííûé_ãðàäèåíò_506-15);}.cls-25{fill:url(#Áåçûìÿííûé_ãðàäèåíò_506-16);}.cls-26{fill:url(#Áåçûìÿííûé_ãðàäèåíò_500);}.cls-27,.cls-30{opacity:0.68;}.cls-27{fill:url(#Áåçûìÿííûé_ãðàäèåíò_571);}.cls-28,.cls-29,.cls-76{opacity:0.5;}.cls-28{fill:url(#Áåçûìÿííûé_ãðàäèåíò_577);}.cls-29{fill:url(#Áåçûìÿííûé_ãðàäèåíò_577-2);}.cls-30{fill:url(#Áåçûìÿííûé_ãðàäèåíò_571-2);}.cls-31{fill:url(#New_Gradient_Swatch_6);}.cls-32{fill:#340010;}.cls-32,.cls-40{opacity:0.46;}.cls-33{fill:url(#New_Gradient_Swatch_6-2);}.cls-34{fill:url(#New_Gradient_Swatch_6-3);}.cls-35{fill:#931a38;}.cls-36{fill:url(#New_Gradient_Swatch_6-4);}.cls-37{fill:url(#New_Gradient_Swatch_6-5);}.cls-38{fill:url(#radial-gradient-3);}.cls-39{fill:url(#New_Gradient_Swatch_6-6);}.cls-40{fill:#240001;}.cls-41{fill:#341c00;}.cls-42{fill:url(#New_Gradient_Swatch_4);}.cls-43{fill:#462812;}.cls-44{fill:#341400;}.cls-45{fill:url(#New_Gradient_Swatch_4-2);}.cls-46{fill:#fb8b36;}.cls-47{fill:#aa4e00;}.cls-48{fill:#7c1338;}.cls-49{fill:#a70025;}.cls-50{fill:url(#New_Gradient_Swatch_6-7);}.cls-51{fill:#f47945;}.cls-52{fill:#2a0800;}.cls-53,.cls-55{fill:#ff8e65;}.cls-54{fill:url(#Áåçûìÿííûé_ãðàäèåíò_274);}.cls-56{fill:url(#New_Gradient_Swatch_1);}.cls-57,.cls-69{fill:#7c1b00;}.cls-57{opacity:0.54;}.cls-58{fill:#600445;}.cls-58,.cls-68{opacity:0.4;}.cls-60{fill:#930025;}.cls-61{fill:url(#Áåçûìÿííûé_ãðàäèåíò_46);}.cls-62{fill:#900477;opacity:0.73;}.cls-63{fill:url(#Áåçûìÿííûé_ãðàäèåíò_64);}.cls-64{fill:url(#linear-gradient-2);}.cls-65{fill:#932922;}.cls-66{fill:#840011;}.cls-67{fill:#36133d;}.cls-68{fill:#7c0477;}.cls-69{opacity:0.52;}.cls-70{fill:#d40041;}.cls-71,.cls-75{opacity:0.58;}.cls-71{fill:url(#Áåçûìÿííûé_ãðàäèåíò_68);}.cls-72{fill:#960a2a;}.cls-73,.cls-74{fill:#a53443;}.cls-73{opacity:0.66;}.cls-75{fill:url(#Áåçûìÿííûé_ãðàäèåíò_133);}.cls-76{fill:#ffff6a;}.cls-76,.cls-77{mix-blend-mode:soft-light;}.cls-77{fill:#fffffc;opacity:0.76;}.cls-78{fill:#6a000b;}</style><radialGradient id="radial-gradient" cx="644.02" cy="212.1" r="431.54" gradientUnits="userSpaceOnUse"><stop offset="0.17" stop-color="#ec3615"/><stop offset="0.26" stop-color="#d8301a"/><stop offset="0.5" stop-color="#a82126"/><stop offset="0.71" stop-color="#85172f"/><stop offset="0.89" stop-color="#701034"/><stop offset="1" stop-color="#680e36"/></radialGradient><radialGradient id="Áåçûìÿííûé_ãðàäèåíò_261" cx="644.43" cy="148.24" r="83.92" gradientTransform="translate(-482.14 -41.96) scale(1.75 1.67)" gradientUnits="userSpaceOnUse"><stop offset="0" stop-color="#ffa422"/><stop offset="0.09" stop-color="#f49d21"/><stop offset="0.24" stop-color="#d78a1d"/><stop offset="0.43" stop-color="#a86c16"/><stop offset="0.67" stop-color="#67420e"/><stop offset="0.94" stop-color="#150d03"/><stop offset="1"/></radialGradient><linearGradient id="New_Gradient_Swatch_3" x1="742.65" y1="305.51" x2="742.65" y2="212.1" gradientUnits="userSpaceOnUse"><stop offset="0" stop-color="#ff803f"/><stop offset="0.09" stop-color="#ea6e3c"/><stop offset="0.3" stop-color="#bc4736"/><stop offset="0.5" stop-color="#972831"/><stop offset="0.69" stop-color="#7d122d"/><stop offset="0.86" stop-color="#6e052b"/><stop offset="0.99" stop-color="#68002a"/></linearGradient><linearGradient id="New_Gradient_Swatch_3-2" x1="411.74" y1="309.99" x2="416.53" y2="223.35" xlink:href="#New_Gradient_Swatch_3"/><linearGradient id="linear-gradient" x1="449.99" y1="400.3" x2="449.99" y2="324.69" gradientUnits="userSpaceOnUse"><stop offset="0.02" stop-color="#000133"/><stop offset="0.1" stop-color="#090132"/><stop offset="0.24" stop-color="#220131"/><stop offset="0.42" stop-color="#4c012e"/><stop offset="0.62" stop-color="#84002b"/><stop offset="0.85" stop-color="#cc0026"/><stop offset="0.99" stop-color="#ff0023"/></linearGradient><radialGradient id="radial-gradient-2" cx="-49.72" cy="66390.9" r="329.14" gradientTransform="translate(546.61 -7096.01) scale(2.46 0.11)" gradientUnits="userSpaceOnUse"><stop offset="0" stop-color="#f9b036"/><stop offset="0.66" stop-color="#d6482a"/><stop offset="0.98" stop-color="#a0002f"/></radialGradient><radialGradient id="Áåçûìÿííûé_ãðàäèåíò_565" cx="-49.61" cy="66471.46" r="327.56" gradientTransform="translate(546.61 -7096.01) scale(2.46 0.11)" gradientUnits="userSpaceOnUse"><stop offset="0" stop-color="#f98336"/><stop offset="0.66" stop-color="#d6482a"/><stop offset="0.98" stop-color="#9e292a"/></radialGradient><linearGradient id="Áåçûìÿííûé_ãðàäèåíò_506" x1="482.76" y1="339.93" x2="482.76" y2="299.74" gradientUnits="userSpaceOnUse"><stop offset="0" stop-color="#e28986"/><stop offset="1" stop-color="#a62764"/></linearGradient><linearGradient id="Áåçûìÿííûé_ãðàäèåíò_506-2" x1="564.57" y1="340.27" x2="564.57" y2="299.66" xlink:href="#Áåçûìÿííûé_ãðàäèåíò_506"/><linearGradient id="Áåçûìÿííûé_ãðàäèåíò_506-3" x1="647.96" y1="340.21" x2="647.96" y2="300.11" xlink:href="#Áåçûìÿííûé_ãðàäèåíò_506"/><linearGradient id="Áåçûìÿííûé_ãðàäèåíò_506-4" x1="741.99" y1="340.82" x2="741.99" y2="299.63" xlink:href="#Áåçûìÿííûé_ãðàäèåíò_506"/><linearGradient id="Áåçûìÿííûé_ãðàäèåíò_506-5" x1="809.37" y1="335.53" x2="809.37" y2="301.82" xlink:href="#Áåçûìÿííûé_ãðàäèåíò_506"/><linearGradient id="Áåçûìÿííûé_ãðàäèåíò_506-6" x1="830.53" y1="334.16" x2="830.53" y2="300.68" xlink:href="#Áåçûìÿííûé_ãðàäèåíò_506"/><linearGradient id="Áåçûìÿííûé_ãðàäèåíò_506-7" x1="857.78" y1="331.67" x2="857.78" y2="302.1" xlink:href="#Áåçûìÿííûé_ãðàäèåíò_506"/><linearGradient id="Áåçûìÿííûé_ãðàäèåíò_506-8" x1="880.79" y1="325.27" x2="880.79" y2="302.8" xlink:href="#Áåçûìÿííûé_ãðàäèåíò_506"/><linearGradient id="Áåçûìÿííûé_ãðàäèåíò_506-9" x1="234.84" y1="340.02" x2="234.84" y2="299.72" gradientTransform="matrix(-1, 0, 0, 1, 638.91, 0)" xlink:href="#Áåçûìÿííûé_ãðàäèåíò_506"/><linearGradient id="Áåçûìÿííûé_ãðàäèåíò_506-10" x1="318.07" y1="339.7" x2="318.07" y2="299.89" gradientTransform="matrix(-1, 0, 0, 1, 638.91, 0)" xlink:href="#Áåçûìÿííûé_ãðàäèåíò_506"/><linearGradient id="Áåçûìÿííûé_ãðàäèåíò_506-11" x1="414.06" y1="340" x2="414.06" y2="300.14" gradientTransform="matrix(-1, 0, 0, 1, 638.91, 0)" xlink:href="#Áåçûìÿííûé_ãðàäèåíò_506"/><linearGradient id="Áåçûìÿííûé_ãðàäèåíò_506-12" x1="502.15" y1="339.81" x2="502.15" y2="300.52" gradientTransform="matrix(-1, 0, 0, 1, 638.91, 0)" xlink:href="#Áåçûìÿííûé_ãðàäèåíò_506"/><linearGradient id="Áåçûìÿííûé_ãðàäèåíò_506-13" x1="538.74" y1="336.64" x2="538.74" y2="301.07" gradientTransform="matrix(-1, 0, 0, 1, 638.91, 0)" xlink:href="#Áåçûìÿííûé_ãðàäèåíò_506"/><linearGradient id="Áåçûìÿííûé_ãðàäèåíò_506-14" x1="562.2" y1="336.71" x2="562.2" y2="301.31" gradientTransform="matrix(-1, 0, 0, 1, 638.91, 0)" xlink:href="#Áåçûìÿííûé_ãðàäèåíò_506"/><linearGradient id="Áåçûìÿííûé_ãðàäèåíò_506-15" x1="585.93" y1="334.7" x2="585.93" y2="301.91" gradientTransform="matrix(-1, 0, 0, 1, 638.91, 0)" xlink:href="#Áåçûìÿííûé_ãðàäèåíò_506"/><linearGradient id="Áåçûìÿííûé_ãðàäèåíò_506-16" x1="631.81" y1="339.52" x2="631.81" y2="303.07" gradientTransform="matrix(-1, 0, 0, 1, 638.91, 0)" xlink:href="#Áåçûìÿííûé_ãðàäèåíò_506"/><radialGradient id="Áåçûìÿííûé_ãðàäèåíò_500" cx="-39.48" cy="342.18" r="265.26" gradientTransform="translate(546.61) scale(2.46 1)" xlink:href="#Áåçûìÿííûé_ãðàäèåíò_506"/><linearGradient id="Áåçûìÿííûé_ãðàäèåíò_571" x1="533.34" y1="340.24" x2="533.34" y2="299.53" gradientUnits="userSpaceOnUse"><stop offset="0" stop-color="#ff3200"/><stop offset="0.11" stop-color="#ca2800"/><stop offset="0.24" stop-color="#951d00"/><stop offset="0.37" stop-color="#681400"/><stop offset="0.5" stop-color="#420d00"/><stop offset="0.63" stop-color="#250700"/><stop offset="0.75" stop-color="#110300"/><stop offset="0.88" stop-color="#040100"/><stop offset="1"/></linearGradient><linearGradient id="Áåçûìÿííûé_ãðàäèåíò_577" x1="710.47" y1="340.72" x2="710.47" y2="299.62" gradientUnits="userSpaceOnUse"><stop offset="0" stop-color="#ffffdb"/><stop offset="1" stop-color="#c7637a"/></linearGradient><linearGradient id="Áåçûìÿííûé_ãðàäèåíò_577-2" x1="166.31" y1="340" x2="166.31" y2="300.16" xlink:href="#Áåçûìÿííûé_ãðàäèåíò_577"/><linearGradient id="Áåçûìÿííûé_ãðàäèåíò_571-2" x1="127.47" y1="340.1" x2="127.47" y2="300.3" xlink:href="#Áåçûìÿííûé_ãðàäèåíò_571"/><radialGradient id="New_Gradient_Swatch_6" cx="-1690.4" cy="256.1" r="8.99" gradientTransform="translate(2145.68 -11.15) scale(1 1.05)" gradientUnits="userSpaceOnUse"><stop offset="0.02" stop-color="#e46a1a"/><stop offset="0.22" stop-color="#e1661b"/><stop offset="0.41" stop-color="#d85b1d"/><stop offset="0.59" stop-color="#c84721"/><stop offset="0.77" stop-color="#b32c26"/><stop offset="0.95" stop-color="#97092c"/><stop offset="1" stop-color="#90002e"/></radialGradient><radialGradient id="New_Gradient_Swatch_6-2" cx="-1565.19" cy="255.23" r="8.99" xlink:href="#New_Gradient_Swatch_6"/><radialGradient id="New_Gradient_Swatch_6-3" cx="-1609.33" cy="255.24" r="8.99" gradientTransform="translate(2104.3 -22.68) scale(0.97 1.09)" xlink:href="#New_Gradient_Swatch_6"/><radialGradient id="New_Gradient_Swatch_6-4" cx="-1653.79" cy="236.36" r="19.72" gradientTransform="matrix(1.16, -0.03, 0.03, 1.23, 2396.32, -110.04)" xlink:href="#New_Gradient_Swatch_6"/><radialGradient id="New_Gradient_Swatch_6-5" cx="-1653.44" cy="229.9" r="5.27" gradientTransform="matrix(1.16, -0.03, 0.03, 1.23, 2396.32, -110.04)" xlink:href="#New_Gradient_Swatch_6"/><radialGradient id="radial-gradient-3" cx="-1653.07" cy="227.51" r="1.46" gradientTransform="matrix(1.16, -0.03, 0.03, 1.23, 2396.32, -110.04)" gradientUnits="userSpaceOnUse"><stop offset="0.02" stop-color="#b9591a"/><stop offset="0.98" stop-color="#763936"/></radialGradient><radialGradient id="New_Gradient_Swatch_6-6" cx="-1630.41" cy="241.88" r="9.25" gradientTransform="matrix(1.16, -0.03, 0.03, 1.23, 2396.32, -110.04)" xlink:href="#New_Gradient_Swatch_6"/><linearGradient id="New_Gradient_Swatch_4" x1="541.87" y1="271.73" x2="606.23" y2="271.73" gradientUnits="userSpaceOnUse"><stop offset="0.05" stop-color="#aa4e00"/><stop offset="0.98" stop-color="#d25922"/></linearGradient><linearGradient id="New_Gradient_Swatch_4-2" x1="-1582.36" y1="282.97" x2="-1468.99" y2="282.97" gradientTransform="translate(2145.68)" xlink:href="#New_Gradient_Swatch_4"/><radialGradient id="New_Gradient_Swatch_6-7" cx="470.78" cy="234.28" r="12.72" gradientTransform="matrix(1.16, -0.03, 0.03, 1.23, -83.82, -44.74)" xlink:href="#New_Gradient_Swatch_6"/><linearGradient id="Áåçûìÿííûé_ãðàäèåíò_274" x1="-1333.54" y1="181.76" x2="-1329.41" y2="158.32" gradientTransform="translate(2145.68)" gradientUnits="userSpaceOnUse"><stop offset="0.02" stop-color="#ec6158"/><stop offset="1" stop-color="#ff6163"/></linearGradient><linearGradient id="New_Gradient_Swatch_1" x1="783.35" y1="165.99" x2="848.76" y2="165.99" gradientUnits="userSpaceOnUse"><stop offset="0" stop-color="#341810"/><stop offset="0.65" stop-color="#0f0705"/><stop offset="1"/></linearGradient><linearGradient id="Áåçûìÿííûé_ãðàäèåíò_46" x1="-1346.51" y1="270.65" x2="-1346.51" y2="232.7" gradientTransform="translate(2145.68)" gradientUnits="userSpaceOnUse"><stop offset="0.03" stop-color="#d40d33"/><stop offset="1" stop-color="#d12539"/></linearGradient><linearGradient id="Áåçûìÿííûé_ãðàäèåíò_64" x1="-1415.38" y1="184.57" x2="-1395.95" y2="184.57" gradientTransform="translate(2145.68)" gradientUnits="userSpaceOnUse"><stop offset="0.05" stop-color="#d44836"/><stop offset="0.98" stop-color="#d25922"/></linearGradient><linearGradient id="linear-gradient-2" x1="-1510.4" y1="209.76" x2="-1432.45" y2="209.76" gradientTransform="translate(2145.68)" gradientUnits="userSpaceOnUse"><stop offset="0.05" stop-color="#9a2e36"/><stop offset="0.98" stop-color="#d25922"/></linearGradient><linearGradient id="Áåçûìÿííûé_ãðàäèåíò_68" x1="-1432.2" y1="190.93" x2="-1408.07" y2="190.93" gradientTransform="translate(2145.68)" gradientUnits="userSpaceOnUse"><stop offset="0.01" stop-color="#c245ba"/><stop offset="1" stop-color="#ffeadb"/></linearGradient><linearGradient id="Áåçûìÿííûé_ãðàäèåíò_133" x1="-1427.26" y1="197.78" x2="-1406.52" y2="197.78" gradientTransform="translate(2145.68)" gradientUnits="userSpaceOnUse"><stop offset="0" stop-color="#ffeadb"/><stop offset="0.99" stop-color="#c245ba"/></linearGradient></defs><g class="cls-1"><g id="Layer_3" data-name="Layer 3"><rect class="cls-2" width="900" height="305.51"/><g id="layer1"><g id="Layer_6" data-name="Layer 6"><ellipse class="cls-3" cx="645.48" cy="205.72" rx="146.84" ry="140.21"/><circle class="cls-4" cx="647.96" cy="227.9" r="116.82" transform="translate(28.64 524.93) rotate(-45)"/></g><polyline class="cls-5" points="900 305.51 585.31 298.26 900 212.1"/><polyline class="cls-6" points="99.76 306.74 831.69 306.09 0 165.31 0 304.59"/></g></g><g id="Layer_2" data-name="Layer 2"><path class="cls-7" d="M900,328.26c-314.63-6-585.33-3.86-900,2.2L0,400.3c307.3-.34,554.28-.3,900-.3Z"/><path class="cls-8" d="M475.25,340.46c150.75.12,274,.63,424.75,1.13v-37c-314.67-5.82-585.33-5.85-900,0v35.9"/><path class="cls-9" d="M900,343.46c-157.24-.4-271.38-.83-428.56-.84-157.56,0-313.83.52-471.44.9v5.65c157.64.09,313.94-.15,471.45-.14,157.13,0,271.3.28,428.56.21Z"/><path class="cls-10" d="M479.43,339.92c1.84-13.46,3.7-26.71,5.56-40.18h.7c.13,13.47.26,26.72.39,40.19Z"/><path class="cls-11" d="M581.68,340.24q-20.25-20.33-40.87-40.58h.76q23.55,20.28,46.76,40.61Z"/><path class="cls-12" d="M691.11,340.15c-31.56-13.73-61-26.38-92.93-39.94.55,0,1-.11,1.57-.1,33.71,13.58,64.71,26.35,98,40.1Z"/><path class="cls-13" d="M821.08,340.72q-82-20.85-164.83-41.09h1.39q85.51,20.26,170.09,41.18Z"/><path class="cls-14" d="M900,332.23c-72.3-12.62-107-18.44-180-30.41-.56,0-.67.05-1.23.05,73.45,12.29,108.5,18.28,181.25,31.24Z"/><path class="cls-15" d="M900,319.26c-54.84-7.63-82.39-11.29-137.54-18.56h-1.39c55.62,7.44,83.63,11.23,138.93,19.05Z"/><path class="cls-16" d="M900,311.66c-36.77-4.33-46.16-5.37-83-9.54l-1.39,0c37.35,4.28,47.21,5.39,84.44,9.83Z"/><path class="cls-17" d="M900,306.61c-21.47-2.23-15.52-1.61-37-3.78l-1.4,0c22,2.25,16.49,1.67,38.42,4"/><path class="cls-18" d="M386.77,340c13.69-13.51,27.3-26.8,41.25-40.27-.31,0-.47,0-.77,0-15.9,13.47-31.46,26.78-47.12,40.3Z"/><path class="cls-19" d="M277.35,339.65C309.1,326,338.81,313.38,371,299.89h-1.53c-33.91,13.5-65.23,26.13-98.72,39.8Z"/><path class="cls-20" d="M147.38,339.92c54.83-13.77,106.15-26.42,161.6-39.78l-1.5,0c-57.2,13.38-110.17,26-166.75,39.84Z"/><path class="cls-21" d="M25.23,339.69C103.39,325.93,176,313.54,255,300.55c-.56,0-.78,0-1.34,0-80.7,13-155.13,25.47-235,39.29Z"/><path class="cls-22" d="M0,328.65C74.71,318,125.06,311.19,200.34,301.19c-.56,0-1.05-.13-1.6-.12C123.93,310.85,74.25,317.56,0,328Z"/><path class="cls-23" d="M0,319.34c41-5.11,96.49-11.58,153.45-18l-1.39,0C95.57,307.63,40.53,314,0,318.93Z"/><path class="cls-24" d="M-1.47,312.91c41.41-4.4,67.35-6.8,108.89-11l-1.39,0c-41.08,4.1-66.56,6.68-107.5,11Z"/><path class="cls-25" d="M-1.47,306c16.06-1.52,16.6-1.43,32.68-2.92l-1.4,0Q6.4,305.24-17,307.44Z"/><path class="cls-26" d="M900,304c-314.67-5.81-585.33-5.82-900,0v8.79H0c310.43-13.74,900-.4,900-.4s-4.45-.38,0-.16Z"/><path class="cls-27" d="M486.08,339.93q-.54-20.21-1.09-40.4,27.91,0,55.82.13,20.64,20.25,40.87,40.58Q533.88,340,486.08,339.93Z"/><path class="cls-28" d="M697.75,340.21c-33.29-13.75-64.18-26.35-97.9-39.93,20.14.12,37.66-.8,57.79-.64q82.18,20.24,163.44,41.08Q759.42,340.35,697.75,340.21Z"/><path class="cls-29" d="M140.73,340c56.58-13.81,109.46-26.46,166.66-39.84-20.21.12-32.24.24-52.44.39-78.95,13-151.56,25.38-229.72,39.14Q83,339.74,140.73,340Z"/><path class="cls-30" d="M204.37,300.76C130.3,310.55,73.52,318.27,0,328.72V340c11.86,0,6.72-.2,18.58-.19Q136.18,319.47,255,300.3C234.71,300.46,224.6,300.55,204.37,300.76Z"/></g><g id="Layer_4" data-name="Layer 4"><path class="cls-31" d="M444.94,256.21A12.55,12.55,0,0,0,450.82,268l11.07.16a14.9,14.9,0,0,0,5.8-11.93Z"/><path class="cls-32" d="M445.11,259.79s1.61,5.74,9.69,6.53c9.67.94,12.81-8.38,12.81-8.38a14.4,14.4,0,0,1-5.72,10.2l-10.63.11S445.79,265.21,445.11,259.79Z"/><path class="cls-33" d="M570.16,255.3A12.55,12.55,0,0,0,576,267.07l11.07.16a14.91,14.91,0,0,0,5.8-11.93Z"/><path class="cls-32" d="M570.33,258.88s1.6,5.74,9.68,6.53c9.67.94,12.82-8.38,12.82-8.38a14.45,14.45,0,0,1-5.72,10.2l-10.64.11S571,264.3,570.33,258.88Z"/><path class="cls-34" d="M532.68,254.8s-1,7.85,5.71,12.26l10.74.16a15.81,15.81,0,0,0,5.63-12.42Z"/><path class="cls-32" d="M532.85,258.53s1.56,6,9.4,6.8c9.38,1,12.43-8.73,12.43-8.73a15.42,15.42,0,0,1-5.55,10.62l-10.32.12S533.51,264.17,532.85,258.53Z"/><polygon class="cls-35" points="530.88 265.77 530.41 266.76 539.8 266.76 539.31 265.88 530.88 265.77"/><path class="cls-36" d="M516.39,244.85a24.84,24.84,0,0,1-.65,6.94,35.18,35.18,0,0,1-1.15,4.06,60.18,60.18,0,0,1-4.9,10.68l-28.82.58s-8-11.22-7.84-21.12,11.41-15.58,11.41-15.58l-1.22-2.27,22-.59-1.1,2.34s6.42,2.82,10,8.34A13.94,13.94,0,0,1,516.39,244.85Z"/><path class="cls-37" d="M484.3,228.08s4.25-4.57,8-5.23c4.35-.77,8.56,2.75,10.46,4.75Z"/><path class="cls-38" d="M491.45,220.24a7,7,0,0,1,3.27-.08l-.18,2.67-2.7.07Z"/><path class="cls-39" d="M528,236.24h0a.41.41,0,0,1,0,.09c-7.28,15.38-14.08,19.51-14.08,19.51-2.09-7.38-.46-17.62-.46-17.62l9.9-2.78Z"/><polygon class="cls-40" points="484.37 230.41 504.09 229.89 505.19 227.56 483.14 228.13 484.37 230.41"/><path class="cls-32" d="M528,236.34c-7.88,15.38-13.15,18.87-13.15,18.87a60.79,60.79,0,0,1-5.12,11.32l-28.82.58s-8.28-11.65-7.84-21.61c0,0,2.57,12.53,9.31,16.71s23.35.52,27.8-3.16,1.28-13.72,3.45-20.69c0,0-.3,10.71,2.15,12.94a1.5,1.5,0,0,0,.86.38C519.92,251.86,527.22,237.7,528,236.34Z"/><polygon class="cls-41" points="445.8 277.05 445.8 267.78 543.74 265.84 541.87 277.63 536.47 277.63 535.8 269.81 453.69 272.23 453.69 276.88 445.8 277.05"/><polygon class="cls-42" points="543.74 265.84 606.23 267.05 604.26 276.86 541.87 277.63 543.74 265.84"/><polygon class="cls-43" points="453.69 276.88 536.69 276.51 535.8 269.81 453.69 272.23 453.69 276.88"/><polygon class="cls-44" points="387.41 289.78 385.23 276.16 564.02 278.37 563.33 289.78 387.41 289.78"/><polygon class="cls-45" points="564.02 278.37 676.69 276.16 671.81 289.78 563.33 289.78 564.02 278.37"/><polygon class="cls-46" points="676.69 276.16 385.23 276.16 565.53 278.39 676.69 276.16"/><polygon class="cls-44" points="394.44 289.78 396.56 305.99 555.12 305.99 556.41 289.78 394.44 289.78"/><polygon class="cls-47" points="657.34 289.78 654.15 305.99 555.12 305.99 556.41 289.78 657.34 289.78"/><polygon class="cls-47" points="571.37 289.78 567.45 346.64 554.76 346.64 556.41 289.78 571.37 289.78"/><polygon class="cls-44" points="554.76 346.64 547.91 346.64 544.64 289.78 556.41 289.78 554.76 346.64"/><polygon class="cls-44" points="649.98 289.78 648.26 305.99 643.24 305.99 640.29 346.64 647.45 346.64 652.88 289.78 649.98 289.78"/><polygon class="cls-47" points="652.88 289.78 666.23 289.78 657.34 346.64 647.45 346.64 652.88 289.78"/><polygon class="cls-44" points="394.44 289.78 401.14 346.64 417.81 346.64 417.81 305.99 417.81 289.78 394.44 289.78"/><polygon class="cls-44" points="484.06 289.78 488.19 346.64 502.93 346.64 506.38 289.78 484.06 289.78"/><polygon class="cls-48" points="570.25 305.99 571.37 289.78 571.83 289.78 570.51 305.99 570.25 305.99"/><polygon class="cls-49" points="437.32 276.16 440.39 326.87 527.16 326.87 529.22 277.75 597.69 276.08 594.57 274.7 526.29 275.87 437.32 276.16"/><polyline class="cls-50" points="473.2 249.45 462.19 234.92 467.52 230.21 476.36 237.49 478.38 234.88 468.03 226.87 466.2 227.57 459.42 233.37 459.88 235.85 474.71 255.08"/></g><g id="Layer_7" data-name="Layer 7"><path class="cls-51" d="M716.41,185.93s-5.74-.13-6.18.51-1.05,5.2.44,5.43,6.94-1.53,6.94-1.53Z"/><path class="cls-52" d="M743.23,220.72s-.07,41.59,2.75,58.5c0,0,6.69-32.1,7.16-46.52S750,203.15,750,203.15s-2.53.82-3,1.61S743.23,220.72,743.23,220.72Z"/><path class="cls-53" d="M843.31,333.53l.82-8.45s6.46-1.53,10.1-2.82,4.47-.64,4.47-.64l9.62,3s8.92,4.23,13.73,11.74"/><path d="M842.17,135.79s.18,28.13,0,38.52-1.6,25.89-1.6,25.89L788.13,188s-4.11-20.4-3.94-39.61A326.93,326.93,0,0,1,786.7,112a37.62,37.62,0,0,1,25.5-6.1C827.11,107.8,842.17,135.79,842.17,135.79Z"/><path class="cls-54" d="M809.93,163.73s0,4.69-1.7,7.68L808,181l11.57-9s.49-9.15,1.78-12.81Z"/><path class="cls-55" d="M788.55,143.59c0-.48,1.05-1.17,1.08-1.44.11-1.12-2.84-18.78-2.44-21.77s4.22-9.12,6.69-10.34c0,0,5-5.4,15.85-5.4,14.09,0,24.66,13.73,25.71,19.6s-3.05,28.41-11.44,33.52c-7.18,4.36-16.48,6.85-20.84,7.62-.74.13-1.35.21-1.77.25-2.87.23-3.68-.92-4.38-1.8"/><path class="cls-56" d="M805.21,102.41c6.35-1.76,13.26-3.66,20.14-1.12,10,3.68,14.09,14.79,15.38,18.52.8,2.33,1.33,7.6,1.59,11.62l0,.64c.08,1.33.15,2.5.19,3.31l0,.7c.23,13.71,12.09,86.15,2.3,95.75-2.39,2.33-9.86-40.6-14.22-42.31-19.9-7.8-23.37-17.76-30.65-36.6-3.75-9.6-5-13.87-5.27-18.31-.85-12.47,6-24.27,4.58-24.9a.15.15,0,0,0-.11,0c-2.17.12-4.21,2.41-5.75,2.82s-5.29-.64-6,.94-3,25.6-2.64,40.5c0,1.45.1,2.95.18,4.46.75,14,6.23,22.84,3.11,29.59-.3.66-.32,18.93-1,18.62-5.93-2.91-2.75-29-3.43-43.44-.12-2.51-.22-5.09-.29-7.7-.48-17.48,1.27-44.26,2.25-46.13l0-.07c2.12-2.9,6.51-3,8.46-3.16C798.83,105.71,798.81,104.17,805.21,102.41Z"/><path class="cls-55" d="M754.32,246c-9.05-11.39-17.19-48.3-18-48.65s-5.36-.22-9.55.71-7.15,2-8.4,2.06a6.14,6.14,0,0,1-4.93-1.9c-.23-1.41-.53-14.35.22-15a5.16,5.16,0,0,1,3.34-.57,18.47,18.47,0,0,1,1.76,2.07l7.4-2.21.48-.79a9.84,9.84,0,0,1,2.56,0c.4.23,3.57,5,3.57,5s5.9,1.94,6.34,2.12.56,1.28,4.36,9.64,16.37,24.57,16.37,24.57C760.53,234.13,754.32,246,754.32,246Z"/><path class="cls-49" d="M790.36,258.31c-2.47,11.45-15.5,27.13-18.21,28.54-1.25.66-7.15.47-13.11.09-1.73-.11-3.46-.24-5.08-.37l-2.71-.22-.27,0-.67-.06-.37,0c-1.93-.17-3.43-.32-4.17-.39l-.5,0c-3.52-29.76-2-65.06-2-65.06l.55,1.69c-.56,19.05,1.49,52.8,1.49,52.8,5.81-21.48,4.14-71.28,4.14-71.28a11.45,11.45,0,0,0-2.2,1.22l-.25-.4a4,4,0,0,1,3-1.61c.87.5,2.78,4.57,4.18,7.75h0c.93,2.11,1.62,3.82,1.62,3.82a17.91,17.91,0,0,1,4.46-.4s1.49,6.13,1.88,6.13,2.16-2.47,2.43-3.27c.21-.65-1.13-3-1.5-4.26h0a1.67,1.67,0,0,1-.08-.65c.18-.88,4.95-6.18,8.47-9.53l.07-.07a47,47,0,0,0,4-4.4c1.65-2,2.78-3.7,2.78-3.7h10.86s.31,4.45.69,11l.09,1.44c.46,8,1,18.81,1.2,28.56S791.22,254.35,790.36,258.31Z"/><path class="cls-57" d="M777.64,241.61a39.9,39.9,0,0,0,.4-5.52S762,274.46,757.72,280.81l-1.93,1.36s10-41.38,6.06-62.46c.4,0,2.16-2.46,2.43-3.26.21-.65-1.12-3-1.5-4.27,0,0,5.2-1.08,7.84-2,2.46-.87,8.58-6.88,9.37-7.66-.86.94-7.66,8.59-8.11,11.4-.47,3,9,18,9,18l2.23,38.66L762,286.33l4.76-9.38S777.28,243,777.64,241.61Z"/><path class="cls-49" d="M713.93,343.2c-10.21-8.62-7-21.83-7-21.83.67-.68,1.4-1.38,2.17-2.1h0c19-17.83,65.71-49.33,66.47-49.84h0a84.25,84.25,0,0,0,39.54-6.08c5,4.9,11.35,17,16,27.12,3.81,8.27,6.47,15.24,6.27,15.94-.44,1.59-6.17,10.48-6.17,10.48l4.24-.89,6.74-1.41,9.12-1.92c1.68.71,7.82,5.63,7.82,5.63,1,5.56,1.6,11.19,2,15.17l0,.4.07.81c.15,1.55.24,2.78.3,3.51"/><polyline class="cls-58" points="861.6 338.97 853.47 335.25 848.71 329.86 846.01 323.48 822.79 323.48 806.21 322.43 783.78 327.82 785.19 329.86 819.62 335.11 853.87 339.68"/><path class="cls-58" d="M797.52,336l-16.84-7.77-10.94,6.13,2.41-6.13L806,320.84l5.7-9.69-6.94-6.91-12.86,1c-15.7,2.69-19.78,0-19.78,0l2.63-5,28.61-21-60.16,27.14,53.82-34.49s-12.33.89-16.94,1.94-26.23,21.71-26.91,22.35l22.35-26.74h0a84.25,84.25,0,0,0,39.54-6.08c9,8.9,22.72,41.48,22.28,43.06s-6.17,10.48-6.17,10.48l4.24-.89-.36.45,10.21,6,3.93,4.88,11.89,6.15,0,.4.4,4.65"/><path class="cls-59" d="M792.56,279.72l-.63,2.34s4.77,9.25,9.93,13.95,17.85,22.65,19.49,24.65,5.11,1.76,5.11,1.76l-2.76-17.21,4.82-10.5S806.56,280.86,792.56,279.72Z"/><path class="cls-55" d="M809.9,281s0,.37,0,.92c0,1.75-.18,5.42-1.21,6.19-1.38,1-12.93,8.51-13.76,9.73s-2,4.32-3.84,5.14a7.19,7.19,0,0,1-3.49.61,37.52,37.52,0,0,1,3.36-5.86,56.33,56.33,0,0,1,4.07-4.46l0,0a56.44,56.44,0,0,0-7.66,4.4s-4.2,4.69-6.41,5.58a12.61,12.61,0,0,1-4.73.77c-2.08.93-4.15-.1-4-.33s2.63-3.45,2.63-3.45-.38-4,.38-5.15l2.23-2.38a11.11,11.11,0,0,1,3-2c.68-.28,3.89-2.51,3.89-2.51s-3.88-.13-4.28-.62a4.69,4.69,0,0,1-.27-2.14s4.45-.54,7-1.15,6.12-2.82,8.21-3.75c1.81-.81,3.29-1.08,5.63-2.15.35-.17.72-.34,1.12-.55a31.18,31.18,0,0,0,5.19-3.35c3-.45,12.75,1,12.75,1A51,51,0,0,0,809.9,281Z"/><polygon class="cls-60" points="776.19 304.03 776.63 304.05 784.92 295.5 787.42 292.72 783.4 295.38 776.19 304.03"/><polygon class="cls-60" points="774.44 300.2 779.79 294.78 783.7 291.39 778.81 294.58 774.44 300.2"/><path class="cls-61" d="M813.22,253.65l1.88,9.68s-20.78,10.92-39.54,6.08c0,0,.48-6.75.65-7s3.35-3.17,3.35-3.17l.06-.94,1.47-24.3.08-1.32.62,1.08s16.81,4.15,41,1.05c0,0-7.26,9.87-9.57,16.45l.74,1.05Z"/><path class="cls-62" d="M813.22,253.65l1.88,9.68s-20.78,10.92-39.54,6.08c17.79,3,33.11-4.57,33.11-4.57l.62-7.58a132,132,0,0,1-29.64,2c11.28.61,30.69-2.89,30.69-2.89l-1.14-6.65c-18.37,11.87-29.58,8.59-29.58,8.59,13.61,1.53,29.14-9.69,29.14-9.69s8.83-7.72,5.55-9.51c-23.78,1.81-33.22-5.1-33.22-5.1l.08-1.32.62,1.08s16.81,4.15,41,1.05c0,0-7.26,9.87-9.57,16.45l.74,1.05Z"/><path class="cls-49" d="M828.86,178.45c9.09,6.16,11.47,8.76,13.76,12.6,5.26,8.86,3.7,16.41,7.14,50.89.14,1.39.28,2.74.41,4.05v0c.08.71.14,1.41.21,2.09.63,6.63,1,11.78.91,13.9-.17,4.21-4.23,16.07-9.25,28.39h0c-.86,2.14-1.76,4.27-2.67,6.4-2.49,5.82-5.09,11.45-7.47,16.15a82.29,82.29,0,0,1-5.44,9.46s-8.1-14.35-12.15-19.55c0,0,9.69,0,10.39-1.06v0c.53-1.21-15.24-18-32.14-22.07l7.83-3h0l1.5-.56,3.59-4.81,6.81-9.08,3.11-4.15,2.07-2.77-1.06-2.48h0c.41-.47,7-7.85,7.82-9.64s.53-8.89.53-8.89l-4.58,1a96.37,96.37,0,0,1-29.1.18,88.84,88.84,0,0,1-9.32-1.82l-.62-1.08c-1.5-2.62-5.37-9.47-7.52-14.08l0-.1a.08.08,0,0,1,0-.05h0a17.14,17.14,0,0,1-1.41-3.8c-.27-2.47,7.09-10.41,10.43-13.87l0,0,.08-.08c.91-1,1.5-1.54,1.5-1.54s-2.4-4-5.92-4.57c0,0,12.18-7.86,18.78-12.91a45.64,45.64,0,0,0,5.11-4.61,48.21,48.21,0,0,0,5.49-6.37l.58.73c.29,2.47.85,7.4.85,7.4l5.63-9.7,4.72-1.07S826.13,175.56,828.86,178.45Z"/><polygon class="cls-63" points="730.46 186.76 748.97 181.04 749.74 183 730.3 188.11 730.46 186.76"/><path class="cls-64" d="M713.23,191.46l-60.32,20.33s-3.4-.51-8.94,1.54c-6.52,2.4-8.69,4.4-8.69,4.4l4.7,10.33,16.32-5L654.07,214l59.16-20.33Z"/><path class="cls-65" d="M640.15,227.91s6.1-5,16.32-5C656.47,222.92,650.72,227.09,640.15,227.91Z"/><path class="cls-66" d="M754,210.92l.41,0c0,.55,2.14,54.82-1,74.1l-.4-.06"/><line class="cls-67" x1="857.24" y1="337.68" x2="853.79" y2="335.44"/><path class="cls-58" d="M773.58,218.47l0,.07,0,0,0-.06Z"/><path class="cls-57" d="M780.57,233.13s-.24-.4-.63-1.08L772.43,218l0-.07c.55.87,5,7.89,5.58,8.58s4.15,4.08,4.15,4.08l-.74-12.09,9.32,14.95,7.24,1.79,5-3.16s6.79-9.89,9.06-11.6,6.73-2.64,6.73-2.64l-9.45,16s.42,1.25,1.24,1.39,2.61-1,2.61-1l12.24-28.46-8.69,22.54,18.06-10.88c-.77.59-13.15,10.09-13.72,10.88s2.55,5.47,2.55,5.47L819,234.78A97.39,97.39,0,0,1,780.57,233.13Z"/><path class="cls-58" d="M828,242.82c3.79-5.91,11.31-23.39,11.78-24.48-.3,1.32-5.94,25.47-11.25,30.94-1,1-11,6.11-11,6.11l-1.06-2.48h0C816.92,252.57,825.75,246.33,828,242.82Z"/><path class="cls-68" d="M851.29,262c-.28,6.94-18.48,27.31-27.4,44.35-2.08,4,4.1,13.91,2.57,16.06,0,0-8.1-14.35-12.15-19.55,0,0,9-.36,10.39-1.06v0c.44-.65,13.24-23,18.61-32.38s6.85-22.66,6.86-23.39C850.93,253.64,851.38,259.67,851.29,262Z"/><path class="cls-69" d="M760.25,214.33s1,18.88-1.24,26.85c0,0-1.15-19.32-3.22-26.45C755.79,214.73,759.25,214,760.25,214.33Z"/><polygon class="cls-70" points="785.08 200.76 804.79 196.37 828.51 185.93 785.08 200.76"/><path class="cls-71" d="M736.37,197.34c-.77-.35-5.36-.22-9.55.71s-7.51,2-8.4,2.06c-1.47,0-3.91-.49-4.93-1.9,0,0,15.14-1.83,15.73-3.64.69-2.12,0-12.82,0-12.82l3.15,4.41-2.37.73.28,1.22,2.79-.73v2.31s2.62-.31,3.29-.41C739.16,188.89,736.37,197.34,736.37,197.34Z"/><path class="cls-72" d="M746.84,231.16a92.07,92.07,0,0,0,2.69-22.42s.16,20.9-.16,28.56C749.37,237.3,748,234.16,746.84,231.16Z"/><path class="cls-73" d="M718.81,184.75h-1.36a54.23,54.23,0,0,0-1,6.68s.33-6.47,1.37-8Z"/><polygon class="cls-74" points="730.98 186.55 730.25 184.94 730.25 186 729.91 187.39 730.98 190.34 731.01 189.37 730.45 187.39 730.98 186.55"/><path class="cls-74" d="M739.16,188.89l-5.2-1.74-3.33.87.38,1.35S737,189.59,739.16,188.89Z"/><path class="cls-75" d="M718.42,200.11s7.83-4.19,11.89-4.6,8.85,1.35,8.85,1.35l-2.79.48S734.09,196,718.42,200.11Z"/><polygon class="cls-76" points="639.29 215.81 643.54 225.86 642.81 226.23 638.62 216.19 639.29 215.81"/><path class="cls-77" d="M859.13,318.28,841,319.74l-5.86-3.31.36-.45,15.86-3.33S857.59,316.39,859.13,318.28Z"/><path class="cls-49" d="M772.16,214.65v35.12l5.28-13.18s.78,4.71.48,5.77-1.41,5.47-1.41,5.47l3.37,6.08,1.29-21.21S775.11,223,772.16,214.65Z"/><polygon class="cls-78" points="814.71 172.59 819.28 171.75 828.86 178.45 819.43 168.04 814.7 169.1 813.04 171.99 814.71 172.59"/><polygon class="cls-78" points="803.67 175.46 807.65 170.68 808.23 171.41 809.33 180.95 808.28 176.57 808.28 176.57 806.87 173.53 803.67 175.46"/></g></g></svg>